<?xml version="1.0" encoding="UTF-8" standalone="no"?>
<!-- Created with Inkscape (http://www.inkscape.org/) -->

<svg
   width="429.00006"
   height="76.382935"
   viewBox="0 0 429.00006 76.382935"
   version="1.1"
   id="svg1"
   xml:space="preserve"
   xmlns:inkscape="http://www.inkscape.org/namespaces/inkscape"
   xmlns:sodipodi="http://sodipodi.sourceforge.net/DTD/sodipodi-0.dtd"
   xmlns="http://www.w3.org/2000/svg"
   xmlns:svg="http://www.w3.org/2000/svg"><sodipodi:namedview
   id="namedview1"
   pagecolor="#ffffff"
   bordercolor="#000000"
   borderopacity="0.25"
   inkscape:showpageshadow="2"
   inkscape:pageopacity="0.0"
   inkscape:pagecheckerboard="0"
   inkscape:deskcolor="#d1d1d1"
   inkscape:document-units="px" /><defs
   id="defs1" /><g
   inkscape:label="Layer 1"
   inkscape:groupmode="layer"
   id="layer1"
   transform="translate(-41.499969,-217.80853)"><g
     id="g11"
     transform="matrix(1.0463415,0,0,1.0463415,41.499971,217.80854)"><g
       id="SvgjsG1745"
       featurekey="symbolContainer"
       fill="#0af886"><rect
         width="90"
         height="73"
         rx="10"
         ry="10"
         id="rect1"
         x="0"
         y="0" /></g><g
       id="SvgjsG1746"
       featurekey="uHI19F-0"
       transform="matrix(1.1535622,0,0,1.1535622,16.170174,9.5221948)"
       fill="#ffffff"><g
         id="g10"><g
           id="g1"><path
             fill="#ffffff"
             d="M 39.439,37.342 H 11.181 V 9.083 H 39.44 V 37.342 Z M 13.472,35.052 H 37.148 V 11.375 H 13.472 Z"
             id="path1" /></g><g
           id="g2"><rect
             x="7.3299999"
             y="13.834"
             fill="#ffffff"
             width="2.2920001"
             height="18.521"
             id="rect2" /></g><g
           id="g3"><rect
             x="40.743"
             y="13.953"
             fill="#ffffff"
             width="2.2920001"
             height="18.521"
             id="rect3" /></g><g
           id="g4"><rect
             x="3.3199999"
             y="13.834"
             fill="#ffffff"
             width="2.2909999"
             height="18.521"
             id="rect4" /></g><g
           id="g5"><rect
             x="44.374001"
             y="13.953"
             fill="#ffffff"
             width="2.29"
             height="18.521"
             id="rect5" /></g><g
           id="g6"><path
             fill="#ffffff"
             d="m 19.274,31.989 c -2.085,0 -3.781,-1.793 -3.781,-3.993 0,-2.202 1.696,-3.995 3.781,-3.995 2.085,0 3.784,1.793 3.784,3.995 0,2.2 -1.699,3.993 -3.784,3.993 z m 0,-5.699 c -0.821,0 -1.49,0.764 -1.49,1.703 0,0.939 0.669,1.702 1.49,1.702 0.821,0 1.493,-0.763 1.493,-1.702 0,-0.939 -0.672,-1.703 -1.493,-1.703 z"
             id="path5" /></g><g
           id="g7"><path
             fill="#ffffff"
             d="m 29.436,31.989 c -2.086,0 -3.78,-1.793 -3.78,-3.993 0,-2.202 1.694,-3.995 3.78,-3.995 2.085,0 3.783,1.793 3.783,3.995 0,2.2 -1.698,3.993 -3.783,3.993 z m 0,-5.699 c -0.818,0 -1.488,0.764 -1.488,1.703 0,0.939 0.67,1.702 1.488,1.702 0.823,0 1.492,-0.763 1.492,-1.702 0,-0.939 -0.669,-1.703 -1.492,-1.703 z"
             id="path6" /></g><g
           id="g8"><polygon
             fill="#ffffff"
             points="20.767,19.569 33.188,16.277 33.188,27.6 30.896,27.6 30.896,19.256 23.058,21.332 23.058,27.6 20.767,27.6 "
             id="polygon7" /></g><g
           id="g9"><polygon
             fill="#ffffff"
             points="20.767,16.656 33.188,13.367 33.188,24.688 30.896,24.688 30.896,16.342 23.058,18.421 23.058,24.688 20.767,24.688 "
             id="polygon8" /></g></g></g><g
       id="SvgjsG1747"
       featurekey="8FbbNb-0"
       transform="matrix(2.1707673,0,0,2.1707673,106.74385,9.1041962)"
       fill="#ffffff"
       style="fill:#000000"><path
         d="m 6.54,5.84 c 1.5067,0 2.8134,0.31 3.92,0.93 1.1066,0.62 1.9533,1.47 2.54,2.55 0.5867,1.08 0.88,2.28 0.88,3.6 0,1.32 -0.32666,2.5234 -0.98,3.61 -0.65334,1.0866 -1.5667,1.9367 -2.74,2.55 C 8.9867,19.6933 7.68,20 6.24,20 H 1.5 V 5.84 Z M 5.94,18.2 c 1.08,0 2.07,-0.21002 2.97,-0.63002 0.9,-0.42 1.6133,-1.0233 2.14,-1.81 0.5267,-0.7867 0.79,-1.7333 0.79,-2.84 0,-1.6 -0.49666,-2.88 -1.49,-3.84 -0.99334,-0.96 -2.31,-1.44 -3.95,-1.44 H 3.42 v 10.56 H 5.94 Z M 18.56,5.84 V 20 H 16.64 V 5.84 Z M 28.72,5.48 c 2.36,0 4.1134,0.6133 5.26,1.84 l -1.36,1.46 c -1.0533,-1 -2.36,-1.5 -3.92,-1.5 -1.56,0 -2.84,0.53666 -3.84,1.61 -1,1.07334 -1.5,2.4166 -1.5,4.03 0,1.6267 0.53,2.9734 1.59,4.04 1.06,1.0666 2.3634,1.6 3.91,1.6 1.4667,0 2.6266,-0.24666 3.48,-0.74 V 13.88 H 29.2 v -1.8 h 5.06 v 6.98 c -0.69334,0.41334 -1.53,0.73334 -2.51,0.96 -0.98,0.22666 -1.93,0.34 -2.85,0.34 -2.2266,0 -4.0466,-0.69334 -5.46,-2.08 -1.4134,-1.38666 -2.12,-3.1734 -2.12,-5.36 0,-2.1066 0.69666,-3.8734 2.09,-5.3 1.39334,-1.4266 3.1634,-2.14 5.31,-2.14 z M 47.78,5.6 c 1.08,0 1.9534,0.27998 2.62,0.83998 0.6666,0.56 1.0133,1.3467 1.04,2.36 0,1.4133 -0.98,2.6266 -2.94,3.64 l 2.8,2.92 1.78,-2.9 h 2.18 l -2.74,4.24 3.22,3.3 h -2.58 l -1.74,-1.88 c -0.64,0.77334 -1.2967,1.34 -1.97,1.7 -0.6733,0.36 -1.4633,0.54 -2.37,0.54 -1.3733,0 -2.4866,-0.37666 -3.34,-1.13 -0.8534,-0.75334 -1.2867,-1.7433 -1.3,-2.97 0,-1.6667 1.0733,-3.02 3.22,-4.06 -0.61334,-0.64 -1.0433,-1.2167 -1.29,-1.73 -0.2467,-0.5133 -0.37,-1.03 -0.37,-1.55 0,-1.0133 0.36,-1.82 1.08,-2.42 0.72,-0.6 1.62,-0.9 2.7,-0.9 z m -1.86,3.34 c 0,0.69334 0.46666,1.48 1.4,2.36 0.70666,-0.36 1.25,-0.74 1.63,-1.14 0.38,-0.4 0.57,-0.85334 0.57,-1.36 0,-0.46666 -0.16,-0.83666 -0.48,-1.11 -0.32,-0.27334 -0.74,-0.41 -1.26,-0.41 -0.52,0 -0.96,0.15 -1.32,0.45 -0.36,0.3 -0.54,0.70334 -0.54,1.21 z m -1.44,7.26 c 0,0.66666 0.2634,1.2433 0.79006,1.73 0.52666,0.4867 1.15,0.73666 1.87,0.75 1.1067,0 2.1534,-0.6 3.14,-1.8 l -3.42,-3.56 c -0.77334,0.46666 -1.2867,0.82 -1.54,1.06 -0.2533,0.24 -0.45668,0.51334 -0.61002,0.82 -0.15334,0.30666 -0.23,0.64 -0.23,1 z M 69.84,5.48 c 2.36,0 4.1134,0.6133 5.26,1.84 l -1.36,1.46 c -1.0533,-1 -2.36,-1.5 -3.92,-1.5 -1.56,0 -2.84,0.53666 -3.84,1.61 -1,1.07334 -1.5,2.4166 -1.5,4.03 0,1.6267 0.53,2.9734 1.59,4.04 1.06,1.0666 2.3634,1.6 3.91,1.6 1.4667,0 2.6266,-0.24666 3.48,-0.74 v -3.94 h -3.14 v -1.8 h 5.06 v 6.98 c -0.69334,0.41334 -1.53,0.73334 -2.51,0.96 -0.98,0.22666 -1.93,0.34 -2.85,0.34 -2.2266,0 -4.0466,-0.69334 -5.46,-2.08 -1.4134,-1.38666 -2.12,-3.1734 -2.12,-5.36 0,-2.1066 0.69666,-3.8734 2.09,-5.3 1.39334,-1.4266 3.1634,-2.14 5.31,-2.14 z M 85.06,5.84 91.12,20 H 88.88 L 87.46,16.5 H 80.72 L 79.32,20 H 77.08 L 83.32,5.84 Z m -3.66,8.98 h 5.36 l -2.64,-6.5 h -0.04 z m 19.16,-8.98 v 1.8 H 96 V 20 H 94.08 V 7.64 h -4.56 v -1.8 z m 3.96,0 v 5.88 h 7.34 V 5.84 h 1.92 V 20 h -1.92 v -6.48 h -7.34 V 20 H 102.6 V 5.84 Z m 22.04,0 v 1.8 h -7.22 v 4.22 h 6.72 v 1.8 h -6.72 v 4.54 h 7.58 V 20 h -9.5 V 5.84 Z m 8.16,0 c 1.3867,0 2.4734,0.34666 3.26,1.04 0.7866,0.69334 1.18,1.6667 1.18,2.92 0,0.94666 -0.32334,1.7733 -0.97,2.48 -0.64666,0.7067 -1.4767,1.1267 -2.49,1.26 h -0.02 L 139.7,20 h -2.4 l -3.6,-6.24 h -2.14 V 20 h -1.92 V 5.84 Z m -0.56,6.24 c 1,0 1.7433,-0.18336 2.23,-0.55002 0.4867,-0.36666 0.73,-0.94332 0.73,-1.73 0,-1.52 -0.98666,-2.28 -2.96,-2.28 h -2.6 v 4.56 h 2.6 z"
         id="path10"
         style="fill:#000000" /></g></g></g></svg>
