<?xml version="1.0" encoding="UTF-8" standalone="no"?>
<svg
   fill="none"
   height="26"
   viewBox="0 0 26.2955 26"
   width="26.2955"
   version="1.1"
   id="svg1"
   xmlns="http://www.w3.org/2000/svg"
   xmlns:svg="http://www.w3.org/2000/svg">
  <defs
     id="defs1" />
  <path
     clip-rule="evenodd"
     d="M 0.98608,0 H 25.3094 c 0.5446,0 0.9861,0.436522 0.9861,0.975 v 24.05 C 26.2955,25.5635 25.854,26 25.3094,26 H 0.98608 C 0.441483,26 0,25.5635 0,25.025 V 0.975 C 0,0.436522 0.441483,0 0.98608,0 Z M 14.6175,13.8324 V 11.7 H 5.25909 v 2.1324 H 8.6002 V 23.327 H 11.26 v -9.4946 z m 1.0604,9.2439 c 0.4289,0.2162 0.9362,0.3784 1.5218,0.4865 0.5857,0.1081 1.2029,0.1622 1.8518,0.1622 0.6324,0 1.2331,-0.0595 1.8023,-0.1784 0.5691,-0.1189 1.0681,-0.3149 1.497,-0.5879 0.4289,-0.273 0.7685,-0.6297 1.0187,-1.0703 0.2502,-0.4406 0.3753,-0.9852 0.3753,-1.6339 0,-0.4703 -0.0715,-0.8824 -0.2145,-1.2365 -0.1429,-0.3541 -0.3491,-0.669 -0.6186,-0.9447 -0.2694,-0.2757 -0.5925,-0.523 -0.9692,-0.7419 -0.3767,-0.2189 -0.8014,-0.4257 -1.2743,-0.6203 -0.3465,-0.1406 -0.6572,-0.2771 -0.9321,-0.4095 -0.275,-0.1324 -0.5087,-0.2676 -0.7011,-0.4054 -0.1925,-0.1379 -0.3409,-0.2838 -0.4454,-0.4379 -0.1045,-0.154 -0.1567,-0.3284 -0.1567,-0.523 0,-0.1784 0.0467,-0.3392 0.1402,-0.4824 0.0935,-0.1433 0.2254,-0.2663 0.3959,-0.369 0.1705,-0.1027 0.3794,-0.1824 0.6269,-0.2392 0.2474,-0.0567 0.5224,-0.0851 0.8248,-0.0851 0.22,0 0.4523,0.0162 0.697,0.0486 0.2447,0.0325 0.4908,0.0825 0.7382,0.15 0.2475,0.0676 0.4881,0.1527 0.7218,0.2555 0.2337,0.1027 0.4495,0.2216 0.6475,0.3567 V 12.146 C 22.8237,11.9946 22.3852,11.8824 21.9095,11.8095 21.4339,11.7365 20.8881,11.7 20.2722,11.7 c -0.6268,0 -1.2207,0.0662 -1.7816,0.1987 -0.5609,0.1324 -1.0544,0.3392 -1.4806,0.6203 -0.4262,0.2811 -0.763,0.6392 -1.0104,1.0743 -0.2475,0.4352 -0.3712,0.9555 -0.3712,1.5609 0,0.7731 0.2268,1.4326 0.6805,1.9785 0.4537,0.546 1.1424,1.0082 2.0662,1.3866 0.363,0.146 0.7011,0.2892 1.0146,0.4298 0.3134,0.1405 0.5842,0.2865 0.8124,0.4378 0.2282,0.1514 0.4083,0.3162 0.5403,0.4946 0.132,0.1784 0.198,0.3811 0.198,0.6082 0,0.1676 -0.0413,0.323 -0.1238,0.4662 -0.0825,0.1433 -0.2076,0.2676 -0.3753,0.373 -0.1677,0.1054 -0.3766,0.1879 -0.6268,0.2473 -0.2502,0.0595 -0.5431,0.0892 -0.8785,0.0892 -0.5719,0 -1.1383,-0.0986 -1.6992,-0.2959 -0.5608,-0.1973 -1.0805,-0.4933 -1.5589,-0.8879 z"
     fill="#fff"
     fill-rule="evenodd"
     id="path1"
     style="fill:#3178c6;fill-opacity:1" />
</svg>
