<?xml version="1.0" encoding="UTF-8" standalone="no"?>
<svg
   version="1.1"
   x="0px"
   y="0px"
   viewBox="0 0 78 12.399902"
   xml:space="preserve"
   id="svg4"
   width="78"
   height="12.399902"
   xmlns="http://www.w3.org/2000/svg"
   xmlns:svg="http://www.w3.org/2000/svg"><defs
     id="defs4" /><path
     d="m 78,0 c -3.805664,0 -5.688965,3.012207 -7.350586,5.669922 -1.587402,2.538086 -2.958008,4.72998 -5.655273,4.72998 -2.697266,0 -4.067871,-2.191894 -5.655274,-4.72998 C 57.677246,3.012207 55.793945,0 51.988281,0 c -3.803711,0 -5.686035,3.012207 -7.34668,5.669922 -1.585937,2.538086 -2.955566,4.72998 -5.65039,4.72998 -2.695801,0 -4.065918,-2.191894 -5.652344,-4.72998 C 31.677246,3.012207 29.794434,0 25.989746,0 c -3.803223,0 -5.685547,3.012207 -7.346191,5.669922 -1.585938,2.538086 -2.955567,4.72998 -5.650391,4.72998 -2.693848,0 -4.062988,-2.191894 -5.648437,-4.72998 C 5.68457,3.012207 3.802734,0 0,0 c 0,0.5842883 0,1.3026236 0,2 2.693848,0 4.062988,2.191895 5.648437,4.72998 1.660157,2.657715 3.541993,5.669922 7.344727,5.669922 3.803711,0 5.686035,-3.012207 7.34668,-5.67041 C 21.925781,4.191895 23.294922,2 25.989746,2 c 2.696289,0 4.066406,2.191895 5.652832,4.72998 1.661621,2.657715 3.544434,5.669922 7.348633,5.669922 3.803711,0 5.686035,-3.012207 7.34668,-5.669921 C 47.923828,4.191895 49.293457,2 51.988281,2 c 2.697266,0 4.067871,2.191895 5.655274,4.72998 1.661621,2.657715 3.544922,5.669922 7.350585,5.669922 3.805664,0 5.688965,-3.012207 7.350586,-5.669921 C 73.932129,4.191895 75.302734,2 78,2 Z"
     id="path1" /></svg>
