<?xml version="1.0" encoding="UTF-8" standalone="no"?>
<svg
   height="15.626484"
   width="1000"
   version="1.1"
   id="svg1"
   sodipodi:docname="wave02.svg"
   inkscape:export-filename="wave02.svg"
   inkscape:export-xdpi="96"
   inkscape:export-ydpi="96"
   xmlns:inkscape="http://www.inkscape.org/namespaces/inkscape"
   xmlns:sodipodi="http://sodipodi.sourceforge.net/DTD/sodipodi-0.dtd"
   xmlns="http://www.w3.org/2000/svg"
   xmlns:svg="http://www.w3.org/2000/svg">
  <sodipodi:namedview
     id="namedview1"
     pagecolor="#ffffff"
     bordercolor="#000000"
     borderopacity="0.25"
     inkscape:showpageshadow="2"
     inkscape:pageopacity="0.0"
     inkscape:pagecheckerboard="0"
     inkscape:deskcolor="#d1d1d1" />
  <defs
     id="defs1" />
  <path
     id="path1"
     style="fill:#040606;fill-opacity:1;fill-rule:nonzero;stroke:none;stroke-width:0.0167999"
     d="M 1.1431987,0 C 0.51169245,0 0,0.51250152 0,1.1441775 0,1.7758535 0.51169245,2.288355 1.1431987,2.288355 c 4.6376053,0 6.9954718,3.0231696 9.4910943,6.2269098 2.596588,3.3330822 5.539185,7.1107352 11.293981,7.1107352 5.754967,0 8.698372,-3.777653 11.294961,-7.1107352 2.495622,-3.2037402 4.852677,-6.2269098 9.490115,-6.2269098 4.637439,0 6.994492,3.0231696 9.490118,6.2269098 2.596586,3.3330822 5.540157,7.1107352 11.294959,7.1107352 5.754796,0 8.697556,-3.777653 11.293981,-7.1107352 2.495789,-3.2037402 4.853487,-6.2269098 9.491093,-6.2269098 4.637606,0 6.994498,3.0231696 9.490115,6.2269098 2.596757,3.3330822 5.539828,7.1107352 11.294964,7.1107352 5.7548,0 8.69757,-3.777653 11.29398,-7.1107352 2.49562,-3.2037402 4.85285,-6.2269098 9.49011,-6.2269098 4.63727,0 6.99565,3.0231696 9.4911,6.2269098 2.59642,3.3330822 5.53852,7.1107352 11.29398,7.1107352 5.75564,0 8.69742,-3.777653 11.293,-7.1107352 2.49647,-3.2037402 4.8553,-6.2269098 9.49207,-6.2269098 4.63678,0 6.99366,3.0231696 9.49012,6.2269098 2.59559,3.3330822 5.53931,7.1107352 11.29496,7.1107352 5.75564,0 8.69772,-3.777653 11.29496,-7.1107352 2.49478,-3.2037402 4.85166,-6.2269098 9.49012,-6.2269098 4.63844,0 6.99562,3.0231696 9.49207,6.2269098 2.59558,3.3330822 5.53904,7.1107352 11.293,7.1107352 5.75562,0 8.69868,-3.777653 11.29594,-7.1107352 2.49479,-3.2037402 4.85336,-6.2269098 9.49012,-6.2269098 4.63677,0 6.99531,3.0231696 9.49012,6.2269098 2.59723,3.3330982 5.5403,7.1107352 11.29594,7.1107352 5.75396,0 8.69743,-3.777637 11.293,-7.1107352 2.49647,-3.2037402 4.8536,-6.2269098 9.49207,-6.2269098 4.63843,0 6.99534,3.0231696 9.49012,6.2269098 2.59726,3.3330982 5.53931,7.1107352 11.29495,7.1107352 5.75565,0 8.69938,-3.777637 11.29496,-7.1107352 2.49647,-3.2037402 4.85337,-6.2269098 9.49011,-6.2269098 4.63678,0 6.99562,3.0231696 9.49208,6.2269098 2.59559,3.3330982 5.53738,7.1107352 11.29301,7.1107352 5.75548,0 8.69755,-3.777637 11.29398,-7.1107352 2.49545,-3.2037402 4.85382,-6.2269098 9.49109,-6.2269098 4.63726,0 6.99449,3.0231696 9.49011,6.2269098 2.59642,3.3330982 5.53918,7.1107352 11.29399,7.1107352 5.75514,0 8.6982,-3.777637 11.29495,-7.1107352 2.49563,-3.2037402 4.85252,-6.2269098 9.49012,-6.2269098 4.63761,0 6.99532,3.0231696 9.49109,6.2269098 2.59643,3.3330982 5.53916,7.1107352 11.29398,7.1107352 5.7548,0 8.69838,-3.777637 11.29496,-7.1107352 2.49563,-3.2037402 4.85268,-6.2269098 9.49012,-6.2269098 4.63743,0 6.99449,3.0231696 9.49012,6.2269098 2.5966,3.3330982 5.53999,7.1107352 11.29496,7.1107352 5.75481,0 8.69739,-3.777637 11.29398,-7.1107352 2.49561,-3.2037402 4.8535,-6.2269098 9.49109,-6.2269098 4.63762,0 6.99453,3.0231696 9.4901,6.2269098 2.59659,3.3330982 5.53922,7.1107352 11.29402,7.1107352 5.75496,0 8.69833,-3.777637 11.29493,-7.1107352 2.49562,-3.2037402 4.85268,-6.2269098 9.49012,-6.2269098 4.63743,0 6.99449,3.0231696 9.49011,6.2269098 2.5966,3.3330982 5.54017,7.1107352 11.29498,7.1107352 5.75485,0 8.69753,-3.777637 11.29398,-7.1107352 2.49576,-3.2037402 4.85352,-6.2269098 9.49107,-6.2269098 4.63763,0 6.99454,3.0231696 9.49011,6.2269098 2.59674,3.3330982 5.53982,7.1107352 11.29497,7.1107352 5.75482,0 8.69855,-3.777637 11.29498,-7.1107352 2.49563,-3.2037402 4.85188,-6.2269098 9.48912,-6.2269098 4.63729,0 6.99565,3.0231696 9.49112,6.2269098 2.5964,3.3330982 5.53943,7.1107352 11.29493,7.1107352 5.75566,0 8.69643,-3.777637 11.29202,-7.1107352 2.49647,-3.2037402 4.85538,-6.2269098 9.49207,-6.2269098 4.63679,0 6.99465,3.0231696 9.49112,6.2269098 2.59559,3.3330982 5.53832,7.1107352 11.29398,7.1107352 5.75565,0 8.69768,-3.777637 11.29497,-7.1107352 2.49477,-3.2037402 4.85168,-6.2269098 9.49012,-6.2269098 4.63849,0 6.9956,3.0231696 9.49207,6.2269098 2.59554,3.3330982 5.53902,7.1107352 11.29297,7.1107352 5.75566,0 8.69874,-3.777637 11.29593,-7.1107352 2.49482,-3.2037402 4.85338,-6.2269098 9.49012,-6.2269098 4.63673,0 6.9954,3.0231696 9.49011,6.2269098 2.5973,3.3330822 5.54133,7.1107352 11.29694,7.1107352 5.75396,0 8.69738,-3.777653 11.29302,-7.1107352 2.49643,-3.2037402 4.85262,-6.2269098 9.49107,-6.2269098 4.6385,0 6.99635,3.0231696 9.49112,6.2269098 2.59725,3.3330822 5.53831,7.1107352 11.29398,7.1107352 5.75561,0 8.69938,-3.777653 11.29493,-7.1107352 2.49647,-3.2037402 4.85337,-6.2269098 9.49016,-6.2269098 4.63669,0 6.9956,3.0231696 9.49207,6.2269098 2.59555,3.3330822 5.53732,7.1107352 11.29298,7.1107352 5.75545,0 8.69758,-3.777653 11.29397,-7.1107352 2.49547,-3.2037402 4.85383,-6.2269098 9.49112,-6.2269098 4.63724,0 6.9945,3.0231696 9.49011,6.2269098 2.59645,3.3330822 5.54013,7.1107352 11.29493,7.1107352 5.75511,0 8.69728,-3.777653 11.29398,-7.1107352 2.49561,-3.2037402 4.85348,-6.2269098 9.49112,-6.2269098 4.63758,0 6.99434,3.0231696 9.49011,6.2269098 2.59645,3.3330822 5.53917,7.1107352 11.29398,7.1107352 5.75481,0 8.69838,-3.777653 11.29498,-7.1107352 2.49562,-3.2037402 4.85267,-6.2269098 9.49011,-6.2269098 4.63745,0 6.9945,3.0231696 9.49012,6.2269098 2.5966,3.3330822 5.53997,7.1107352 11.29493,7.1107352 5.75481,0 8.69839,-3.777653 11.29498,-7.1107352 2.49562,-3.2037402 4.85248,-6.2269098 9.49011,-6.2269098 0.63152,0 1.14318,-0.5125015 1.14318,-1.1441775 C 999.96903,0.51250152 999.45737,0 998.82585,0 c -5.75495,0 -8.69838,3.7783377 -11.29498,7.1097565 -2.49561,3.2037405 -4.85267,6.2298465 -9.49011,6.2298465 -4.63744,0 -6.9945,-3.026106 -9.49012,-6.2298465 C 965.95425,3.7783377 963.01052,0 957.25571,0 c -5.755,0 -8.69738,3.7783377 -11.29397,7.1097565 -2.49562,3.2037405 -4.85368,6.2298465 -9.49112,6.2298465 -4.63764,0 -6.9945,-3.026106 -9.49011,-6.2298465 C 924.38391,3.7783377 921.44148,0 915.68653,0 c -5.755,0 -8.69838,3.7783377 -11.29498,7.1097565 -2.49562,3.2037405 -4.85252,6.2298465 -9.49012,6.2298465 -4.63744,0 -6.99509,-3.026106 -9.49106,-6.2298465 C 882.81397,3.7783377 879.8717,0 874.11639,0 c -5.75516,0 -8.69839,3.7783377 -11.29498,7.1097565 -2.49542,3.2037405 -4.85252,6.2298465 -9.49011,6.2298465 -4.6368,0 -6.99365,-3.026106 -9.49012,-6.2298465 C 841.24558,3.7783377 838.30185,0 832.54625,0 c -5.75566,0 -8.69773,3.7783377 -11.29498,7.1097565 -2.49477,3.2037405 -4.85338,6.2298465 -9.49011,6.2298465 -4.63679,0 -6.99365,-3.026106 -9.49012,-6.2298465 C 799.67545,3.7783377 796.73172,0 790.97606,0 c -5.75561,0 -8.69703,3.7783377 -11.29593,7.1097565 -2.49481,3.2037405 -4.85137,6.2298465 -9.48816,6.2298465 -4.63844,0 -6.9956,-3.026106 -9.49207,-6.2298465 C 758.10431,3.7783377 755.15887,0 749.40492,0 c -5.75395,0 -8.69838,3.7783377 -11.29397,7.1097565 -2.49647,3.2037235 -4.85363,6.2298465 -9.49208,6.2298465 -4.63678,0 -6.99429,-3.026123 -9.48911,-6.2298465 C 716.53086,3.7783377 713.58949,0 707.83383,0 c -5.75561,0 -8.69939,3.7783377 -11.29497,7.1097565 -2.49648,3.2037235 -4.85333,6.2298465 -9.49012,6.2298465 -4.63675,0 -6.99535,-3.026123 -9.49012,-6.2298465 C 674.96132,3.7783377 672.01929,0 666.26364,0 c -5.75556,0 -8.69839,3.7783377 -11.29398,7.1097565 -2.49647,3.2037235 -4.85333,6.2298465 -9.49011,6.2298465 -4.63759,0 -6.9947,-3.026123 -9.49012,-6.2298465 C 633.39284,3.7783377 630.44866,0 624.6935,0 c -5.7553,0 -8.69758,3.7783377 -11.29398,7.1097565 -2.49596,3.2037235 -4.85267,6.2298465 -9.49012,6.2298465 -4.63758,0 -6.99544,-3.026123 -9.49106,-6.2298465 C 591.82175,3.7783377 588.87932,0 583.12432,0 c -5.75491,0 -8.69834,3.7783377 -11.29493,7.1097565 -2.49562,3.2037235 -4.85248,6.2298465 -9.49012,6.2298465 -4.63744,0 -6.9945,-3.026123 -9.49011,-6.2298465 C 550.25256,3.7783377 547.30913,0 541.55418,0 c -5.75481,0 -8.69758,3.7783377 -11.29398,7.1097565 -2.49562,3.2037235 -4.85362,6.2298465 -9.49107,6.2298465 -4.63744,0 -6.99449,-3.026123 -9.49012,-6.2298465 C 508.68242,3.7783377 505.74,0 499.98501,0 c -5.75495,0 -8.69837,3.7783377 -11.29496,7.1097565 -2.49562,3.2037235 -4.85267,6.2298465 -9.49011,6.2298465 -4.63744,0 -6.9945,-3.026123 -9.49012,-6.2298465 C 467.1134,3.7783377 464.16964,0 458.41486,0 452.6599,0 449.7165,3.7783377 447.1199,7.1097565 c -2.49561,3.2037235 -4.85269,6.2298465 -9.49012,6.2298465 -4.6376,0 -6.99449,-3.026123 -9.49011,-6.2298465 C 425.54308,3.7783377 422.59967,0 416.84471,0 c -5.75497,0 -8.6974,3.7783377 -11.29398,7.1097565 -2.49561,3.2037235 -4.85348,6.2298465 -9.49109,6.2298465 -4.63744,0 -6.99416,-3.026123 -9.49011,-6.2298465 C 383.9731,3.7783377 381.03085,0 375.27554,0 c -5.75515,0 -8.69836,3.7783377 -11.29495,7.1097565 -2.49547,3.2037235 -4.85251,6.2298465 -9.49012,6.2298465 -4.63677,0 -6.99465,-3.026123 -9.49111,-6.2298465 C 342.40378,3.7783377 339.46103,0 333.70538,0 c -5.75562,0 -8.69769,3.7783377 -11.29496,7.1097565 -2.49476,3.2037235 -4.85336,6.2298465 -9.49011,6.2298465 -4.63677,0 -6.99365,-3.026123 -9.49011,-6.2298465 C 300.83461,3.7783377 297.89086,0 292.13524,0 c -5.75564,0 -8.69701,3.7783377 -11.29594,7.1097565 -2.4948,3.2037235 -4.85237,6.2298465 -9.48913,6.2298465 -4.63844,0 -6.99464,-3.026123 -9.4911,-6.2298465 C 259.26348,3.7783377 256.31807,0 250.56411,0 c -5.75395,0 -8.69938,3.7783377 -11.29496,7.1097565 -2.49646,3.2037405 -4.85265,6.2298465 -9.4911,6.2298465 -4.63677,0 -6.99435,-3.026106 -9.48913,-6.2298465 C 217.68997,3.7783377 214.74861,0 208.99298,0 c -5.75565,0 -8.69938,3.7783377 -11.29496,7.1097565 -2.49647,3.2037405 -4.85335,6.2298465 -9.49012,6.2298465 -4.63678,0 -6.99533,-3.026106 -9.49012,-6.2298465 C 176.12053,3.7783377 173.17847,0 167.42282,0 c -5.75564,0 -8.6984,3.7783377 -11.29398,7.1097565 -2.49646,3.2037405 -4.85432,6.2298465 -9.49109,6.2298465 -4.63761,0 -6.99369,-3.026106 -9.48914,-6.2298465 C 134.55202,3.7783377 131.60781,0 125.85267,0 c -5.7553,0 -8.69755,3.7783377 -11.29398,7.1097565 -2.49595,3.2037405 -4.85268,6.2298465 -9.49011,6.2298465 -4.63761,0 -6.995479,-3.026106 -9.491097,-6.2298465 C 92.980887,3.7783377 90.038468,0 84.283501,0 78.528535,0 75.585134,3.7783377 72.988542,7.1097565 c -2.495623,3.2037405 -4.852509,6.2298465 -9.490115,6.2298465 -4.63744,0 -6.994497,-3.026106 -9.490116,-6.2298465 C 51.411721,3.7783377 48.468317,0 42.71335,0 36.958553,0 34.015788,3.7783377 31.419369,7.1097565 c -2.495623,3.2037405 -4.853656,6.2298465 -9.491095,6.2298465 -4.637438,0 -6.994493,-3.026106 -9.490115,-6.2298465 C 9.8415708,3.7783377 6.8981651,0 1.1431987,0 Z" />
</svg>
