<?xml version="1.0" encoding="UTF-8" standalone="no"?>
<svg
   version="1.1"
   x="0px"
   y="0px"
   viewBox="0 0 624 12.40039"
   xml:space="preserve"
   id="svg4"
   width="624"
   height="12.400391"
   xmlns="http://www.w3.org/2000/svg"
   xmlns:svg="http://www.w3.org/2000/svg"><defs
     id="defs4" /><path
     id="path1"
     d="m 0,0 v 2 c 2.6938446,0 4.0629901,2.1923913 5.6484375,4.7304688 1.6601463,2.6577069 3.5429799,5.6699222 7.3457035,5.6699222 3.803702,0 5.685065,-3.0136802 7.345703,-5.6718754 C 21.92578,4.1909264 23.29542,2 25.990234,2 c 2.696286,0 4.065918,2.1923913 5.652344,4.7304688 1.661616,2.6577069 3.543474,5.6699222 7.347656,5.6699222 3.803704,0 5.687019,-3.0122163 7.347657,-5.6699222 C 47.923827,4.1923903 49.293467,2 51.988281,2 c 2.697256,0 4.066901,2.1923913 5.654297,4.7304688 1.661616,2.6577069 3.545909,5.6699222 7.351563,5.6699222 3.805652,0 5.689946,-3.0122163 7.351562,-5.6699222 C 73.933101,4.1923903 75.302746,2 78,2 c 2.693834,0 4.06299,2.1923913 5.648438,4.7304688 1.660146,2.6577069 3.541026,5.6699222 7.34375,5.6699222 3.803688,0 5.687027,-3.0136802 7.347656,-5.6718754 C 99.925782,4.1909264 101.29543,2 103.99023,2 c 2.69628,0 4.06592,2.1923913 5.65235,4.7304688 1.66162,2.6577069 3.54348,5.6699222 7.34765,5.6699222 3.80371,0 5.68702,-3.0122163 7.34766,-5.6699222 C 125.92383,4.1923903 127.29346,2 129.98828,2 c 2.69727,0 4.0669,2.1923913 5.6543,4.7304688 1.66163,2.6577069 3.5459,5.6699222 7.35156,5.6699222 3.80566,0 5.68993,-3.0122163 7.35156,-5.6699222 C 151.9331,4.1923903 153.30273,2 156,2 c 2.69385,0 4.06299,2.1923908 5.64844,4.7304688 1.66015,2.6577066 3.54297,5.6699222 7.3457,5.6699222 3.80371,0 5.68508,-3.0136806 7.3457,-5.6718754 C 177.92578,4.1909258 179.29543,2 181.99023,2 c 2.69629,0 4.06592,2.1923908 5.65235,4.7304688 1.66162,2.6577066 3.54348,5.6699222 7.34765,5.6699222 3.80371,0 5.68702,-3.0122166 7.34766,-5.6699222 C 203.92383,4.1923898 205.29346,2 207.98828,2 c 2.69726,0 4.0669,2.1923908 5.6543,4.7304688 1.66162,2.6577066 3.5459,5.6699222 7.35156,5.6699222 3.80566,0 5.68994,-3.0122166 7.35156,-5.6699222 C 229.9331,4.1923898 231.30274,2 234,2 c 2.69384,0 4.06299,2.1923908 5.64844,4.7304688 1.66015,2.6577066 3.54102,5.6699222 7.34375,5.6699222 3.80369,0 5.68703,-3.0136806 7.34765,-5.6718754 C 255.92578,4.1909258 257.29543,2 259.99023,2 c 2.69628,0 4.06592,2.1923908 5.65235,4.7304688 1.66162,2.6577066 3.54348,5.6699222 7.34765,5.6699222 3.80371,0 5.68702,-3.0122166 7.34766,-5.6699222 C 281.92383,4.1923898 283.29346,2 285.98828,2 c 2.69727,0 4.0669,2.1923908 5.6543,4.7304688 1.66163,2.6577066 3.5459,5.6699222 7.35156,5.6699222 3.80566,0 5.68993,-3.0122166 7.35156,-5.6699222 C 307.9331,4.1923898 309.30273,2 312,2 c 2.69385,0 4.06299,2.1923913 5.64844,4.7304688 1.66015,2.6577065 3.54297,5.6699222 7.3457,5.6699222 3.80371,0 5.68508,-3.0136806 7.3457,-5.6718754 C 333.92578,4.1909264 335.29543,2 337.99023,2 c 2.69629,0 4.06592,2.1923913 5.65235,4.7304688 1.66162,2.6577065 3.54348,5.6699222 7.34765,5.6699222 3.80371,0 5.68702,-3.0122167 7.34766,-5.6699222 C 359.92383,4.1923903 361.29346,2 363.98828,2 c 2.69726,0 4.0669,2.1923913 5.6543,4.7304688 1.66162,2.6577065 3.5459,5.6699222 7.35156,5.6699222 3.80566,0 5.68994,-3.0122167 7.35156,-5.6699222 C 385.9331,4.1923903 387.30274,2 390,2 c 2.69384,0 4.06299,2.1923913 5.64844,4.7304688 1.66015,2.6577065 3.54102,5.6699222 7.34375,5.6699222 3.80368,0 5.68703,-3.0136806 7.34765,-5.6718754 C 411.92578,4.1909264 413.29543,2 415.99023,2 c 2.69628,0 4.06592,2.1923913 5.65235,4.7304688 1.66162,2.6577065 3.54348,5.6699222 7.34765,5.6699222 3.80371,0 5.68702,-3.0122167 7.34766,-5.6699222 C 437.92383,4.1923903 439.29346,2 441.98828,2 c 2.69727,0 4.0669,2.1923913 5.6543,4.7304688 1.66163,2.6577065 3.5459,5.6699222 7.35156,5.6699222 3.80566,0 5.68993,-3.0122167 7.35156,-5.6699222 C 463.9331,4.1923903 465.30273,2 468,2 c 2.69385,0 4.06299,2.1923908 5.64844,4.7304688 1.66015,2.6577065 3.54297,5.6699222 7.3457,5.6699222 3.80371,0 5.68508,-3.0136806 7.3457,-5.6718754 C 489.92578,4.1909258 491.29543,2 493.99023,2 c 2.69629,0 4.06592,2.1923908 5.65235,4.7304688 1.66162,2.6577065 3.54348,5.6699222 7.34765,5.6699222 3.80371,0 5.68702,-3.0122167 7.34766,-5.6699222 C 515.92383,4.1923898 517.29346,2 519.98828,2 c 2.69726,0 4.0669,2.1923908 5.6543,4.7304688 1.66162,2.6577065 3.5459,5.6699222 7.35156,5.6699222 3.80566,0 5.68994,-3.0122167 7.35156,-5.6699222 C 541.9331,4.1923898 543.30274,2 546,2 c 2.69384,0 4.06299,2.1923908 5.64844,4.7304688 1.66015,2.6577065 3.54102,5.6699222 7.34375,5.6699222 3.80369,0 5.68703,-3.0136806 7.34765,-5.6718754 C 567.92578,4.1909258 569.29543,2 571.99023,2 c 2.69628,0 4.06592,2.1923908 5.65235,4.7304688 1.66162,2.6577065 3.54348,5.6699222 7.34765,5.6699222 3.80371,0 5.68702,-3.0122167 7.34766,-5.6699222 C 593.92383,4.1923898 595.29346,2 597.98828,2 c 2.69727,0 4.0669,2.1923908 5.6543,4.7304688 1.66163,2.6577065 3.5459,5.6699222 7.35156,5.6699222 3.80566,0 5.68993,-3.0122167 7.35156,-5.6699222 C 619.9331,4.1923898 621.30273,2 624,2 V 0 c -3.80566,0 -5.68994,3.0122141 -7.35156,5.6699219 -1.5874,2.5380778 -2.95703,4.7304691 -5.6543,4.7304691 -2.69727,0 -4.0669,-2.1923913 -5.6543,-4.7304691 C 603.67825,3.0122141 601.79394,0 597.98828,0 c -3.80368,0 -5.68701,3.0122141 -7.34766,5.6699219 -1.58591,2.5380778 -2.95557,4.7304691 -5.65039,4.7304691 -2.69577,0 -4.06397,-2.1923913 -5.65039,-4.7304691 C 577.67825,3.0122141 575.79491,0 571.99023,0 c -3.8032,0 -5.68701,3.0122141 -7.34765,5.6699219 -1.58594,2.5380778 -2.95362,4.7304691 -5.64844,4.7304691 -2.69385,0 -4.06299,-2.1923913 -5.64844,-4.7304691 C 551.68555,3.0122141 549.80273,0 546,0 c -3.80566,0 -5.68799,3.0122141 -7.34961,5.6699219 -1.5874,2.5380778 -2.95899,4.7304691 -5.65625,4.7304691 -2.69726,0 -4.0669,-2.1923913 -5.6543,-4.7304691 C 525.67824,3.0122141 523.79394,0 519.98828,0 c -3.80369,0 -5.68701,3.0122141 -7.34766,5.6699219 -1.58591,2.5380778 -2.95556,4.7304691 -5.65039,4.7304691 -2.69577,0 -4.06592,-2.1923913 -5.65234,-4.7304691 C 499.67627,3.0122141 497.79492,0 493.99023,0 c -3.8032,0 -5.68701,3.0122141 -7.34765,5.6699219 -1.58594,2.5380778 -2.95362,4.7304691 -5.64844,4.7304691 -2.69385,0 -4.06299,-2.1923913 -5.64844,-4.7304691 C 473.68555,3.0122141 471.80273,0 468,0 c -3.80566,0 -5.68994,3.0122147 -7.35156,5.6699219 -1.5874,2.5380782 -2.95703,4.7304691 -5.6543,4.7304691 -2.69727,0 -4.0669,-2.1923909 -5.6543,-4.7304691 C 447.67825,3.0122147 445.79394,0 441.98828,0 c -3.80368,0 -5.68701,3.0122147 -7.34766,5.6699219 -1.58591,2.5380782 -2.95557,4.7304691 -5.65039,4.7304691 -2.69577,0 -4.06397,-2.1923909 -5.65039,-4.7304691 C 421.67825,3.0122147 419.79491,0 415.99023,0 c -3.8032,0 -5.68701,3.0122147 -7.34765,5.6699219 -1.58594,2.5380782 -2.95362,4.7304691 -5.64844,4.7304691 -2.69385,0 -4.06299,-2.1923909 -5.64844,-4.7304691 C 395.68555,3.0122147 393.80273,0 390,0 c -3.80566,0 -5.68799,3.0122147 -7.34961,5.6699219 -1.5874,2.5380782 -2.95899,4.7304691 -5.65625,4.7304691 -2.69726,0 -4.0669,-2.1923909 -5.6543,-4.7304691 C 369.67823,3.0122147 367.79394,0 363.98828,0 c -3.8037,0 -5.68702,3.0122147 -7.34766,5.6699219 -1.58592,2.5380782 -2.95556,4.7304691 -5.65039,4.7304691 -2.69577,0 -4.06592,-2.1923909 -5.65234,-4.7304691 C 343.67627,3.0122147 341.79492,0 337.99023,0 c -3.8032,0 -5.68701,3.0122147 -7.34765,5.6699219 -1.58594,2.5380782 -2.95362,4.7304691 -5.64844,4.7304691 -2.69385,0 -4.06299,-2.1923909 -5.64844,-4.7304691 C 317.68556,3.0122147 315.80273,0 312,0 c -3.80566,0 -5.68994,3.0122141 -7.35156,5.6699219 -1.5874,2.5380778 -2.95703,4.7304691 -5.6543,4.7304691 -2.69727,0 -4.0669,-2.1923913 -5.6543,-4.7304691 C 291.67825,3.0122141 289.79394,0 285.98828,0 c -3.80368,0 -5.68701,3.0122141 -7.34766,5.6699219 -1.58591,2.5380778 -2.95557,4.7304691 -5.65039,4.7304691 -2.69577,0 -4.06397,-2.1923913 -5.65039,-4.7304691 C 265.67825,3.0122141 263.79491,0 259.99023,0 c -3.8032,0 -5.68701,3.0122141 -7.34765,5.6699219 -1.58594,2.5380778 -2.95362,4.7304691 -5.64844,4.7304691 -2.69385,0 -4.06299,-2.1923913 -5.64844,-4.7304691 C 239.68555,3.0122141 237.80273,0 234,0 c -3.80566,0 -5.68799,3.0122141 -7.34961,5.6699219 -1.5874,2.5380778 -2.95899,4.7304691 -5.65625,4.7304691 -2.69726,0 -4.0669,-2.1923913 -5.6543,-4.7304691 C 213.67824,3.0122141 211.79394,0 207.98828,0 c -3.80369,0 -5.68701,3.0122141 -7.34766,5.6699219 -1.58591,2.5380778 -2.95556,4.7304691 -5.65039,4.7304691 -2.69577,0 -4.06592,-2.1923913 -5.65234,-4.7304691 C 187.67627,3.0122141 185.79492,0 181.99023,0 c -3.8032,0 -5.68701,3.0122141 -7.34765,5.6699219 -1.58594,2.5380778 -2.95362,4.7304691 -5.64844,4.7304691 -2.69385,0 -4.06299,-2.1923913 -5.64844,-4.7304691 C 161.68555,3.0122141 159.80273,0 156,0 c -3.80566,0 -5.68994,3.0122147 -7.35156,5.6699219 -1.5874,2.5380782 -2.95703,4.7304691 -5.6543,4.7304691 -2.69727,0 -4.0669,-2.1923909 -5.6543,-4.7304691 C 135.67825,3.0122147 133.79394,0 129.98828,0 c -3.80368,0 -5.68701,3.0122147 -7.34766,5.6699219 -1.58591,2.5380782 -2.95557,4.7304691 -5.65039,4.7304691 -2.69577,0 -4.06397,-2.1923909 -5.65039,-4.7304691 C 109.67825,3.0122147 107.79491,0 103.99023,0 c -3.8032,0 -5.687014,3.0122147 -7.347652,5.6699219 -1.585938,2.5380782 -2.953623,4.7304691 -5.648437,4.7304691 -2.693846,0 -4.06299,-2.1923909 -5.648438,-4.7304691 C 83.685557,3.0122147 81.802722,0 78,0 c -3.805652,0 -5.687993,3.0122147 -7.349609,5.6699219 -1.587398,2.5380782 -2.958996,4.7304691 -5.65625,4.7304691 -2.697256,0 -4.066901,-2.1923909 -5.654297,-4.7304691 C 57.678226,3.0122147 55.793933,0 51.988281,0 c -3.803702,0 -5.68701,3.0122147 -7.347656,5.6699219 -1.585926,2.5380782 -2.955565,4.7304691 -5.650391,4.7304691 -2.695784,0 -4.065927,-2.1923909 -5.652343,-4.7304691 C 31.676273,3.0122147 29.794918,0 25.990234,0 c -3.803212,0 -5.68702,3.0122147 -7.347656,5.6699219 -1.585936,2.5380782 -2.953623,4.7304691 -5.648437,4.7304691 -2.693846,0 -4.0629905,-2.1923909 -5.6484379,-4.7304691 C 5.6855568,3.0122147 3.8027224,0 0,0 Z" /></svg>
