<?xml version="1.0" encoding="UTF-8" standalone="no"?>
<svg
   version="1.1"
   x="0px"
   y="0px"
   viewBox="0 0 800.9375 197.08788"
   xml:space="preserve"
   id="svg4"
   width="800.9375"
   height="197.08789"
   xmlns="http://www.w3.org/2000/svg"
   xmlns:svg="http://www.w3.org/2000/svg"><defs
     id="defs4" /><path
     id="path1"
     style="stroke-width:0.64514"
     d="m 6.7109375,0 c 0,1.7379 -1.4153226,2.6217 -3.0527344,3.64453 C 1.943614,4.71556 0,5.92953 0,8.38281 c 0,2.45392 1.9452512,3.6689 3.6601562,4.74023 1.6370957,1.02315 3.0507813,1.906 3.0507813,3.64454 0,1.73946 -1.4153226,2.62303 -3.0527344,3.64648 C 1.943614,21.48604 0,22.70007 0,25.15429 c 0,2.45392 1.943614,3.6689 3.6582031,4.74024 1.6374118,1.02315 3.0527344,1.90795 3.0527344,3.64648 0,1.74011 -1.4153226,2.6224 -3.0527344,3.64649 C 1.943614,38.25947 0,39.47647 0,41.93164 c 0,2.45518 1.943614,3.67022 3.6582031,4.74219 1.6374118,1.02408 3.0527344,1.90832 3.0527344,3.64843 0,1.7379 -1.4153226,2.61974 -3.0527344,3.64258 C 1.943614,55.03586 0,56.24983 0,58.70312 c 0,2.45391 1.9452512,3.6689 3.6601562,4.74024 1.6370957,1.02315 3.0507813,1.90601 3.0507813,3.64453 0,1.73948 -1.4153226,2.62498 -3.0527344,3.64844 C 1.943614,71.8083 0,73.02234 0,75.47656 c 0,2.45391 1.943614,3.6689 3.6582031,4.74023 1.6374118,1.02316 3.0527344,1.90602 3.0527344,3.64454 0,1.74011 -1.4153226,2.62434 -3.0527344,3.64843 C 1.943614,88.58174 0,89.79677 0,92.25195 c 0,2.45518 1.943614,3.67021 3.6582031,4.74219 1.6374118,1.0241 3.0527344,1.90833 3.0527344,3.64844 0,1.7379 -1.4153226,2.62169 -3.0527344,3.64453 C 1.943614,105.35812 0,106.5721 0,109.02539 c 0,2.45392 1.9452512,3.66696 3.6601562,4.73828 1.6370957,1.02316 3.0507813,1.90796 3.0507813,3.64648 0,1.73948 -1.4153226,2.62302 -3.0527344,3.64649 C 1.943614,122.1286 0,123.34264 0,125.79687 c 0,2.4539 1.943614,3.6689 3.6582031,4.74024 1.6374118,1.02315 3.0527344,1.90599 3.0527344,3.64453 0,1.74011 -1.4153226,2.62436 -3.0527344,3.64844 C 1.943614,138.90205 0,140.1171 0,142.57226 c 0,2.45519 1.943614,3.67216 3.6582031,4.74414 1.6374118,1.02409 3.0527344,1.90638 3.0527344,3.64649 0,1.7379 -1.4153226,2.6217 -3.0527344,3.64453 C 1.943614,155.67845 0,156.89243 0,159.3457 c 0,2.45393 1.9452512,3.6689 3.6601562,4.74024 1.6370957,1.02314 3.0507813,1.906 3.0507813,3.64453 0,1.73945 -1.4153226,2.62301 -3.0527344,3.64648 C 1.943614,172.44892 0,173.66295 0,176.11718 c 0,2.45391 1.943614,3.66891 3.6582031,4.74024 1.8932412,1.18301 3.0351563,2.0114 3.0351563,3.73047 -0.049856,1.67852 -1.427361,2.55694 -3.0351563,3.5625 C 1.943614,189.22238 0,190.43934 0,192.89453 c 0,1.22514 0.21513403,2.14482 1.0820312,3.01172 0.8841588,0.88416 1.8544506,1.18164 3.1015626,1.18164 2.7317045,0 3.606625,-1.87331 4.7402343,-3.66211 C 9.9316786,191.81317 10.812404,190.432 12.5,190.39062 v -0.002 c 1.724768,0 2.577383,1.21417 3.716797,3.03711 1.071996,1.71459 2.286042,3.6582 4.740234,3.6582 2.453943,0 3.668888,-1.94361 4.740235,-3.6582 1.023149,-1.63741 1.905989,-3.05078 3.644531,-3.05078 1.740096,0 2.624339,1.41337 3.648437,3.05078 1.071992,1.71459 2.286997,3.6582 4.742188,3.6582 2.455145,0 3.67024,-1.94361 4.742187,-3.6582 1.024098,-1.63741 1.908346,-3.05078 3.648438,-3.05078 1.737896,0 2.621688,1.41337 3.644531,3.05078 1.071048,1.71459 2.284984,3.6582 4.738281,3.6582 2.453888,0 3.668946,-1.94329 4.740235,-3.6582 1.023149,-1.63709 1.906033,-3.05078 3.644531,-3.05078 1.739488,0 2.623035,1.41337 3.646484,3.05078 1.071999,1.71459 2.286037,3.6582 4.740235,3.6582 2.453887,0 3.668885,-1.94361 4.740234,-3.6582 1.023139,-1.63741 1.906033,-3.05078 3.644531,-3.05078 1.740149,0 2.624349,1.41337 3.648438,3.05078 1.071999,1.71459 2.286989,3.6582 4.742187,3.6582 2.455138,0 3.672142,-1.94361 4.744141,-3.6582 1.024089,-1.63741 1.906386,-3.05078 3.646484,-3.05078 1.737899,0 2.621683,1.41337 3.644531,3.05078 1.071,1.71459 2.28694,3.6582 4.74023,3.6582 2.45394,0 3.66694,-1.94329 4.73829,-3.6582 1.02315,-1.63709 1.90598,-3.05078 3.64453,-3.05078 1.73949,0 2.62299,1.41337 3.64648,3.05078 1.07195,1.71459 2.28607,3.6582 4.74024,3.6582 2.45394,0 3.66888,-1.94361 4.74023,-3.6582 1.02315,-1.63741 1.90794,-3.05078 3.64649,-3.05078 1.74008,0 2.62238,1.41337 3.64648,3.05078 1.072,1.71459 2.28699,3.6582 4.74219,3.6582 2.45513,0 3.67214,-1.94361 4.74414,-3.6582 1.02409,-1.63741 1.90834,-3.05078 3.64843,-3.05078 1.73789,0 2.62169,1.41337 3.64454,3.05078 1.071,1.71459 2.28302,3.6582 4.73632,3.6582 2.45389,0 3.66894,-1.94329 4.74024,-3.6582 1.0232,-1.63709 1.90599,-3.05078 3.64453,-3.05078 1.73945,0 2.62304,1.41337 3.64648,3.05078 1.072,1.71459 2.28605,3.6582 4.74024,3.6582 2.45395,0 3.67084,-1.94361 4.74219,-3.6582 1.02315,-1.63741 1.90598,-3.05078 3.64453,-3.05078 1.74009,0 2.62434,1.41337 3.64843,3.05078 1.07199,1.71459 2.28705,3.6582 4.74219,3.6582 2.4552,0 3.67019,-1.94361 4.74219,-3.6582 1.0241,-1.63741 1.90829,-3.05078 3.64844,-3.05078 1.73789,0 2.61974,1.41337 3.64258,3.05078 1.07104,1.71459 2.28693,3.6582 4.74023,3.6582 2.45395,0 3.66894,-1.94329 4.74023,-3.6582 1.02314,-1.63709 1.90604,-3.05078 3.64454,-3.05078 1.73949,0 2.62303,1.41337 3.64648,3.05078 1.072,1.71459 2.28598,3.6582 4.74023,3.6582 2.45389,0 3.66894,-1.94361 4.74024,-3.6582 1.0232,-1.63741 1.90599,-3.05078 3.64453,-3.05078 1.7401,0 2.62434,1.41337 3.64844,3.05078 1.07194,1.71459 2.28699,3.6582 4.74218,3.6582 2.45515,0 3.67215,-1.94361 4.74415,-3.6582 1.02409,-1.63741 1.90638,-3.05078 3.64648,-3.05078 1.7379,0 2.62168,1.41337 3.64453,3.05078 1.071,1.71459 2.28498,3.6582 4.73828,3.6582 2.45389,0 3.66698,-1.94329 4.73828,-3.6582 1.0232,-1.63709 1.90794,-3.05078 3.64649,-3.05078 1.73944,0 2.62304,1.41337 3.64648,3.05078 1.072,1.71459 2.28603,3.6582 4.74024,3.6582 2.45392,0 3.66889,-1.94361 4.74023,-3.6582 1.02315,-1.63741 1.90796,-3.05078 3.64649,-3.05078 1.74009,0 2.62239,1.41337 3.64648,3.05078 1.07199,1.71459 2.28701,3.6582 4.74219,3.6582 2.45519,0 3.67215,-1.94361 4.74414,-3.6582 1.02409,-1.63741 1.90832,-3.05078 3.64844,-3.05078 1.73789,0 2.61974,1.41337 3.64257,3.05078 1.07103,1.71459 2.285,3.6582 4.73829,3.6582 2.45391,0 3.66891,-1.94329 4.74023,-3.6582 1.02316,-1.63709 1.90602,-3.05078 3.64453,-3.05078 1.73949,0 2.62302,1.41337 3.64648,3.05078 1.07197,1.71459 2.28798,3.6582 4.74219,3.6582 2.45392,0 3.66693,-1.94361 4.73828,-3.6582 1.02315,-1.63741 1.90795,-3.05078 3.64649,-3.05078 1.7401,0 2.62434,1.41337 3.64844,3.05078 1.07197,1.71459 2.28701,3.6582 4.74218,3.6582 2.45518,0 3.67023,-1.94361 4.74219,-3.6582 1.0241,-1.63741 1.90833,-3.05078 3.64844,-3.05078 1.7379,0 2.61975,1.41337 3.64258,3.05078 1.07103,1.71459 2.28499,3.6582 4.73828,3.6582 2.4539,0 3.67087,-1.94329 4.74219,-3.6582 1.02314,-1.63709 1.90602,-3.05078 3.64453,-3.05078 1.73947,0 2.62301,1.41337 3.64648,3.05078 1.07198,1.71459 2.28603,3.6582 4.74023,3.6582 2.45394,0 3.66889,-1.94361 4.74024,-3.6582 1.02315,-1.63741 1.906,-3.05078 3.64453,-3.05078 1.74012,0 2.62435,1.41337 3.64844,3.05078 1.07198,1.71459 2.28701,3.6582 4.74219,3.6582 2.45517,0 3.67216,-1.94361 4.74414,-3.6582 1.0241,-1.63741 1.90637,-3.05078 3.64648,-3.05078 1.73791,0 2.6217,1.41337 3.64453,3.05078 1.07102,1.71459 2.28695,3.6582 4.74024,3.6582 2.4539,0 3.66695,-1.94329 4.73828,-3.6582 1.02314,-1.63709 1.906,-3.05078 3.64453,-3.05078 1.73947,0 2.62301,1.41337 3.64648,3.05078 1.07197,1.71459 2.28601,3.6582 4.74024,3.6582 2.45391,0 3.67084,-1.94361 4.74218,-3.6582 1.02315,-1.63741 1.90601,-3.05078 3.64454,-3.05078 1.7401,0 2.6224,1.41337 3.64648,3.05078 1.07198,1.71459 2.28702,3.6582 4.74219,3.6582 2.45518,0 3.67217,-1.94361 4.74414,-3.6582 1.0241,-1.63741 1.90834,-3.05078 3.64844,-3.05078 1.73789,0 2.61974,1.41337 3.64257,3.05078 1.07102,1.71459 2.28499,3.6582 4.73829,3.6582 2.45389,0 3.6689,-1.94329 4.74023,-3.6582 1.02315,-1.63709 1.90799,-3.05078 3.64648,-3.05078 1.73949,0 2.6211,1.41337 3.64454,3.05078 1.07199,1.71459 2.28599,3.6582 4.74023,3.6582 2.45388,0 3.66889,-1.94361 4.74023,-3.6582 1.02315,-1.63741 1.90799,-3.05078 3.64649,-3.05078 1.74014,0 2.62434,1.41337 3.64844,3.05078 1.07195,1.71459 2.28704,3.6582 4.74218,3.6582 2.45519,0 3.6722,-1.94361 4.74414,-3.6582 1.02409,-1.63741 1.90634,-3.05078 3.64649,-3.05078 1.73788,0 2.61973,1.41337 3.64258,3.05078 1.071,1.71459 2.28698,3.6582 4.74023,3.6582 2.4539,0 3.66894,-1.94329 4.74024,-3.6582 1.02314,-1.63709 1.90603,-3.05078 3.64453,-3.05078 1.7395,0 2.62303,1.41337 3.64648,3.05078 1.072,1.71459 2.28599,3.6582 4.74024,3.6582 2.45389,0 3.66888,-1.94361 4.74023,-3.6582 1.02315,-1.63741 1.90598,-3.05078 3.64453,-3.05078 1.7401,0 2.62434,1.41337 3.64844,3.05078 1.07195,1.71459 2.28904,3.6582 4.74414,3.6582 2.4552,0 3.66828,-1.94361 4.74023,-3.6582 1.0241,-1.63741 1.90829,-3.05078 3.64844,-3.05078 1.7379,0 2.62173,1.41337 3.64453,3.05078 1.07105,1.71459 2.28499,3.6582 4.73828,3.6582 2.4539,0 3.66889,-1.94329 4.74024,-3.6582 1.02315,-1.63709 1.90603,-3.05078 3.64453,-3.05078 1.7395,0 2.62298,1.41337 3.64648,3.05078 1.07195,1.71459 2.28599,3.6582 4.74024,3.6582 2.4539,0 3.67084,-1.94361 4.74219,-3.6582 1.02314,-1.63741 1.90403,-3.05078 3.64257,-3.05078 1.7401,0 2.62434,1.41337 3.64844,3.05078 1.072,1.71459 2.28899,3.6582 4.74414,3.6582 2.4552,0 3.67019,-1.94361 4.74219,-3.6582 1.0241,-1.63741 1.90634,-3.05078 3.64648,-3.05078 1.7379,0 2.62174,1.41337 3.64454,3.05078 1.07104,1.71459 2.28693,3.6582 4.74023,3.6582 2.4539,0 3.66693,-1.94329 4.73828,-3.6582 1.02285,-1.63709 1.90794,-3.05078 3.64649,-3.05078 1.73949,0 2.62308,1.41337 3.64648,3.05078 1.072,1.71459 2.28408,3.6582 4.73828,3.6582 2.45395,0 3.66889,-1.94361 4.74024,-3.6582 1.02314,-1.63741 1.90793,-3.05078 3.64648,-3.05078 1.7401,0 2.62238,1.41337 3.64648,3.05078 1.072,1.71459 2.289,3.6582 4.74414,3.6582 2.45515,0 3.6722,-1.94361 4.74414,-3.6582 1.0241,-1.63741 1.90639,-3.05078 3.64649,-3.05078 1.7379,0 2.62173,1.41337 3.64453,3.05078 1.07105,1.71459 2.28503,3.6582 4.73828,3.6582 2.45395,0 3.66894,-1.94329 4.74024,-3.6582 1.0232,-1.63709 1.90603,-3.05078 3.64453,-3.05078 1.7395,0 2.62298,1.41337 3.64648,3.05078 1.07195,1.71459 2.28604,3.6582 4.74024,3.6582 2.45389,0 3.66893,-1.94361 4.74023,-3.6582 1.02315,-1.63741 1.90799,-3.05078 3.64648,-3.05078 1.74015,0 2.62244,1.41337 3.64649,3.05078 1.072,1.71459 2.28714,3.6582 4.74219,3.6582 2.45519,0 3.67024,-1.94361 4.74218,-3.6582 1.0241,-1.63741 1.9103,-3.05078 3.6504,-3.05078 1.73794,0 2.61972,1.41337 3.64257,3.05078 1.07105,1.71459 2.28499,3.6582 4.73828,3.6582 2.454,0 3.66894,-1.94329 4.74024,-3.6582 1.0232,-1.63709 1.90798,-3.05078 3.64648,-3.05078 1.7394,0 2.62104,1.41337 3.64453,3.05078 1.07195,1.71459 2.28799,3.6582 4.74219,3.6582 2.4539,0 3.66889,-1.94361 4.74024,-3.6582 1.0231,-1.63741 1.90598,-3.05078 3.64453,-3.05078 1.74005,0 2.62434,1.41337 3.64844,3.05078 1.07199,1.71459 2.28703,3.6582 4.74218,3.6582 2.45525,0 3.67019,-1.94361 4.74219,-3.6582 1.0241,-1.63741 1.90634,-3.05078 3.64648,-3.05078 1.7379,0 2.62369,1.41337 3.64649,3.05078 1.0711,1.71459 2.28308,3.6582 4.73633,3.6582 2.45394,0 3.66893,-1.94329 4.74023,-3.6582 1.0232,-1.63709 1.90799,-3.05078 3.64649,-3.05078 1.73949,0 2.62103,1.41337 3.64453,3.05078 1.07195,1.71459 2.28603,3.6582 4.74023,3.6582 2.4539,0 3.67084,-1.94361 4.74219,-3.6582 1.0231,-1.63741 1.90598,-3.05078 3.64453,-3.05078 1.74015,0 2.62434,1.41337 3.64844,3.05078 1.072,1.71459 2.28704,3.6582 4.74219,3.6582 2.45514,0 3.67214,-1.94361 4.74414,-3.6582 1.02409,-1.63741 1.90633,-3.05078 3.64648,-3.05078 v -1.29102 c -2.4552,0 -3.67019,1.94364 -4.74219,3.6582 -1.0241,1.63741 -1.90839,3.05079 -3.64843,3.05079 -1.74005,0 -2.62434,-1.41338 -3.64844,-3.05079 -1.0719,-1.71456 -2.28704,-3.6582 -4.74219,-3.6582 -2.45395,0 -3.66889,1.94364 -4.74023,3.6582 -1.02315,1.63741 -1.90794,3.05079 -3.64649,3.05079 -1.7391,0 -2.61908,-1.41338 -3.64258,-3.05079 -1.0719,-1.71456 -2.28764,-3.6582 -4.74218,-3.6582 -2.4536,0 -3.67084,1.94364 -4.74219,3.6582 -1.0232,1.63741 -1.90403,3.05079 -3.64258,3.05079 -1.7379,0 -2.62168,-1.41338 -3.64453,-3.05079 -1.071,-1.71456 -2.28694,-3.6582 -4.74024,-3.6582 -2.45519,0 -3.66828,1.94364 -4.74023,3.6582 -1.0241,1.63741 -1.90829,3.05079 -3.64844,3.05079 -1.74005,0 -2.62434,-1.41338 -3.64844,-3.05079 -1.07184,-1.71456 -2.28703,-3.6582 -4.74218,-3.6582 -2.45395,0 -3.66884,1.94364 -4.74024,3.6582 -1.02315,1.63741 -1.90593,3.05079 -3.64453,3.05079 -1.7391,0 -2.62499,-1.41338 -3.64844,-3.05079 -1.07194,-1.71456 -2.28383,-3.6582 -4.73828,-3.6582 -2.45359,0 -3.66888,1.94364 -4.74023,3.6582 -1.02315,1.63741 -1.90789,3.05079 -3.64649,3.05079 -1.73789,0 -2.61977,-1.41338 -3.64257,-3.05079 -1.071,-1.71456 -2.28499,-3.6582 -4.73828,-3.6582 -2.4552,0 -3.6721,1.94364 -4.74415,3.6582 -1.02409,1.63741 -1.90833,3.05079 -3.64843,3.05079 -1.74,0 -2.62239,-1.41338 -3.64649,-3.05079 -1.0719,-1.71456 -2.28704,-3.6582 -4.74219,-3.6582 -2.45389,0 -3.67078,1.94364 -4.74218,3.6582 -1.02315,1.63741 -1.90594,3.05079 -3.64453,3.05079 -1.7391,0 -2.62104,-1.41338 -3.64453,-3.05079 -1.0719,-1.71456 -2.28759,-3.6582 -4.74219,-3.6582 -2.4536,0 -3.66894,1.94364 -4.74024,3.6582 -1.0232,1.63741 -1.90593,3.05079 -3.64453,3.05079 -1.7379,0 -2.62173,-1.41338 -3.64453,-3.05079 -1.0711,-1.71456 -2.28498,-3.6582 -4.73828,-3.6582 -2.4552,0 -3.66829,1.94364 -4.74023,3.6582 -1.0241,1.63741 -1.91035,3.05079 -3.6504,3.05079 -1.74009,0 -2.62433,-1.41338 -3.64843,-3.05079 -1.072,-1.71456 -2.28699,-3.6582 -4.74219,-3.6582 -2.4539,0 -3.66889,1.94364 -4.74024,3.6582 -1.02299,1.63741 -1.90793,3.05079 -3.64648,3.05079 -1.7391,0 -2.62108,-1.41338 -3.64453,-3.05079 -1.07195,-1.71456 -2.28569,-3.6582 -4.74023,-3.6582 -2.4536,0 -3.67084,1.94364 -4.74219,3.6582 -1.02315,1.63741 -1.90408,3.05079 -3.64258,3.05079 -1.73795,0 -2.62168,-1.41338 -3.64453,-3.05079 -1.07105,-1.71456 -2.28699,-3.6582 -4.74024,-3.6582 -2.45519,0 -3.66833,1.94364 -4.74023,3.6582 -1.0241,1.63741 -1.90829,3.05079 -3.64844,3.05079 -1.7401,0 -2.62434,-1.41338 -3.64844,-3.05079 -1.07194,-1.71456 -2.28894,-3.6582 -4.74414,-3.6582 -2.45389,0 -3.66688,1.94364 -4.73828,3.6582 -1.0231,1.63741 -1.90798,3.05079 -3.64648,3.05079 -1.73915,0 -2.62108,-1.41338 -3.64453,-3.05079 -1.07195,-1.71456 -2.28764,-3.6582 -4.74219,-3.6582 -2.4536,0 -3.66899,1.94364 -4.74023,3.6582 -1.02315,1.63741 -1.90604,3.05079 -3.64454,3.05079 -1.73794,0 -2.61973,-1.41338 -3.64257,-3.05079 -1.07105,-1.71456 -2.28694,-3.6582 -4.74024,-3.6582 -2.4552,0 -3.67019,1.94364 -4.74219,3.6582 -1.0241,1.63741 -1.90633,3.05079 -3.64648,3.05079 -1.74005,0 -2.62434,-1.41338 -3.64844,-3.05079 -1.07195,-1.71456 -2.28894,-3.6582 -4.74414,-3.6582 -2.4539,0 -3.66888,1.94364 -4.74023,3.6582 -1.02315,1.63741 -1.90599,3.05079 -3.64453,3.05079 -1.73915,0 -2.62304,-1.41338 -3.64649,-3.05079 -1.072,-1.71456 -2.28569,-3.6582 -4.74023,-3.6582 -2.4536,0 -3.66889,1.94364 -4.74024,3.6582 -1.02315,1.63741 -1.90598,3.05079 -3.64453,3.05079 -1.73785,0 -2.61973,-1.41338 -3.64258,-3.05079 -1.07105,-1.71456 -2.28695,-3.6582 -4.74023,-3.6582 -2.4552,0 -3.67214,1.94364 -4.74414,3.6582 -1.02409,1.63741 -1.90635,3.05079 -3.64649,3.05079 -1.7401,0 -2.62438,-1.41338 -3.64843,-3.05079 -1.07195,-1.71456 -2.287,-3.6582 -4.74219,-3.6582 -2.4539,0 -3.66889,1.94364 -4.74024,3.6582 -1.02314,1.63741 -1.90792,3.05079 -3.64648,3.05079 -1.73913,0 -2.62108,-1.41338 -3.64453,-3.05079 -1.07195,-1.71456 -2.28571,-3.6582 -4.74024,-3.6582 -2.45357,0 -3.6689,1.94364 -4.74023,3.6582 -1.02316,1.63741 -1.90601,3.05079 -3.64453,3.05079 -1.7379,0 -2.6217,-1.41338 -3.64453,-3.05079 -1.07102,-1.71456 -2.28501,-3.6582 -4.73828,-3.6582 -2.45518,0 -3.67021,1.94364 -4.74219,3.6582 -1.0241,1.63741 -1.91027,3.05079 -3.65039,3.05079 -1.7401,0 -2.6224,-1.41338 -3.64649,-3.05079 -1.07197,-1.71456 -2.28702,-3.6582 -4.74218,-3.6582 -2.45391,0 -3.67084,1.94364 -4.74219,3.6582 -1.02313,1.63741 -1.906,3.05079 -3.64453,3.05079 -1.73915,0 -2.62303,-1.41338 -3.64649,-3.05079 -1.07197,-1.71456 -2.28568,-3.6582 -4.74023,-3.6582 -2.45359,0 -3.6689,1.94364 -4.74024,3.6582 -1.02314,1.63741 -1.90405,3.05079 -3.64257,3.05079 -1.73791,0 -2.62172,-1.41338 -3.64453,-3.05079 -1.07103,-1.71456 -2.28695,-3.6582 -4.74024,-3.6582 -2.45517,0 -3.67022,1.94364 -4.74219,3.6582 -1.0241,1.63741 -1.90832,3.05079 -3.64843,3.05079 -1.74011,0 -2.62434,-1.41338 -3.64844,-3.05079 -1.07195,-1.71456 -2.287,-3.6582 -4.74219,-3.6582 -2.45389,0 -3.66888,1.94364 -4.74023,3.6582 -1.02312,1.63741 -1.906,3.05079 -3.64454,3.05079 -1.73913,0 -2.62301,-1.41338 -3.64648,-3.05079 -1.07194,-1.71456 -2.28568,-3.6582 -4.74023,-3.6582 -2.45358,0 -3.6689,1.94364 -4.74024,3.6582 -1.02315,1.63741 -1.906,3.05079 -3.64453,3.05079 -1.73792,0 -2.61975,-1.41338 -3.64258,-3.05079 -1.07103,-1.71456 -2.28694,-3.6582 -4.74023,-3.6582 -2.45518,0 -3.67021,1.94364 -4.74219,3.6582 -1.02409,1.63741 -1.90834,3.05079 -3.64844,3.05079 -1.74011,0 -2.62435,-1.41338 -3.64843,-3.05079 -1.07195,-1.71456 -2.28701,-3.6582 -4.74219,-3.6582 -2.45391,0 -3.66889,1.94364 -4.74024,3.6582 -1.02314,1.63741 -1.90599,3.05079 -3.64453,3.05079 -1.73914,0 -2.62497,-1.41338 -3.64843,-3.05079 -1.07197,-1.71456 -2.28568,-3.6582 -4.74024,-3.6582 -2.45358,0 -3.66889,1.94364 -4.74023,3.6582 -1.02315,1.63741 -1.90601,3.05079 -3.64453,3.05079 -1.7379,0 -2.61973,-1.41338 -3.64258,-3.05079 -1.07101,-1.71456 -2.285,-3.6582 -4.73828,-3.6582 -2.45519,0 -3.67217,1.94364 -4.74414,3.6582 -1.02408,1.63741 -1.90833,3.05079 -3.64844,3.05079 -1.74011,0 -2.6224,-1.41338 -3.64649,-3.05079 -1.07195,-1.71456 -2.28702,-3.6582 -4.74218,-3.6582 -2.4539,0 -3.67083,1.94364 -4.74219,3.6582 -1.02312,1.63741 -1.90599,3.05079 -3.64453,3.05079 -1.73913,0 -2.62108,-1.41338 -3.64453,-3.05079 -1.07198,-1.71456 -2.28765,-3.6582 -4.74219,-3.6582 -2.4536,0 -3.66889,1.94364 -4.74024,3.6582 -1.02316,1.63741 -1.90404,3.05079 -3.64257,3.05079 -1.7379,0 -2.6217,-1.41338 -3.64454,-3.05079 -1.07099,-1.71456 -2.28693,-3.6582 -4.74023,-3.6582 -2.4552,0 -3.66829,1.94364 -4.74023,3.6582 -1.0241,1.63741 -1.9103,3.05079 -3.6504,3.05079 -1.74014,0 -2.62433,-1.41338 -3.64843,-3.05079 -1.07195,-1.71456 -2.28704,-3.6582 -4.74219,-3.6582 -2.45394,0 -3.66889,1.94364 -4.74023,3.6582 -1.0231,1.63741 -1.906,3.05079 -3.64454,3.05079 -1.73915,0 -2.62303,-1.41338 -3.64648,-3.05079 -1.07195,-1.71456 -2.28564,-3.6582 -4.74023,-3.6582 -2.45354,0 -3.66889,1.94364 -4.74024,3.6582 -1.02315,1.63741 -1.90598,3.05079 -3.64453,3.05079 -1.7379,0 -2.62167,-1.41338 -3.64453,-3.05079 -1.071,-1.71456 -2.28499,-3.6582 -4.73828,-3.6582 -2.4552,0 -3.6722,1.94364 -4.74414,3.6582 -1.02409,1.63741 -1.90634,3.05079 -3.64649,3.05079 -1.74009,0 -2.62434,-1.41338 -3.64843,-3.05079 -1.07194,-1.71456 -2.28705,-3.6582 -4.74219,-3.6582 -2.4539,0 -3.6689,1.94364 -4.74024,3.6582 -1.0231,1.63741 -1.90793,3.05079 -3.64648,3.05079 -1.73914,0 -2.62109,-1.41338 -3.64453,-3.05079 -1.07195,-1.71456 -2.28764,-3.6582 -4.74219,-3.6582 -2.45359,0 -3.66889,1.94364 -4.74023,3.6582 -1.02314,1.63741 -1.90599,3.05079 -3.64454,3.05079 -1.73788,0 -2.61972,-1.41338 -3.64257,-3.05079 -1.071,-1.71456 -2.285,-3.6582 -4.73829,-3.6582 -2.45519,0 -3.67024,1.94364 -4.74218,3.6582 -1.0241,1.63741 -1.9103,3.05079 -3.65039,3.05079 -1.74015,0 -2.62239,-1.41338 -3.64649,-3.05079 -1.07194,-1.71456 -2.287,-3.6582 -4.74218,-3.6582 -2.4539,0 -3.67084,1.94364 -4.74219,3.6582 -1.0231,1.63741 -1.90599,3.05079 -3.64453,3.05079 -1.73914,0 -2.62304,-1.41338 -3.64649,-3.05079 -1.07199,-1.71456 -2.28569,-3.6582 -4.74023,-3.6582 -2.4536,0 -3.66889,1.94364 -4.74024,3.6582 -1.02315,1.63741 -1.90404,3.05079 -3.64258,3.05079 -1.73789,0 -2.62168,-1.41338 -3.64453,-3.05079 -1.07099,-1.71456 -2.286943,-3.6582 -4.740231,-3.6582 -2.455147,0 -3.670238,1.94364 -4.742187,3.6582 -1.024089,1.63741 -1.908349,3.05079 -3.648438,3.05079 -1.740149,0 -2.622445,-1.41338 -3.646484,-3.05079 -1.071999,-1.71456 -2.288953,-3.6582 -4.744141,-3.6582 -2.453897,0 -3.668885,1.94364 -4.740234,3.6582 -1.023149,1.63741 -1.905993,3.05079 -3.644531,3.05079 -1.739149,0 -2.621083,-1.41338 -3.644532,-3.05079 -1.071948,-1.71456 -2.287649,-3.6582 -4.742187,-3.6582 -2.453598,0 -3.668885,1.94364 -4.740234,3.6582 -1.023149,1.63741 -1.905983,3.05079 -3.644532,3.05079 -1.737898,0 -2.621742,-1.41338 -3.644531,-3.05079 -1.07105,-1.71456 -2.284987,-3.6582 -4.738281,-3.6582 -2.455191,0 -3.67019,1.94364 -4.742188,3.6582 -1.024098,1.63741 -1.908341,3.05079 -3.648437,3.05079 -1.740142,0 -2.62434,-1.41338 -3.648438,-3.05079 -1.071997,-1.71456 -2.286993,-3.6582 -4.742187,-3.6582 -2.45389,0 -3.668888,1.94364 -4.740235,3.6582 -1.023146,1.63741 -1.905984,3.05079 -3.644531,3.05079 -1.739144,0 -2.622987,-1.41338 -3.646484,-3.05079 C 16.196806,190.96072 14.965382,189.0976 12.5,189.0976 v 0.002 c -2.401467,0.0407 -3.6119431,1.94822 -4.671875,3.64453 -1.023147,1.6374 -1.9059868,3.05078 -3.6445312,3.05078 v 0.004 c -0.984344,0 -1.4296089,-0.12493 -2.1171876,-0.8125 -0.749787,-0.74979 -0.7773437,-1.22419 -0.7773437,-2.0918 0,-1.74012 1.4153226,-2.62434 3.0527344,-3.64844 1.6924719,-1.05812 3.5934386,-2.2661 3.6425781,-4.6582 0,-2.42749 -1.7219107,-3.6241 -3.6425781,-4.82422 -1.6374118,-1.02314 -3.0527344,-1.90797 -3.0527344,-3.64649 0,-1.73915 1.4153226,-2.62107 3.0527344,-3.64453 C 6.0563858,171.40068 8,170.185 8,167.73047 c 0,-2.45361 -1.9436142,-3.6689 -3.6582031,-4.74024 -1.6374118,-1.02316 -3.0527344,-1.90601 -3.0527344,-3.64453 0,-1.73791 1.4153226,-2.61976 3.0527344,-3.64258 C 6.0563858,154.63209 8,153.41619 8,150.96289 c 0,-2.45517 -1.9436142,-3.66826 -3.6582031,-4.74024 -1.6374118,-1.0241 -3.0527344,-1.91028 -3.0527344,-3.65039 0,-1.74011 1.4153226,-2.62238 3.0527344,-3.64648 C 6.0563858,137.85382 8,136.63682 8,134.18164 c 0,-2.45391 -1.9436142,-3.66888 -3.6582031,-4.74024 -1.6374118,-1.02314 -3.0527344,-1.906 -3.0527344,-3.64453 0,-1.73915 1.4153226,-2.62302 3.0527344,-3.64648 C 6.0564103,121.07833 8,119.86469 8,117.41015 c 0,-2.4536 -1.9436142,-3.66888 -3.6582031,-4.74023 -1.6374118,-1.02315 -3.0527344,-1.90599 -3.0527344,-3.64453 0,-1.7379 1.4153226,-2.6217 3.0527344,-3.64453 C 6.0563858,104.30983 8,103.09586 8,100.64258 8,98.18741 6.0563858,96.97236 4.3417969,95.90039 2.7043851,94.87629 1.2890625,93.99206 1.2890625,92.25195 c 0,-1.74011 1.4153226,-2.62435 3.0527344,-3.64844 C 6.0563858,87.53154 8,86.3165 8,83.86133 8,81.40743 6.0563858,80.19244 4.3417969,79.12109 2.7043851,78.09795 1.2890625,77.21509 1.2890625,75.47656 c 0,-1.73915 1.4153226,-2.62304 3.0527344,-3.64648 C 6.0563858,70.75811 8,69.54244 8,67.08789 8,64.6343 6.0563858,63.41899 4.3417969,62.34765 2.7043851,61.3245 1.2890625,60.44361 1.2890625,58.70508 c 0,-1.7379 1.4153226,-2.6217 3.0527344,-3.64454 C 6.0563858,53.98953 8,52.77554 8,50.32226 8,47.86709 6.0563858,46.65205 4.3417969,45.58008 2.7043845,44.55599 1.2890625,43.67175 1.2890625,41.93164 c 0,-1.7401 1.4153226,-2.62435 3.0527344,-3.64844 C 6.0563863,37.21122 8,35.99618 8,33.54101 8,31.0871 6.0563863,29.87213 4.3417969,28.80078 2.7043845,27.77764 1.2890625,26.89283 1.2890625,25.15429 c 0,-1.73915 1.4153226,-2.62302 3.0527344,-3.64648 C 6.0563863,20.43585 8,19.22212 8,16.76758 8,14.31397 6.0563863,13.09869 4.3417969,12.02734 2.7043851,11.0042 1.2890625,10.12134 1.2890625,8.38281 c 0,-1.7379 1.4153226,-2.61976 3.0527344,-3.64258 C 6.0563873,3.6692 8,2.45329 8,0 Z" /></svg>
