<?xml version="1.0" encoding="UTF-8" standalone="no"?>
<svg
   version="1.1"
   x="0px"
   y="0px"
   viewBox="0 0 312 12.40039"
   xml:space="preserve"
   id="svg4"
   width="312"
   height="12.400391"
   xmlns="http://www.w3.org/2000/svg"
   xmlns:svg="http://www.w3.org/2000/svg"><defs
     id="defs4" /><path
     id="path1"
     d="m 0,0 v 2 c 2.6938473,0 4.062989,2.1923888 5.648438,4.7304688 1.660148,2.6577096 3.542976,5.6699222 7.345703,5.6699222 3.803706,0 5.685064,-3.0136776 7.345703,-5.6718754 C 21.925782,4.1909238 23.295417,2 25.990234,2 c 2.696288,0 4.065916,2.1923888 5.652344,4.7304688 1.661618,2.6577096 3.54347,5.6699222 7.347656,5.6699222 3.803707,0 5.687018,-3.0122136 7.347657,-5.6699222 C 47.923829,4.1923878 49.293464,2 51.988281,2 c 2.697258,0 4.066899,2.1923888 5.654297,4.7304688 1.661618,2.6577096 3.545906,5.6699222 7.351563,5.6699222 3.805656,0 5.689944,-3.0122136 7.351562,-5.6699222 C 73.933102,4.1923878 75.302743,2 78,2 c 2.693837,0 4.062989,2.1923888 5.648438,4.7304688 1.660148,2.6577096 3.541023,5.6699222 7.34375,5.6699222 3.803692,0 5.687022,-3.0136776 7.347652,-5.6718754 C 99.92578,4.1909238 101.29542,2 103.99023,2 c 2.69628,0 4.06592,2.1923888 5.65235,4.7304688 1.66162,2.6577096 3.54347,5.6699222 7.34765,5.6699222 3.80371,0 5.68702,-3.0122136 7.34766,-5.6699222 C 125.92383,4.1923878 127.29346,2 129.98828,2 c 2.69727,0 4.0669,2.1923888 5.6543,4.7304688 1.66163,2.6577096 3.5459,5.6699222 7.35156,5.6699222 3.80566,0 5.68993,-3.0122136 7.35156,-5.6699222 C 151.9331,4.1923878 153.30273,2 156,2 c 2.69385,0 4.06299,2.1923883 5.64844,4.7304688 1.66015,2.6577093 3.54297,5.6699222 7.3457,5.6699222 3.80371,0 5.68507,-3.013678 7.3457,-5.6718754 C 177.92578,4.1909232 179.29542,2 181.99023,2 c 2.69629,0 4.06592,2.1923883 5.65235,4.7304688 1.66162,2.6577093 3.54347,5.6699222 7.34765,5.6699222 3.80371,0 5.68702,-3.0122139 7.34766,-5.6699222 C 203.92383,4.1923873 205.29346,2 207.98828,2 c 2.69726,0 4.0669,2.1923883 5.6543,4.7304688 1.66162,2.6577093 3.5459,5.6699222 7.35156,5.6699222 3.80566,0 5.68994,-3.0122139 7.35156,-5.6699222 C 229.9331,4.1923873 231.30274,2 234,2 c 2.69384,0 4.06299,2.1923883 5.64844,4.7304688 1.66015,2.6577093 3.54102,5.6699222 7.34375,5.6699222 3.8037,0 5.68702,-3.013678 7.34765,-5.6718754 C 255.92578,4.1909232 257.29542,2 259.99023,2 c 2.69628,0 4.06592,2.1923883 5.65235,4.7304688 1.66162,2.6577093 3.54347,5.6699222 7.34765,5.6699222 3.80371,0 5.68702,-3.0122139 7.34766,-5.6699222 C 281.92383,4.1923873 283.29346,2 285.98828,2 c 2.69727,0 4.0669,2.1923883 5.6543,4.7304688 1.66163,2.6577093 3.5459,5.6699222 7.35156,5.6699222 3.80566,0 5.68993,-3.0122139 7.35156,-5.6699222 C 307.9331,4.1923873 309.30273,2 312,2 V 0 c -3.80566,0 -5.68994,3.0122115 -7.35156,5.6699219 -1.5874,2.5380804 -2.95703,4.7304691 -5.6543,4.7304691 -2.69727,0 -4.0669,-2.1923887 -5.6543,-4.7304691 C 291.67824,3.0122115 289.79394,0 285.98828,0 c -3.80369,0 -5.68701,3.0122115 -7.34766,5.6699219 -1.58592,2.5380804 -2.95557,4.7304691 -5.65039,4.7304691 -2.69578,0 -4.06397,-2.1923887 -5.65039,-4.7304691 C 265.67824,3.0122115 263.79491,0 259.99023,0 c -3.80321,0 -5.68701,3.0122115 -7.34765,5.6699219 -1.58594,2.5380804 -2.95362,4.7304691 -5.64844,4.7304691 -2.69385,0 -4.06299,-2.1923887 -5.64844,-4.7304691 C 239.68555,3.0122115 237.80273,0 234,0 c -3.80566,0 -5.68799,3.0122115 -7.34961,5.6699219 -1.5874,2.5380804 -2.95899,4.7304691 -5.65625,4.7304691 -2.69726,0 -4.0669,-2.1923887 -5.6543,-4.7304691 C 213.67823,3.0122115 211.79394,0 207.98828,0 c -3.8037,0 -5.68701,3.0122115 -7.34766,5.6699219 -1.58592,2.5380804 -2.95556,4.7304691 -5.65039,4.7304691 -2.69578,0 -4.06592,-2.1923887 -5.65234,-4.7304691 C 187.67627,3.0122115 185.79492,0 181.99023,0 c -3.80321,0 -5.68701,3.0122115 -7.34765,5.6699219 -1.58594,2.5380804 -2.95362,4.7304691 -5.64844,4.7304691 -2.69385,0 -4.06299,-2.1923887 -5.64844,-4.7304691 C 161.68555,3.0122115 159.80273,0 156,0 c -3.80566,0 -5.68994,3.0122121 -7.35156,5.6699219 -1.5874,2.5380808 -2.95703,4.7304691 -5.6543,4.7304691 -2.69727,0 -4.0669,-2.1923883 -5.6543,-4.7304691 C 135.67824,3.0122121 133.79394,0 129.98828,0 c -3.80369,0 -5.68701,3.0122121 -7.34766,5.6699219 -1.58592,2.5380808 -2.95557,4.7304691 -5.65039,4.7304691 -2.69578,0 -4.06397,-2.1923883 -5.65039,-4.7304691 C 109.67824,3.0122121 107.79491,0 103.99023,0 c -3.80321,0 -5.68701,3.0122121 -7.34765,5.6699219 -1.58594,2.5380808 -2.953622,4.7304691 -5.648439,4.7304691 -2.693848,0 -4.062989,-2.1923883 -5.648438,-4.7304691 C 83.685555,3.0122121 81.802726,0 78,0 c -3.805656,0 -5.687991,3.0122121 -7.349609,5.6699219 -1.587399,2.5380808 -2.958993,4.7304691 -5.65625,4.7304691 -2.697258,0 -4.066899,-2.1923883 -5.654297,-4.7304691 C 57.678225,3.0122121 55.793937,0 51.988281,0 c -3.803706,0 -5.687008,3.0122121 -7.347656,5.6699219 -1.585928,2.5380808 -2.955563,4.7304691 -5.650391,4.7304691 -2.695787,0 -4.065925,-2.1923883 -5.652343,-4.7304691 C 31.676272,3.0122121 29.794921,0 25.990234,0 22.187018,0 20.303216,3.0122121 18.642578,5.6699219 17.05664,8.2080027 15.688958,10.400391 12.994141,10.400391 10.300293,10.400391 8.931152,8.2080027 7.345703,5.6699219 5.685555,3.0122121 3.8027262,0 0,0 Z" /></svg>
