<?xml version="1.0" encoding="UTF-8" standalone="no"?>
<svg
   viewBox="0 0 1000 62.07822"
   height="62.07822"
   width="1000"
   xml:space="preserve"
   id="svg2"
   version="1.1"
   sodipodi:docname="wave01.svg"
   inkscape:export-filename="wave01.png"
   inkscape:export-xdpi="96"
   inkscape:export-ydpi="96"
   xmlns:inkscape="http://www.inkscape.org/namespaces/inkscape"
   xmlns:sodipodi="http://sodipodi.sourceforge.net/DTD/sodipodi-0.dtd"
   xmlns="http://www.w3.org/2000/svg"
   xmlns:svg="http://www.w3.org/2000/svg"
   xmlns:rdf="http://www.w3.org/1999/02/22-rdf-syntax-ns#"
   xmlns:cc="http://creativecommons.org/ns#"
   xmlns:dc="http://purl.org/dc/elements/1.1/"><sodipodi:namedview
     id="namedview1"
     pagecolor="#ffffff"
     bordercolor="#000000"
     borderopacity="0.25"
     inkscape:showpageshadow="2"
     inkscape:pageopacity="0.0"
     inkscape:pagecheckerboard="0"
     inkscape:deskcolor="#d1d1d1" /><metadata
     id="metadata8"><rdf:RDF><cc:Work
         rdf:about=""><dc:format>image/svg+xml</dc:format><dc:type
           rdf:resource="http://purl.org/dc/dcmitype/StillImage" /></cc:Work></rdf:RDF></metadata><defs
     id="defs6" /><path
     id="path24"
     style="fill:#040606;fill-opacity:1;fill-rule:nonzero;stroke:none;stroke-width:0.0667435"
     d="m 912.86965,62.078 c -22.8596,0 -34.55302,-15.003905 -44.86489,-28.24579 C 858.0867,21.104251 848.72261,9.0904459 830.29477,9.0904459 c -18.42785,0 -27.79193,12.0138051 -37.70331,24.7417641 C 782.27291,47.074095 770.58615,62.078 747.71988,62.078 724.8536,62.078 713.16015,47.074095 702.84833,33.83221 692.93026,21.104251 683.56618,9.0904459 665.14498,9.0904459 c -18.42115,0 -27.79193,12.0138051 -37.70999,24.7417641 C 617.12316,47.074095 605.43636,62.078 582.5701,62.078 559.70451,62.078 548.01506,47.074095 537.69986,33.83221 527.78581,21.104251 518.41639,9.0904459 499.9932,9.0904459 c -18.42316,0 -27.78724,12.0138051 -37.70199,24.7417641 -10.31518,13.241885 -22.0086,28.24579 -44.87154,28.24579 -22.86428,0 -34.55572,-15.003905 -44.87224,-28.24579 -9.91473,-12.727959 -19.27948,-24.7417641 -37.704,-24.7417641 -18.42449,0 -27.78926,12.0138051 -37.70465,24.7417641 C 286.82359,47.074095 275.13082,62.078 252.26789,62.078 229.40495,62.078 217.71285,47.074095 207.39699,33.83221 197.48226,21.104251 188.11683,9.0904459 169.693,9.0904459 c -18.42385,0 -27.7886,12.0138051 -37.70333,24.7417641 C 121.67382,47.074095 109.98172,62.078 87.11811,62.078 64.255169,62.078 52.563066,47.074095 42.247212,33.83221 32.332487,21.104251 22.967726,9.0904459 4.5432207,9.0904459 2.0343377,9.0904459 0,7.0547733 0,4.5452229 0,2.0356726 2.0343377,0 4.5432207,0 27.406827,0 39.098929,15.010582 49.414782,28.245791 59.329508,40.973749 68.69427,52.994229 87.11811,52.994229 c 18.42384,0 27.78926,-12.02048 37.70399,-24.748438 C 135.13729,15.010582 146.83006,0 169.693,0 c 22.86361,0 34.55571,15.010582 44.87156,28.245791 9.91472,12.727958 19.27948,24.748438 37.70333,24.748438 18.4245,0 27.78926,-12.02048 37.70399,-24.748438 C 300.28774,15.010582 311.97983,0 334.84343,0 c 22.86362,0 34.55572,15.010582 44.87157,28.245791 9.91473,12.727958 19.28016,24.748438 37.70467,24.748438 18.42384,0 27.7886,-12.02048 37.70467,-24.748438 C 465.43953,15.010582 477.12829,0 499.9932,0 c 22.86431,0 34.5584,15.010582 44.87423,28.245791 9.91409,12.727958 19.27818,24.748438 37.70267,24.748438 18.42119,0 27.78528,-12.02048 37.70334,-24.748438 C 630.58527,15.010582 642.27871,0 665.14498,0 c 22.86627,0 34.55307,15.010582 44.87159,28.245791 9.91137,12.727958 19.28216,24.748438 37.70331,24.748438 18.42115,0 27.78527,-12.02048 37.70334,-24.748438 C 795.73505,15.010582 807.4285,0 830.29477,0 c 22.86627,0 34.55303,15.010582 44.87824,28.245791 9.91137,12.727958 19.2755,24.748438 37.69664,24.748438 18.42786,0 27.79195,-12.02048 37.71001,-24.748438 C 960.89152,15.010582 972.59163,0 995.4512,0 c 2.50955,0 4.54526,2.0356726 4.54526,4.5452229 0,2.5095504 -2.03571,4.545223 -4.54526,4.545223 -18.42115,0 -27.79193,12.0138051 -37.70329,24.7417641 C 947.42938,47.074095 935.73593,62.078 912.86965,62.078" /></svg>
