<?xml version="1.0" encoding="UTF-8" standalone="no"?>
<svg
   version="1.1"
   x="0px"
   y="0px"
   viewBox="0 0 12.4004 311.99998"
   xml:space="preserve"
   id="svg4"
   width="12.4004"
   height="312"
   sodipodi:docname="wave4_v.svg"
   inkscape:version="1.3.2 (091e20e, 2023-11-25, custom)"
   xmlns:inkscape="http://www.inkscape.org/namespaces/inkscape"
   xmlns:sodipodi="http://sodipodi.sourceforge.net/DTD/sodipodi-0.dtd"
   xmlns="http://www.w3.org/2000/svg"
   xmlns:svg="http://www.w3.org/2000/svg"><sodipodi:namedview
     id="namedview1"
     pagecolor="#ffffff"
     bordercolor="#000000"
     borderopacity="0.25"
     inkscape:showpageshadow="2"
     inkscape:pageopacity="0.0"
     inkscape:pagecheckerboard="0"
     inkscape:deskcolor="#d1d1d1"
     showgrid="false"
     inkscape:zoom="3.7948718"
     inkscape:cx="6.4560811"
     inkscape:cy="100.66216"
     inkscape:window-width="1920"
     inkscape:window-height="1106"
     inkscape:window-x="-11"
     inkscape:window-y="-11"
     inkscape:window-maximized="1"
     inkscape:current-layer="svg4" /><defs
     id="defs4" /><path
     id="path1"
     d="m 12.4004,0 h -2 c 0,2.69384 -2.19239,4.06298 -4.73047,5.64843 C 3.01222,7.30858 0,9.19141 0,12.99414 c 0,3.8037 3.01368,5.68506 5.67188,7.3457 2.53759,1.58594 4.72852,2.95557 4.72852,5.65039 0,2.69629 -2.19239,4.06592 -4.73047,5.65234 C 3.01222,33.30419 0,35.18604 0,38.99023 c 0,3.80371 3.01222,5.68702 5.66993,7.34766 2.53808,1.58593 4.73047,2.95557 4.73047,5.650387 0,2.697258 -2.19239,4.066899 -4.73047,5.654297 C 3.01222,59.304191 0,61.18848 0,64.994137 c 0,3.805656 3.01222,5.689944 5.66993,7.351562 2.53808,1.587399 4.73047,2.95704 4.73047,5.654297 0,2.693837 -2.19239,4.062989 -4.73047,5.648438 C 3.01222,85.308582 0,87.189457 0,90.992184 c 0,3.803692 3.01368,5.687022 5.67188,7.347652 2.53759,1.58594 4.72852,2.955584 4.72852,5.650394 0,2.69628 -2.19239,4.06592 -4.73047,5.65235 C 3.01222,111.3042 0,113.18605 0,116.99023 c 0,3.8037 3.01222,5.68702 5.66993,7.34766 2.53808,1.58594 4.73047,2.95557 4.73047,5.65039 0,2.69727 -2.19239,4.0669 -4.73047,5.6543 C 3.01222,137.30421 0,139.18848 0,142.99414 c 0,3.80566 3.01222,5.68993 5.66993,7.35156 2.53808,1.5874 4.73047,2.95703 4.73047,5.6543 0,2.69385 -2.19239,4.06299 -4.73047,5.64844 C 3.01222,163.30858 0,165.1914 0,168.99413 c 0,3.80371 3.01368,5.68507 5.67188,7.3457 2.53759,1.58595 4.72852,2.95559 4.72852,5.6504 0,2.69629 -2.19239,4.06592 -4.73047,5.65235 C 3.01222,189.3042 0,191.18605 0,194.99023 c 0,3.8037 3.01222,5.68701 5.66993,7.34765 2.53808,1.58595 4.73047,2.95558 4.73047,5.6504 0,2.69726 -2.19239,4.0669 -4.73047,5.6543 C 3.01222,215.3042 0,217.18848 0,220.99414 c 0,3.80566 3.01222,5.68994 5.66993,7.35156 2.53808,1.5874 4.73047,2.95704 4.73047,5.6543 0,2.69383 -2.19239,4.06299 -4.73047,5.64843 C 3.01222,241.30858 0,243.18946 0,246.99218 c 0,3.80371 3.01368,5.68703 5.67188,7.34766 2.53759,1.58594 4.72852,2.95558 4.72852,5.65039 0,2.69628 -2.19239,4.06592 -4.73047,5.65235 C 3.01222,267.3042 0,269.18605 0,272.99023 c 0,3.80371 3.01222,5.68702 5.66993,7.34766 2.53808,1.58594 4.73047,2.95557 4.73047,5.65039 0,2.69727 -2.19239,4.0669 -4.73047,5.6543 C 3.01222,293.30421 0,295.18848 0,298.99414 c 0,3.80566 3.01222,5.68993 5.66993,7.35156 2.53808,1.5874 4.73047,2.95703 4.73047,5.6543 h 2 c 0,-3.80566 -3.01222,-5.68994 -5.66993,-7.35156 C 4.19239,303.06104 2,301.69141 2,298.99414 c 0,-2.69727 2.19239,-4.0669 4.73047,-5.6543 2.65771,-1.6616 5.66993,-3.5459 5.66993,-7.35156 0,-3.80369 -3.01222,-5.68701 -5.66993,-7.34766 C 4.19239,277.0547 2,275.68505 2,272.99023 c 0,-2.69578 2.19239,-4.06397 4.73047,-5.65039 2.65771,-1.6616 5.66993,-3.54493 5.66993,-7.34961 0,-3.80321 -3.01222,-5.68701 -5.66993,-7.34765 C 4.19239,251.05664 2,249.68896 2,246.99414 c 0,-2.69385 2.19239,-4.06299 4.73047,-5.64844 2.65771,-1.66015 5.66993,-3.54297 5.66993,-7.3457 0,-3.80566 -3.01222,-5.688 -5.66993,-7.34962 C 4.19239,225.06298 2,223.69139 2,220.99413 c 0,-2.69726 2.19239,-4.0669 4.73047,-5.6543 2.65771,-1.6616 5.66993,-3.5459 5.66993,-7.35155 0,-3.8037 -3.01222,-5.68701 -5.66993,-7.34766 C 4.19239,199.0547 2,197.68506 2,194.99023 c 0,-2.69578 2.19239,-4.06592 4.73047,-5.65234 2.65771,-1.66163 5.66993,-3.54298 5.66993,-7.34766 0,-3.80322 -3.01222,-5.68701 -5.66993,-7.34765 C 4.19239,173.05664 2,171.68896 2,168.99414 c 0,-2.69385 2.19239,-4.06299 4.73047,-5.64844 2.65771,-1.66015 5.66993,-3.54297 5.66993,-7.3457 0,-3.80566 -3.01222,-5.68994 -5.66993,-7.35156 C 4.19239,147.06104 2,145.69141 2,142.99414 c 0,-2.69727 2.19239,-4.06691 4.73047,-5.65431 2.65771,-1.6616 5.66993,-3.5459 5.66993,-7.35155 0,-3.80369 -3.01222,-5.68701 -5.66993,-7.34766 C 4.19239,121.0547 2,119.68505 2,116.99023 c 0,-2.69578 2.19239,-4.06397 4.73047,-5.65039 2.65771,-1.6616 5.66993,-3.54493 5.66993,-7.34961 0,-3.80321 -3.01222,-5.687014 -5.66993,-7.347654 C 4.19239,95.056636 2,93.688954 2,90.994137 2,88.300289 4.19239,86.931148 6.73047,85.345699 9.38818,83.685551 12.4004,81.802722 12.4004,77.999996 12.4004,74.19434 9.38818,72.312005 6.73047,70.650387 4.19239,69.062988 2,67.691394 2,64.994137 2,62.296879 4.19239,60.927238 6.73047,59.33984 9.38818,57.678221 12.4004,55.793933 12.4004,51.988277 12.4004,48.18457 9.38818,46.30127 6.73047,44.64062 4.19239,43.05469 2,41.68506 2,38.99023 2,36.29444 4.19239,34.9243 6.73047,33.33789 9.38818,31.67627 12.4004,29.79492 12.4004,25.99023 12.4004,22.18701 9.38818,20.30321 6.73047,18.64257 4.19239,17.05664 2,15.68895 2,12.99414 2,10.30029 4.19239,8.93115 6.73047,7.3457 9.38818,5.68555 12.4004,3.80272 12.4004,0 Z" /></svg>
