<?xml version="1.0" encoding="UTF-8" standalone="no"?>
<svg
   version="1.1"
   x="0px"
   y="0px"
   viewBox="0 0 156 12.399902"
   xml:space="preserve"
   id="svg4"
   width="156"
   height="12.399902"
   xmlns="http://www.w3.org/2000/svg"
   xmlns:svg="http://www.w3.org/2000/svg"><defs
     id="defs4" /><path
     id="path1"
     d="m 0,0 v 2 c 2.6938453,0 4.0629901,2.1923863 5.6484375,4.7304688 1.6601553,2.6577123 3.5429719,5.6699222 7.3457035,5.6699222 3.803706,0 5.68506,-3.013675 7.345703,-5.6718754 C 21.92578,4.1909212 23.295412,2 25.990234,2 c 2.696287,0 4.06592,2.1923863 5.652344,4.7304688 1.661618,2.6577123 3.543463,5.6699222 7.347656,5.6699222 3.803708,0 5.687013,-3.0122109 7.347657,-5.6699222 C 47.923827,4.1923853 49.293459,2 51.988281,2 c 2.697263,0 4.066896,2.1923863 5.654297,4.7304688 1.661619,2.6577123 3.545902,5.6699222 7.351563,5.6699222 3.805659,0 5.689941,-3.0122109 7.351562,-5.6699222 C 73.933105,4.1923853 75.302737,2 78,2 c 2.693845,0 4.06299,2.1923863 5.648438,4.7304688 1.660155,2.6577123 3.541019,5.6699222 7.34375,5.6699222 3.803707,0 5.687015,-3.013675 7.347656,-5.6718754 C 99.925782,4.1909212 101.29541,2 103.99023,2 c 2.69628,0 4.06592,2.1923863 5.65235,4.7304688 1.66162,2.6577123 3.54346,5.6699222 7.34765,5.6699222 3.80371,0 5.68702,-3.0122109 7.34766,-5.6699222 C 125.92383,4.1923853 127.29346,2 129.98828,2 c 2.69727,0 4.0669,2.1923863 5.6543,4.7304688 1.66163,2.6577123 3.5459,5.6699222 7.35156,5.6699222 3.80566,0 5.68993,-3.0122109 7.35156,-5.6699222 C 151.9331,4.1923853 153.30273,2 156,2 V 0 c -3.80566,0 -5.68994,3.0122095 -7.35156,5.6699219 -1.5874,2.5380834 -2.95703,4.7304691 -5.6543,4.7304691 -2.69727,0 -4.0669,-2.1923857 -5.6543,-4.7304691 C 135.67823,3.0122095 133.79394,0 129.98828,0 c -3.8037,0 -5.68701,3.0122095 -7.34766,5.6699219 -1.58593,2.5380834 -2.95557,4.7304691 -5.65039,4.7304691 -2.69579,0 -4.06397,-2.1923857 -5.65039,-4.7304691 C 109.67823,3.0122095 107.79491,0 103.99023,0 c -3.80322,0 -5.687008,3.0122095 -7.347652,5.6699219 -1.585935,2.5380834 -2.953616,4.7304691 -5.648437,4.7304691 -2.693846,0 -4.06299,-2.1923857 -5.648438,-4.7304691 C 83.685548,3.0122095 81.80273,0 78,0 c -3.805661,0 -5.68799,3.0122095 -7.349609,5.6699219 -1.587401,2.5380834 -2.958989,4.7304691 -5.65625,4.7304691 -2.697264,0 -4.066896,-2.1923857 -5.654297,-4.7304691 C 57.678222,3.0122095 55.793941,0 51.988281,0 48.184574,0 46.301267,3.0122095 44.640625,5.6699219 43.05469,8.2080053 41.685058,10.400391 38.990234,10.400391 c -2.695798,0 -4.06592,-2.1923857 -5.652343,-4.7304691 C 31.676271,3.0122095 29.794918,0 25.990234,0 22.187015,0 20.303221,3.0122095 18.642578,5.6699219 17.056643,8.2080053 15.688961,10.400391 12.994141,10.400391 10.300295,10.400391 8.9311505,8.2080053 7.3457031,5.6699219 5.6855478,3.0122095 3.8027302,0 0,0 Z" /></svg>
