<?xml version="1.0" encoding="UTF-8" standalone="no"?>
<svg
   height="263.40045"
   width="1029.5"
   version="1.1"
   id="svg1"
   xmlns="http://www.w3.org/2000/svg"
   xmlns:svg="http://www.w3.org/2000/svg">
  <defs
     id="defs1" />
  <path
     id="path1"
     style="fill:#000000;fill-opacity:1;fill-rule:nonzero;stroke:none;stroke-width:0.00860128"
     d="M 7.4140625,0 C 7.0906546,0 6.828125,0.26261689 6.828125,0.5859375 c 0,2.3743772 -1.5472386,3.5816586 -3.1875,4.859375 C 1.9341434,6.7747224 0,8.2802015 0,11.226562 c 0,2.946449 1.9341434,4.453794 3.640625,5.783204 1.6402614,1.277718 3.1875,2.485082 3.1875,4.859375 0,2.37429 -1.5472386,3.579705 -3.1875,4.857421 C 1.9341434,28.055973 0,29.563405 0,32.509766 c 0,2.946359 1.9341434,4.453878 3.640625,5.783203 1.6402614,1.277803 3.1875,2.484997 3.1875,4.859375 0,2.374376 -1.5472386,3.579709 -3.1875,4.857422 C 1.9341434,49.339263 0,50.846438 0,53.792969 c 0,2.946361 1.9341434,4.45388 3.640625,5.783203 1.6402614,1.277716 3.1875,2.483216 3.1875,4.857422 0,2.374203 -1.5472386,3.581743 -3.1875,4.859375 C 1.9341434,70.622294 0,72.129468 0,75.076172 c 0,2.946792 1.9341434,4.452356 3.640625,5.78125 1.6402614,1.27815 3.1875,2.487377 3.1875,4.861328 0,2.37395 -1.5472386,3.579274 -3.1875,4.857422 C 1.9341434,91.905069 0,93.412579 0,96.359375 c 0,2.946793 1.9341434,4.453455 3.640625,5.783205 1.6402614,1.27728 3.1875,2.48261 3.1875,4.85742 0,2.3748 -1.5472386,3.58319 -3.1875,4.86133 C 1.9341434,113.19022 0,114.69665 0,117.64258 c 0,2.94678 1.9341434,4.45344 3.640625,5.7832 1.6402614,1.27729 3.1875,2.48544 3.1875,4.85938 0,2.37395 -1.5472386,3.58207 -3.1875,4.85937 C 1.9341356,134.47427 0,135.98094 0,138.92773 c 0,2.94593 1.9341356,4.45237 3.640625,5.78125 1.6402614,1.27815 3.1875,2.48456 3.1875,4.85938 0,2.37481 -1.5472386,3.5821 -3.1875,4.85937 C 1.9341356,155.75749 0,157.26415 0,160.21094 c 0,2.94679 1.9341356,4.45236 3.640625,5.78125 1.6402614,1.27815 3.1875,2.48543 3.1875,4.85937 0,2.37394 -1.5472386,3.58124 -3.1875,4.85938 C 1.9341356,177.03984 0,178.5454 0,181.49219 c 0,2.94671 1.9341356,4.45387 3.640625,5.7832 1.6402614,1.27763 3.1875,2.48517 3.1875,4.85938 0,2.3742 -1.5472386,3.58166 -3.1875,4.85937 C 1.9341356,198.32347 0,199.82902 0,202.77539 c 0,2.94654 1.9341356,4.45371 3.640625,5.7832 1.6402614,1.27772 3.1875,2.48501 3.1875,4.85938 0,2.37438 -1.5472386,3.58158 -3.1875,4.85937 C 1.9341356,219.60666 0,221.11222 0,224.05859 c 0,2.94636 1.9341356,4.45379 3.640625,5.78321 1.6402614,1.27771 3.1875,2.48507 3.1875,4.85937 0,2.37428 -1.5472386,3.58167 -3.1875,4.85938 C 1.9341356,240.88997 0,242.39536 0,245.3418 c 0,2.94637 1.9341356,4.45379 3.640625,5.7832 1.6402614,1.27771 3.1875,2.485 3.1875,4.85938 0,9.2e-4 0.00195,0.001 0.00195,0.002 0.00217,0.46905 0.4633419,0.58594 0.5839844,0.58594 2.3741473,0 3.5817776,1.54739 4.8593756,3.1875 1.329288,1.70631 2.835162,3.64062 5.78125,3.64062 2.946165,0 4.453923,-1.93431 5.783203,-3.64062 1.277598,-1.64011 2.483354,-3.1875 4.857421,-3.1875 2.374067,0 3.581778,1.54739 4.859376,3.1875 1.329277,1.70631 2.837117,3.64062 5.783203,3.64062 2.946077,0 4.452051,-1.93431 5.78125,-3.64062 1.277687,-1.64011 2.485217,-3.1875 4.859375,-3.1875 2.374147,0 3.579832,1.54739 4.857422,3.1875 1.329367,1.70631 2.836946,3.64062 5.783203,3.64062 2.946075,0 4.452062,-1.93431 5.78125,-3.64062 1.277598,-1.64011 2.485397,-3.1875 4.859375,-3.1875 2.373976,0 3.579912,1.54739 4.857422,3.1875 1.329197,1.70631 2.836776,3.64062 5.783203,3.64062 2.946516,0 4.452482,-1.93431 5.78125,-3.64062 1.278038,-1.64011 2.483695,-3.1875 4.857421,-3.1875 2.373727,0 3.581351,1.54739 4.859376,3.1875 1.328782,1.70631 2.834735,3.64062 5.781255,3.64062 2.94651,0 4.45359,-1.93431 5.7832,-3.64062 1.27717,-1.64011 2.48283,-3.1875 4.85742,-3.1875 2.37458,0 3.58136,1.54739 4.85938,3.1875 1.32876,1.70631 2.8356,3.64062 5.78125,3.64062 2.94649,0 4.45356,-1.93431 5.7832,-3.64062 1.27717,-1.64011 2.48566,-3.1875 4.85938,-3.1875 2.37372,0 3.58024,1.54739 4.85742,3.1875 1.32961,1.70632 2.8367,3.64062 5.7832,3.64062 2.94566,0 4.45249,-1.9343 5.78125,-3.64062 1.27804,-1.64011 2.48478,-3.1875 4.85938,-3.1875 2.37456,0 3.58026,1.54739 4.85742,3.1875 1.32964,1.70632 2.83668,3.64062 5.7832,3.64062 2.94652,0 4.45248,-1.9343 5.78125,-3.64062 1.27804,-1.64011 2.48567,-3.1875 4.85938,-3.1875 2.37372,0 3.58135,1.54739 4.85937,3.1875 1.32878,1.70632 2.83474,3.64062 5.78125,3.64062 2.94643,0 4.45204,-1.9343 5.78125,-3.64062 1.2775,-1.64011 2.48541,-3.1875 4.85938,-3.1875 2.37398,0 3.57983,1.54739 4.85742,3.1875 1.32921,1.70632 2.83711,3.64062 5.7832,3.64062 2.94625,0 4.45188,-1.9343 5.78125,-3.64062 1.2776,-1.64011 2.48326,-3.1875 4.85742,-3.1875 2.37416,0 3.58171,1.54739 4.85938,3.1875 1.32921,1.70632 2.83516,3.64062 5.78125,3.64062 2.94608,0 4.45391,-1.9343 5.7832,-3.64062 1.2776,-1.64011 2.48335,-3.1875 4.85742,-3.1875 2.37406,0 3.58178,1.54739 4.85938,3.1875 1.32929,1.70632 2.83508,3.64062 5.78125,3.64062 2.94609,0 4.45392,-1.9343 5.7832,-3.64062 1.27759,-1.64011 2.48328,-3.1875 4.85742,-3.1875 2.37416,0 3.58181,1.54739 4.85938,3.1875 1.32929,1.70632 2.83516,3.64062 5.78125,3.64062 2.94616,0 4.45391,-1.9343 5.7832,-3.64062 1.2776,-1.64011 2.48335,-3.1875 4.85742,-3.1875 2.37407,0 3.58179,1.54739 4.85938,3.1875 1.3293,1.70632 2.83711,3.64062 5.7832,3.64062 2.94611,0 4.45204,-1.9343 5.78125,-3.64062 1.27768,-1.64011 2.48525,-3.1875 4.85938,-3.1875 2.37415,0 3.57986,1.54739 4.85742,3.1875 1.32937,1.70632 2.83693,3.64062 5.7832,3.64062 2.94609,0 4.45205,-1.9343 5.78125,-3.64062 1.27761,-1.64011 2.48344,-3.1875 4.85742,-3.1875 2.37399,0 3.58187,1.54739 4.85938,3.1875 1.32919,1.70632 2.83675,3.64062 5.7832,3.64062 2.94653,0 4.45053,-1.9343 5.7793,-3.64062 1.27804,-1.64011 2.48569,-3.1875 4.85937,-3.1875 2.37374,0 3.58134,1.54739 4.85938,3.1875 1.32876,1.70632 2.83472,3.64062 5.78125,3.64062 2.94651,0 4.45356,-1.9343 5.7832,-3.64062 1.27716,-1.64011 2.48284,-3.1875 4.85742,-3.1875 2.37461,0 3.58134,1.54739 4.85938,3.1875 1.32875,1.70632 2.8356,3.64062 5.78125,3.64062 2.94651,0 4.45362,-1.9343 5.7832,-3.64062 1.27719,-1.64011 2.48371,-3.1875 4.85742,-3.1875 2.37371,0 3.58225,1.54739 4.85938,3.1875 1.32965,1.70631 2.8367,3.64062 5.7832,3.64062 2.94566,0 4.45245,-1.93431 5.78125,-3.64062 1.27801,-1.64011 2.48479,-3.1875 4.85938,-3.1875 2.37461,0 3.58026,1.54739 4.85742,3.1875 1.32961,1.70631 2.83667,3.64062 5.7832,3.64062 2.9465,0 4.45249,-1.93431 5.78125,-3.64062 1.27803,-1.64011 2.48565,-3.1875 4.85938,-3.1875 2.37367,0 3.58133,1.54739 4.85937,3.1875 1.32875,1.70631 2.83473,3.64062 5.78125,3.64062 2.94642,0 4.45206,-1.93431 5.78125,-3.64062 1.27752,-1.64011 2.48539,-3.1875 4.85938,-3.1875 2.37396,0 3.57983,1.54739 4.85742,3.1875 1.32922,1.70631 2.83711,3.64062 5.7832,3.64062 2.94623,0 4.45191,-1.93431 5.78125,-3.64062 1.27759,-1.64011 2.48521,-3.1875 4.85938,-3.1875 2.37414,0 3.57975,1.54739 4.85742,3.1875 1.32922,1.70631 2.83517,3.64062 5.78125,3.64062 2.94609,0 4.45392,-1.93431 5.7832,-3.64062 1.2776,-1.64011 2.48334,-3.1875 4.85742,-3.1875 2.37407,0 3.5818,1.54739 4.85938,3.1875 1.3293,1.70631 2.83508,3.64062 5.78125,3.64062 2.94608,0 4.45391,-1.93431 5.7832,-3.64062 1.27759,-1.64011 2.48325,-3.1875 4.85742,-3.1875 2.37422,0 3.58174,1.54739 4.85938,3.1875 1.32924,1.70631 2.83516,3.64062 5.78125,3.64062 2.94623,0 4.4539,-1.93431 5.7832,-3.64062 1.27751,-1.64011 2.48328,-3.1875 4.85742,-3.1875 2.37406,0 3.58174,1.54739 4.85938,3.1875 1.32924,1.70631 2.83705,3.64062 5.7832,3.64062 2.94609,0 4.45201,-1.93431 5.78125,-3.64062 1.27764,-1.64011 2.48326,-3.1875 4.85742,-3.1875 2.37415,0 3.58174,1.54739 4.85938,3.1875 1.32934,1.70631 2.83507,3.64062 5.78125,3.64062 2.94613,0 4.454,-1.93431 5.7832,-3.64062 1.27759,-1.64011 2.48346,-3.1875 4.85742,-3.1875 2.37399,0 3.5819,1.54739 4.85938,3.1875 1.32919,1.70631 2.83481,3.64062 5.78125,3.64062 2.94654,0 4.45241,-1.93431 5.78125,-3.64062 1.27799,-1.64011 2.48568,-3.1875 4.85937,-3.1875 2.37369,0 3.58138,1.54739 4.85938,3.1875 1.32884,1.70631 2.83474,3.64062 5.78125,3.64062 2.94654,0 4.4536,-1.93431 5.7832,-3.64062 1.27718,-1.64011 2.4828,-3.1875 4.85742,-3.1875 2.37462,0 3.58138,1.54739 4.85938,3.1875 1.32877,1.70631 2.83563,3.64062 5.78125,3.64062 2.94649,0 4.45355,-1.93431 5.7832,-3.64062 1.27708,-1.64011 2.48361,-3.1875 4.85742,-3.1875 2.37368,0 3.58221,1.54739 4.85938,3.1875 1.32961,1.70632 2.8367,3.64062 5.7832,3.64062 2.94567,0 4.45257,-1.9343 5.78125,-3.64062 1.27805,-1.64011 2.48476,-3.1875 4.85938,-3.1875 2.37465,0 3.58031,1.54739 4.85742,3.1875 1.32976,1.70632 2.8367,3.64062 5.7832,3.64062 2.9465,0 4.45241,-1.9343 5.78125,-3.64062 1.27799,-1.64011 2.48564,-3.1875 4.85938,-3.1875 2.37369,0 3.58137,1.54739 4.85937,3.1875 1.32874,1.70632 2.83284,3.64062 5.7793,3.64062 2.94659,0 4.45401,-1.9343 5.7832,-3.64062 1.27753,-1.64011 2.48533,-3.1875 4.85938,-3.1875 2.37394,0 3.57983,1.54739 4.85742,3.1875 1.32924,1.70632 2.83522,3.64062 5.78125,3.64062 2.9463,0 4.4538,-1.9343 5.7832,-3.64062 1.27754,-1.64011 2.48326,-3.1875 4.85742,-3.1875 2.37415,0 3.5817,1.54739 4.85938,3.1875 1.3292,1.70632 2.83517,3.64062 5.78125,3.64062 2.94608,0 4.45385,-1.9343 5.7832,-3.64062 1.27758,-1.64011 2.48332,-3.1875 4.85742,-3.1875 2.37411,0 3.58179,1.54739 4.85938,3.1875 1.32929,1.70632 2.83506,3.64062 5.78125,3.64062 2.94607,0 4.45197,-1.9343 5.78125,-3.64062 1.27759,-1.64011 2.48522,-3.1875 4.85937,-3.1875 2.37415,0 3.58179,1.54739 4.85938,3.1875 1.32929,1.70632 2.83516,3.64062 5.78125,3.64062 2.94619,0 4.45196,-1.9343 5.78125,-3.64062 1.27759,-1.64011 2.48531,-3.1875 4.85937,-3.1875 2.37404,0 3.57985,1.54739 4.85742,3.1875 1.32929,1.70632 2.83712,3.64062 5.78321,3.64062 2.94606,0 4.454,-1.9343 5.7832,-3.64062 1.27769,-1.64011 2.48326,-3.1875 4.85742,-3.1875 2.37415,0 3.58175,1.54739 4.85938,3.1875 1.32935,1.70632 2.83501,3.64062 5.78125,3.64062 2.94608,0 4.45401,-1.9343 5.7832,-3.64062 1.27758,-1.64011 2.48343,-3.1875 4.85742,-3.1875 2.37396,0 3.58185,1.54739 4.85938,3.1875 1.32919,1.70632 2.83479,3.64062 5.78125,3.64062 2.94649,0 4.45247,-1.9343 5.78125,-3.64062 1.278,-1.64011 2.48563,-3.1875 4.85937,-3.1875 2.37369,0 3.58133,1.54739 4.85938,3.1875 1.32877,1.70632 2.83475,3.64062 5.78125,3.64062 2.94654,0 4.45355,-1.9343 5.7832,-3.64062 1.27718,-1.64011 2.48285,-3.1875 4.85742,-3.1875 2.37461,0 3.58134,1.54739 4.85938,3.1875 1.32874,1.70632 2.83557,3.64062 5.78125,3.64062 2.94649,0 4.4536,-1.9343 5.7832,-3.64062 1.27717,-1.64011 2.48373,-3.1875 4.85742,-3.1875 2.37375,0 3.58221,1.54739 4.85938,3.1875 1.3296,1.70631 2.83481,3.64062 5.78125,3.64062 2.94567,0 4.45247,-1.93431 5.78125,-3.64062 1.278,-1.64011 2.48476,-3.1875 4.85937,-3.1875 2.37457,0 3.58219,1.54739 4.85938,3.1875 1.32959,1.70631 2.83474,3.64062 5.78125,3.64062 2.94653,0 4.45443,-1.93431 5.7832,-3.64062 1.27806,-1.64011 2.48367,-3.1875 4.85742,-3.1875 2.37373,0 3.58133,1.54739 4.85938,3.1875 1.32878,1.70631 2.83476,3.64062 5.78125,3.64062 2.94645,0 4.45401,-1.93431 5.7832,-3.64062 1.27749,-1.64011 2.48341,-3.1875 4.85742,-3.1875 2.37394,0 3.5818,1.54739 4.85938,3.1875 1.32919,1.70631 2.83516,3.64062 5.78125,3.64062 2.94622,0 4.45385,-1.93431 5.7832,-3.64062 1.27758,-1.64011 2.48327,-3.1875 4.85742,-3.1875 2.37421,0 3.58168,1.54739 4.85938,3.1875 1.32924,1.70631 2.83511,3.64062 5.78125,3.64062 2.94609,0 4.45391,-1.93431 5.78321,-3.64062 1.2776,-1.64011 2.4834,-3.1875 4.8574,-3.1875 2.374,0 3.5798,1.54739 4.8574,3.1875 1.3293,1.70631 2.837,3.64062 5.7832,3.64062 2.9461,0 4.4539,-1.93431 5.7832,-3.64062 1.2776,-1.64011 2.4834,-3.1875 4.8575,-3.1875 0.3233,0 0.5859,-0.26256 0.5859,-0.58594 0,-0.32338 -0.2626,-0.58594 -0.5859,-0.58594 -2.9461,0 -4.4539,1.9332 -5.7832,3.63867 -1.2776,1.64011 -2.4834,3.18946 -4.8575,3.18946 -2.3741,0 -3.5817,-1.54935 -4.8593,-3.18946 -1.3292,-1.70547 -2.8352,-3.63867 -5.7813,-3.63867 -2.9462,0 -4.4539,1.9332 -5.7832,3.63867 -1.2775,1.64011 -2.48331,3.18946 -4.85741,3.18946 -2.37421,0 -3.57984,-1.54935 -4.85742,-3.18946 -1.32929,-1.70547 -2.83701,-3.63867 -5.78321,-3.63867 -2.94613,0 -4.45197,1.9332 -5.78125,3.63867 -1.27764,1.64011 -2.48521,3.18946 -4.85937,3.18946 -2.3741,0 -3.57974,-1.54935 -4.85742,-3.18946 -1.32924,-1.70547 -2.83687,-3.63867 -5.78321,-3.63867 -2.94629,0 -4.45195,1.9332 -5.78125,3.63867 -1.27749,1.64011 -2.48521,3.18946 -4.85937,3.18946 -2.37374,0 -3.57939,-1.54935 -4.85742,-3.18946 -1.32878,-1.70547 -2.83667,-3.63867 -5.78321,-3.63867 -2.94648,0 -4.45164,1.9332 -5.78125,3.63867 -1.27717,1.64011 -2.48563,3.18946 -4.85937,3.18946 -2.3737,0 -3.57938,-1.54935 -4.85742,-3.18946 -1.32879,-1.70547 -2.83672,-3.63867 -5.78321,-3.63867 -2.94654,0 -4.45073,1.9332 -5.78125,3.63867 -1.27717,1.64011 -2.48563,3.18946 -4.85937,3.18946 -2.37456,0 -3.57938,-1.54935 -4.85742,-3.18946 -1.32878,-1.70547 -2.83752,-3.63867 -5.78321,-3.63867 -2.94562,0 -4.45247,1.9332 -5.78125,3.63867 -1.27805,1.6401 -2.4848,3.18946 -4.85937,3.18946 -2.37374,0 -3.58019,-1.54936 -4.85742,-3.18946 -1.33046,-1.70547 -2.83671,-3.63867 -5.78321,-3.63867 -2.9465,0 -4.45442,1.9332 -5.7832,3.63867 -1.278,1.6401 -2.48367,3.18946 -4.85742,3.18946 -2.37369,0 -3.58026,-1.54936 -4.85742,-3.18946 -1.32961,-1.70547 -2.83672,-3.63867 -5.78321,-3.63867 -2.94654,0 -4.45247,1.9332 -5.78125,3.63867 -1.27804,1.6401 -2.48568,3.18946 -4.85937,3.18946 -2.37416,0 -3.57994,-1.54936 -4.85742,-3.18946 -1.32929,-1.70547 -2.83697,-3.63867 -5.78321,-3.63867 -2.94633,0 -4.45206,1.9332 -5.78125,3.63867 -1.27774,1.6401 -2.48532,3.18946 -4.85937,3.18946 -2.37416,0 -3.57983,-1.54936 -4.85742,-3.18946 -1.32928,-1.70547 -2.83702,-3.63867 -5.78321,-3.63867 -2.94613,0 -4.45392,1.9332 -5.7832,3.63867 -1.2776,1.6401 -2.48326,3.18946 -4.85742,3.18946 -2.3741,0 -3.5798,-1.54936 -4.85742,-3.18946 -1.32925,-1.70547 -2.83707,-3.63867 -5.78321,-3.63867 -2.94608,0 -4.45401,1.9332 -5.7832,3.63867 -1.27759,1.6401 -2.48336,3.18946 -4.85742,3.18946 -2.37405,0 -3.5818,-1.54936 -4.85938,-3.18946 -1.3293,-1.70547 -2.83507,-3.63867 -5.78125,-3.63867 -2.94618,0 -4.45195,1.9332 -5.78125,3.63867 -1.27758,1.6401 -2.48533,3.18946 -4.85937,3.18946 -2.37411,0 -3.57989,-1.54936 -4.85742,-3.18946 -1.32924,-1.70547 -2.83711,-3.63867 -5.78321,-3.63867 -2.94613,0 -4.45202,1.9332 -5.78125,3.63867 -1.27764,1.6401 -2.48531,3.18946 -4.85937,3.18946 -2.37414,0 -3.57989,-1.54936 -4.85742,-3.18946 -1.32934,-1.70547 -2.83707,-3.63867 -5.78321,-3.63867 -2.94618,0 -4.45195,1.9332 -5.78125,3.63867 -1.27764,1.6401 -2.48521,3.18946 -4.85937,3.18946 -2.3741,0 -3.57969,-1.54936 -4.85742,-3.18946 -1.32919,-1.70547 -2.83492,-3.63867 -5.78125,-3.63867 -2.9463,0 -4.45391,1.9332 -5.78321,3.63867 -1.27752,1.6401 -2.48522,3.18946 -4.85937,3.18946 -2.3737,0 -3.57938,-1.54936 -4.85742,-3.18946 -1.32879,-1.70547 -2.8348,-3.63867 -5.78125,-3.63867 -2.94655,0 -4.45361,1.9332 -5.78321,3.63867 -1.27718,1.6401 -2.48373,3.18946 -4.85742,3.18946 -2.37374,0 -3.58133,-1.54936 -4.85937,-3.18946 -1.32872,-1.70547 -2.83476,-3.63867 -5.78125,-3.63867 -2.94655,0 -4.45273,1.9332 -5.78321,3.63867 -1.27718,1.6401 -2.48367,3.18946 -4.85742,3.18946 -2.37456,0 -3.58132,-1.54936 -4.85937,-3.18946 -1.32872,-1.70547 -2.83759,-3.63867 -5.78321,-3.63867 -2.94567,0 -4.45247,1.9332 -5.78125,3.63867 -1.27806,1.64011 -2.48476,3.18946 -4.85937,3.18946 -2.37374,0 -3.58026,-1.54935 -4.85742,-3.18946 -1.33047,-1.70547 -2.83666,-3.63867 -5.78321,-3.63867 -2.94649,0 -4.45252,1.9332 -5.78125,3.63867 -1.27804,1.64011 -2.48558,3.18946 -4.85937,3.18946 -2.3737,0 -3.58025,-1.54935 -4.85742,-3.18946 -1.3296,-1.70547 -2.83671,-3.63867 -5.78321,-3.63867 -2.94648,0 -4.45247,1.9332 -5.78125,3.63867 -1.27805,1.64011 -2.48563,3.18946 -4.85937,3.18946 -2.37416,0 -3.57994,-1.54935 -4.85742,-3.18946 -1.32928,-1.70547 -2.83692,-3.63867 -5.78321,-3.63867 -2.9463,0 -4.45206,1.9332 -5.78125,3.63867 -1.27769,1.64011 -2.48526,3.18946 -4.85937,3.18946 -2.37414,0 -3.5799,-1.54935 -4.85742,-3.18946 -1.3294,-1.70547 -2.83697,-3.63867 -5.78321,-3.63867 -2.94618,0 -4.452,1.9332 -5.78125,3.63867 -1.27763,1.64011 -2.48327,3.18946 -4.85742,3.18946 -2.37416,0 -3.58175,-1.54935 -4.85937,-3.18946 -1.32924,-1.70547 -2.83702,-3.63867 -5.78321,-3.63867 -2.94612,0 -4.45212,1.9332 -5.78125,3.63867 -1.27765,1.64011 -2.48528,3.18946 -4.85937,3.18946 -2.37406,0 -3.57984,-1.54935 -4.85742,-3.18946 -1.32929,-1.70547 -2.83695,-3.63867 -5.78321,-3.63867 -2.94615,0 -4.45195,1.9332 -5.78125,3.63867 -1.27759,1.64011 -2.4853,3.18946 -4.85937,3.18946 -2.37407,0 -3.57983,-1.54935 -4.85742,-3.18946 -1.32918,-1.70547 -2.83712,-3.63867 -5.78321,-3.63867 -2.94618,0 -4.45196,1.9332 -5.78125,3.63867 -1.2776,1.64011 -2.48529,3.18946 -4.85937,3.18946 -2.37417,0 -3.57983,-1.54935 -4.85742,-3.18946 -1.32928,-1.70547 -2.8351,-3.63867 -5.78125,-3.63867 -2.94619,0 -4.45392,1.9332 -5.78321,3.63867 -1.2776,1.64011 -2.48328,3.18946 -4.85742,3.18946 -2.37407,0 -3.58161,-1.54935 -4.85937,-3.18946 -1.3292,-1.70547 -2.83492,-3.63867 -5.78125,-3.63867 -2.94627,0 -4.45392,1.9332 -5.78321,3.63867 -1.27749,1.64011 -2.48327,3.18946 -4.85742,3.18946 -2.37374,0 -3.58135,-1.54935 -4.85937,-3.18946 -1.32877,-1.70547 -2.83477,-3.63867 -5.78125,-3.63867 -2.94652,0 -4.45357,1.9332 -5.78321,3.63867 -1.27715,1.64011 -2.48371,3.18946 -4.85742,3.18946 -2.37374,0 -3.58135,-1.54935 -4.85937,-3.18946 -1.32878,-1.70547 -2.83473,-3.63867 -5.78125,-3.63867 -2.9465,0 -4.45275,1.9332 -5.78321,3.63867 -1.27719,1.64011 -2.48368,3.18946 -4.85742,3.18946 -2.37457,0 -3.58135,-1.54935 -4.85937,-3.18946 -1.32878,-1.70547 -2.83756,-3.63867 -5.78321,-3.63867 -2.94565,0 -4.45247,1.9332 -5.78125,3.63867 -1.27803,1.6401 -2.48478,3.18946 -4.85937,3.18946 -2.37373,0 -3.58025,-1.54936 -4.85742,-3.18946 -1.33047,-1.70547 -2.83667,-3.63867 -5.78321,-3.63867 -2.94648,0 -4.45248,1.9332 -5.78125,3.63867 -1.27804,1.6401 -2.48564,3.18946 -4.85937,3.18946 -2.37372,0 -3.58027,-1.54936 -4.85742,-3.18946 -1.32965,-1.70547 -2.83669,-3.63867 -5.78321,-3.63867 -2.94647,0 -4.45248,1.9332 -5.78125,3.63867 -1.27803,1.6401 -2.48369,3.18946 -4.85742,3.18946 -2.37415,0 -3.58188,-1.54936 -4.85937,-3.18946 -1.32928,-1.70547 -2.83694,-3.63867 -5.78321,-3.63867 -2.94633,0 -4.45206,1.9332 -5.78125,3.63867 -1.27777,1.6401 -2.48335,3.18946 -4.85742,3.18946 -2.37415,0 -3.58178,-1.54936 -4.85937,-3.18946 -1.32928,-1.70547 -2.83507,-3.63867 -5.78125,-3.63867 -2.94614,0 -4.45393,1.9332 -5.78321,3.63867 -1.27761,1.6401 -2.48326,3.18946 -4.85742,3.18946 -2.37407,0 -3.58179,-1.54936 -4.85937,-3.18946 -1.3293,-1.70547 -2.83705,-3.63867 -5.78321,-3.63867 -2.94609,0 -4.45207,1.9332 -5.78125,3.63867 -1.27759,1.6401 -2.48529,3.18946 -4.85937,3.18946 -2.37407,0 -3.57984,-1.54936 -4.85742,-3.18946 -1.3293,-1.70547 -2.83703,-3.63867 -5.78321,-3.63867 -2.94615,0 -4.45196,1.9332 -5.78125,3.63867 -1.2776,1.6401 -2.4853,3.18946 -4.85937,3.18946 -2.37406,0 -3.57984,-1.54936 -4.85742,-3.18946 -1.3292,-1.70547 -2.83714,-3.63867 -5.78321,-3.63867 -2.94616,0 -4.45196,1.9332 -5.78125,3.63867 -1.27759,1.6401 -2.48531,3.18946 -4.85937,3.18946 -2.37415,0 -3.57983,-1.54936 -4.85742,-3.18946 -1.32928,-1.70547 -2.83704,-3.63867 -5.78321,-3.63867 -2.94616,0 -4.45197,1.9332 -5.78125,3.63867 -1.27759,1.6401 -2.48327,3.18946 -4.85742,3.18946 -2.37407,0 -3.58161,-1.54936 -4.85937,-3.18946 -1.3292,-1.70547 -2.83491,-3.63867 -5.78125,-3.63867 -2.94626,0 -4.45394,1.9332 -5.78321,3.63867 -1.27753,1.6401 -2.48326,3.18946 -4.85742,3.18946 -2.37373,0 -3.58136,-1.54936 -4.85937,-3.18946 -1.32878,-1.70547 -2.83474,-3.63867 -5.78125,-3.63867 -2.94651,0 -4.45358,1.9332 -5.78321,3.63867 -1.27715,1.6401 -2.4837,3.18946 -4.85742,3.18946 -2.37373,0 -3.58135,-1.54936 -4.85937,-3.18946 -1.32877,-1.70547 -2.83476,-3.63867 -5.78125,-3.63867 -2.94652,0 -4.45272,1.9332 -5.78321,3.63867 -1.27718,1.6401 -2.4837,3.18946 -4.85742,3.18946 -2.37458,0 -3.58135,-1.54936 -4.85937,-3.18946 -1.32877,-1.70547 -2.83561,-3.63867 -5.78125,-3.63867 -2.94565,0 -4.45444,1.9332 -5.78321,3.63867 -1.27802,1.64011 -2.48479,3.18946 -4.85937,3.18946 -2.37371,0 -3.58027,-1.54935 -4.85742,-3.18946 -1.3305,-1.70547 -2.83671,-3.63867 -5.78321,-3.63867 -2.94652,0 -4.45248,1.9332 -5.78125,3.63867 -1.27803,1.64011 -2.48564,3.18946 -4.85937,3.18946 -2.37373,0 -3.580255,-1.54935 -4.857427,-3.18946 -1.329628,-1.70547 -2.836687,-3.63867 -5.783204,-3.63867 -2.946516,0 -4.452482,1.9332 -5.78125,3.63867 -1.278028,1.64011 -2.483695,3.18946 -4.857421,3.18946 -2.374157,0 -3.581867,-1.54935 -4.859375,-3.18946 -1.329288,-1.70547 -2.834994,-3.63867 -5.78125,-3.63867 -2.946346,0 -4.454006,1.9332 -5.783204,3.63867 -1.277758,1.64011 -2.483364,3.18946 -4.857421,3.18946 -2.374157,0 -3.581788,-1.54935 -4.859375,-3.18946 -1.329289,-1.70547 -2.835084,-3.63867 -5.78125,-3.63867 -2.946166,0 -4.453915,1.9332 -5.783204,3.63867 -1.277598,1.64011 -2.483274,3.18946 -4.857421,3.18946 -2.374067,0 -3.581777,-1.54935 -4.859375,-3.18946 -1.329279,-1.70547 -2.837037,-3.63867 -5.783204,-3.63867 -2.946087,0 -4.452051,1.9332 -5.78125,3.63867 -1.277597,1.64011 -2.485308,3.18946 -4.859374,3.18946 -2.374068,0 -3.579824,-1.54935 -4.857422,-3.18946 -1.236913,-1.58696 -2.677288,-3.30649 -5.2382817,-3.54687 -0.2080314,-2.61632 -1.9947853,-4.04017 -3.5996094,-5.29102 -1.6402511,-1.27772 -3.1894531,-2.48508 -3.1894531,-4.85937 0,-2.37429 1.549202,-3.57971 3.1894531,-4.85742 C 6.0650075,239.15505 8,237.64752 8,234.70117 c 0,-2.94646 -1.9349925,-4.45379 -3.640625,-5.7832 -1.6402511,-1.27772 -3.1894531,-2.48509 -3.1894531,-4.85938 0,-2.37437 1.549202,-3.5797 3.1894531,-4.85742 C 6.0650075,217.87176 8,216.36441 8,213.41797 c 0,-2.94646 -1.9349925,-4.45381 -3.640625,-5.7832 -1.6402511,-1.27772 -3.1894531,-2.485 -3.1894531,-4.85938 0,-2.3743 1.549202,-3.57952 3.1894531,-4.85742 C 6.0650075,196.58864 8,195.08139 8,192.13477 c 0,-2.94654 -1.9349925,-4.4538 -3.640625,-5.78321 -1.6402511,-1.27764 -3.1894531,-2.48498 -3.1894531,-4.85937 0,-2.37394 1.549202,-3.57929 3.1894531,-4.85742 C 6.0650075,175.30587 8,173.79835 8,170.85156 c 0,-2.94678 -1.9349925,-4.45345 -3.640625,-5.7832 -1.6402511,-1.27729 -3.1894531,-2.48347 -3.1894531,-4.85742 0,-2.37395 1.549202,-3.58123 3.1894531,-4.85938 C 6.0650075,154.02266 8,152.51515 8,149.56836 c 0,-2.94679 -1.9349925,-4.4526 -3.640625,-5.7832 -1.6402511,-1.2773 -3.1894531,-2.48349 -3.1894531,-4.85743 0,-2.3748 1.549202,-3.58318 3.1894531,-4.86132 C 6.0650075,132.73751 8,131.2311 8,128.28516 8,125.33924 6.0650075,123.83085 4.359375,122.50195 2.7191137,121.2238 1.1699219,120.0174 1.1699219,117.64258 c 0,-2.37395 1.5491918,-3.58014 3.1894531,-4.85742 C 6.0650075,111.45454 8,109.94678 8,107 8,104.0532 6.0650075,102.54765 4.359375,101.21875 2.7191137,99.940605 1.1699219,98.733324 1.1699219,96.359375 1.1699219,93.985423 2.7191137,92.777288 4.359375,91.5 6.0650075,90.170253 8,88.665543 8,85.71875 8,82.771955 6.0650075,81.264441 4.359375,79.935547 2.7191137,78.657398 1.1699219,77.450121 1.1699219,75.076172 c 0,-2.374375 1.5491918,-3.581745 3.1894531,-4.859375 C 6.0650075,68.887387 8,67.380127 8,64.433594 8,61.486975 6.0650075,59.981667 4.359375,58.652344 2.7191137,57.374455 1.1699219,56.16726 1.1699219,53.792969 c 0,-2.374378 1.5491918,-3.58166 3.1894531,-4.859375 C 6.0650075,47.604181 8,46.09879 8,43.152344 8,40.205896 6.0650075,38.698552 4.359375,37.369141 2.7191137,36.091424 1.1699219,34.884142 1.1699219,32.509766 c 0,-2.374293 1.5491918,-3.581659 3.1894531,-4.859375 C 6.0650075,26.320981 8,24.815587 8,21.869141 8,18.922779 6.0650075,17.415263 4.359375,16.085938 2.7191137,14.808222 1.1699219,13.600853 1.1699219,11.226562 1.1699219,8.8522711 2.7191137,7.6449038 4.359375,6.3671875 6.0650075,5.0377775 8,3.5323866 8,0.5859375 8,0.26261689 7.7374677,0 7.4140625,0 Z" />
</svg>
