<?xml version="1.0" encoding="UTF-8" standalone="no"?>
<svg
   version="1.1"
   x="0px"
   y="0px"
   viewBox="0 0 1601.875 394.1738"
   xml:space="preserve"
   id="svg4"
   width="1601.875"
   height="394.17383"
   xmlns="http://www.w3.org/2000/svg"
   xmlns:svg="http://www.w3.org/2000/svg"><defs
     id="defs4" /><path
     id="path1"
     style="stroke-width:1.29028"
     d="m 13.419922,0 c 0,3.47581 -2.828686,5.24144 -6.103516,7.28711 C 3.887221,9.42917 0,11.85905 0,16.76562 c 0,4.90784 3.888542,7.33583 7.318359,9.47852 3.274198,2.04631 6.101563,3.81394 6.101563,7.29102 0,3.47895 -2.828686,5.24605 -6.103516,7.29296 C 3.887221,42.97207 0,45.40013 0,50.308594 c 0,4.907845 3.887221,7.337782 7.316406,9.480468 3.27483,2.046291 6.103516,3.813953 6.103516,7.291016 0,3.480215 -2.828686,5.246736 -6.103516,7.294922 C 3.887221,76.518948 0,78.950972 0,83.861328 c 0,4.910356 3.887221,7.340425 7.316406,9.484375 3.27483,2.048187 6.103516,3.816663 6.103516,7.296877 0,3.4758 -2.828686,5.24144 -6.103516,7.28711 C 3.887221,110.07174 0,112.49968 0,117.40625 c 0,4.90782 3.888542,7.33779 7.318359,9.48047 3.274198,2.0463 6.101563,3.81201 6.101563,7.28906 0,3.47895 -2.828686,5.24799 -6.103516,7.29492 C 3.887221,143.61466 0,146.04272 0,150.95117 c 0,4.90783 3.887221,7.33778 7.316406,9.48047 3.27483,2.04631 6.103516,3.812 6.103516,7.28906 0,3.48024 -2.828686,5.24869 -6.103516,7.29688 C 3.887221,177.16154 0,179.59159 0,184.50195 c 0,4.91036 3.887221,7.34236 7.316406,9.48633 3.27483,2.0482 6.103516,3.81469 6.103516,7.29492 0,3.47582 -2.828686,5.2434 -6.103516,7.28907 C 3.887221,210.71431 0,213.1442 0,218.05078 c 0,4.90784 3.888542,7.3339 7.318359,9.47656 3.274198,2.04633 6.101563,3.81397 6.101563,7.29102 0,3.47896 -2.828686,5.24603 -6.103516,7.29297 C 3.887221,244.25527 0,246.68334 0,251.5918 c 0,4.90782 3.887221,7.33778 7.316406,9.48047 3.27483,2.0463 6.103516,3.81393 6.103516,7.29101 0,3.48022 -2.828686,5.24675 -6.103516,7.29492 C 3.887221,277.80216 0,280.23418 0,285.14453 c 0,4.91037 3.887221,7.34237 7.316406,9.48633 3.27483,2.04819 6.103516,3.8147 6.103516,7.29492 0,3.4758 -2.828686,5.24144 -6.103516,7.28711 C 3.887221,311.35495 0,313.78289 0,318.68945 c 0,4.90785 3.888542,7.33779 7.318359,9.48047 3.274198,2.04631 6.101563,3.81396 6.101563,7.29102 0,3.47894 -2.828686,5.24603 -6.103516,7.29297 C 3.887221,344.89785 0,347.32591 0,352.23438 c 0,4.90783 3.887221,7.33779 7.316406,9.48046 3.27483,2.04631 6.103516,3.81395 6.103516,7.29102 0,3.48024 -2.828686,5.24673 -6.103516,7.29492 C 3.887221,378.44475 0,380.87673 0,385.78711 c 0,2.45029 0.430264,4.28964 2.164062,6.02344 1.768321,1.76832 3.708897,2.36328 6.203126,2.36328 5.46342,0 7.213244,-3.74468 9.480468,-7.32227 2.046298,-3.27419 3.813919,-6.10156 7.291016,-6.10156 3.478896,0 5.246071,2.8287 7.292969,6.10352 2.143997,3.42918 4.572073,7.3164 9.480468,7.3164 4.907895,0 7.337771,-3.88722 9.480469,-7.3164 C 53.43888,383.5787 55.2065,380.75 58.68359,380.75 c 3.4802,0 5.24673,2.8287 7.29493,6.10352 2.14399,3.42918 4.57593,7.3164 9.48632,7.3164 4.9103,0 7.34048,-3.88722 9.48438,-7.3164 2.0482,-3.27482 3.81668,-6.10352 7.29687,-6.10352 3.4758,0 5.24142,2.8287 7.28711,6.10352 2.1421,3.42918 4.56997,7.3164 9.47657,7.3164 4.90779,0 7.33787,-3.88854 9.48046,-7.31836 2.0463,-3.27419 3.81207,-6.10156 7.28907,-6.10156 3.47899,0 5.24802,2.8287 7.29492,6.10352 2.144,3.42918 4.57207,7.3164 9.48047,7.3164 4.90779,0 7.33777,-3.88722 9.48047,-7.3164 2.04629,-3.27482 3.81206,-6.10352 7.28906,-6.10352 3.4803,0 5.24868,2.8287 7.29687,6.10352 2.144,3.42918 4.57398,7.3164 9.48438,7.3164 4.91029,0 7.34233,-3.88722 9.48633,-7.3164 2.04819,-3.27482 3.81472,-6.10352 7.29492,-6.10352 3.4758,0 5.24336,2.8287 7.28906,6.10352 2.142,3.42918 4.57192,7.3164 9.47852,7.3164 4.90789,0 7.33386,-3.88854 9.47656,-7.31836 2.0463,-3.27419 3.81392,-6.10156 7.29102,-6.10156 3.47899,0 5.24597,2.8287 7.29296,6.10352 2.1439,3.42918 4.57208,7.3164 9.48047,7.3164 4.9079,0 7.33777,-3.88722 9.48047,-7.3164 2.0463,-3.27482 3.81392,-6.10352 7.29102,-6.10352 3.48019,0 5.24672,2.8287 7.29492,6.10352 2.144,3.42918 4.57593,7.3164 9.48633,7.3164 4.91029,0 7.34233,-3.88722 9.48633,-7.3164 2.04819,-3.27482 3.81472,-6.10352 7.29492,-6.10352 3.47579,0 5.24336,2.8287 7.28906,6.10352 2.142,3.42918 4.56801,7.3164 9.47461,7.3164 4.90779,0 7.33787,-3.88854 9.48047,-7.31836 2.0464,-3.27419 3.81392,-6.10156 7.29101,-6.10156 3.4789,0 5.24607,2.8287 7.29297,6.10352 2.144,3.42918 4.57208,7.3164 9.48047,7.3164 4.9079,0 7.33777,-3.88722 9.48047,-7.3164 2.0463,-3.27482 3.81392,-6.10352 7.29102,-6.10352 3.48019,0 5.24672,2.8287 7.29492,6.10352 2.14399,3.42918 4.57603,7.3164 9.48632,7.3164 4.9104,0 7.34038,-3.88722 9.48438,-7.3164 2.0482,-3.27482 3.81658,-6.10352 7.29688,-6.10352 3.47579,0 5.24141,2.8287 7.2871,6.10352 2.1421,3.42918 4.57192,7.3164 9.47852,7.3164 4.9079,0 7.33592,-3.88854 9.47852,-7.31836 2.04629,-3.27419 3.81401,-6.10156 7.29101,-6.10156 3.479,0 5.24607,2.8287 7.29297,6.10352 2.144,3.42918 4.57197,7.3164 9.48047,7.3164 4.90779,0 7.33787,-3.88722 9.48047,-7.3164 2.0464,-3.27482 3.81392,-6.10352 7.29101,-6.10352 3.4802,0 5.24673,2.8287 7.29493,6.10352 2.14389,3.42918 4.57397,7.3164 9.48437,7.3164 4.9103,0 7.34233,-3.88722 9.48633,-7.3164 2.0482,-3.27482 3.81472,-6.10352 7.29492,-6.10352 3.4758,0 5.24336,2.8287 7.28906,6.10352 2.142,3.42918 4.56802,7.3164 9.47461,7.3164 4.9078,0 7.33787,-3.88854 9.48047,-7.31836 2.0464,-3.27419 3.81392,-6.10156 7.29102,-6.10156 3.47889,0 5.24607,2.8287 7.29296,6.10352 2.14399,3.42918 4.57204,7.3164 9.48047,7.3164 4.90785,0 7.33778,-3.88722 9.48047,-7.3164 2.0463,-3.27482 3.81395,-6.10352 7.29102,-6.10352 3.48022,0 5.24868,2.8287 7.29687,6.10352 2.14397,3.42918 4.57402,7.3164 9.48438,7.3164 4.91037,0 7.34235,-3.88722 9.48633,-7.3164 2.04818,-3.27482 3.81469,-6.10352 7.29492,-6.10352 3.47581,0 5.24339,2.8287 7.28906,6.10352 2.14206,3.42918 4.56998,7.3164 9.47656,7.3164 4.90785,0 7.33588,-3.88854 9.47852,-7.31836 2.04631,-3.27419 3.81398,-6.10156 7.29101,-6.10156 3.47897,0 5.24603,2.8287 7.29297,6.10352 2.14395,3.42918 4.57205,7.3164 9.48047,7.3164 4.90785,0 7.33778,-3.88722 9.48047,-7.3164 2.04631,-3.27482 3.81395,-6.10352 7.29102,-6.10352 3.48022,0 5.24673,2.8287 7.29492,6.10352 2.14396,3.42918 4.57596,7.3164 9.48633,7.3164 4.91036,0 7.34238,-3.88722 9.48632,-7.3164 2.0482,-3.27482 3.81471,-6.10352 7.29493,-6.10352 3.47581,0 5.24144,2.8287 7.28711,6.10352 2.14206,3.42918 4.56998,7.3164 9.47656,7.3164 4.90781,0 7.33782,-3.88854 9.48047,-7.31836 2.0463,-3.27419 3.81398,-6.10156 7.29101,-6.10156 3.47895,0 5.24603,2.8287 7.29297,6.10352 2.14395,3.42918 4.57204,7.3164 9.48047,7.3164 4.90786,0 7.33778,-3.88722 9.48047,-7.3164 2.0463,-3.27482 3.81394,-6.10352 7.29101,-6.10352 3.48024,0 5.24674,2.8287 7.29493,6.10352 2.14396,3.42918 4.57595,7.3164 9.48632,7.3164 4.91036,0 7.34042,-3.88722 9.48438,-7.3164 2.0482,-3.27482 3.81664,-6.10352 7.29687,-6.10352 3.47582,0 5.24145,2.8287 7.28711,6.10352 2.14205,3.42918 4.57195,7.3164 9.47852,7.3164 4.90783,0 7.33585,-3.88854 9.47852,-7.31836 2.0463,-3.27419 3.81201,-6.10156 7.28906,-6.10156 3.47896,0 5.24603,2.8287 7.29297,6.10352 2.14394,3.42918 4.57202,7.3164 9.48047,7.3164 4.90784,0 7.33973,-3.88722 9.48242,-7.3164 2.0463,-3.27482 3.812,-6.10352 7.28906,-6.10352 3.48022,0 5.24869,2.8287 7.29687,6.10352 2.14395,3.42918 4.57403,7.3164 9.48438,7.3164 4.91036,0 7.34238,-3.88722 9.48633,-7.3164 2.04819,-3.27482 3.81472,-6.10352 7.29492,-6.10352 3.4758,0 5.24338,2.8287 7.28906,6.10352 2.14204,3.42918 4.56802,7.3164 9.47461,7.3164 4.90781,0 7.33781,-3.88854 9.48047,-7.31836 2.04631,-3.27419 3.81402,-6.10156 7.29102,-6.10156 3.47899,0 5.24607,2.8287 7.29296,6.10352 2.144,3.42918 4.57198,7.3164 9.48047,7.3164 4.90775,0 7.33775,-3.88722 9.48045,-7.3164 2.0463,-3.27482 3.814,-6.10352 7.291,-6.10352 3.4803,0 5.2468,2.8287 7.295,6.10352 2.1439,3.42918 4.576,7.3164 9.4863,7.3164 4.9104,0 7.3424,-3.88722 9.4863,-7.3164 2.0482,-3.27482 3.8146,-6.10352 7.2949,-6.10352 3.4758,0 5.2414,2.8287 7.2871,6.10352 2.142,3.42918 4.5721,7.3164 9.4786,7.3164 4.9078,0 7.3359,-3.88854 9.4785,-7.31836 2.0463,-3.27419 3.814,-6.10156 7.291,-6.10156 3.479,0 5.2461,2.8287 7.293,6.10352 2.144,3.42918 4.5719,7.3164 9.4804,7.3164 4.9078,0 7.3378,-3.88722 9.4805,-7.3164 2.0463,-3.27482 3.8139,-6.10352 7.291,-6.10352 3.4802,0 5.2467,2.8287 7.2949,6.10352 2.1439,3.42918 4.5762,7.3164 9.4864,7.3164 4.9104,0 7.3404,-3.88722 9.4843,-7.3164 2.0482,-3.27482 3.8166,-6.10352 7.2969,-6.10352 3.4758,0 5.2415,2.8287 7.2871,6.10352 2.1421,3.42918 4.57,7.3164 9.4766,7.3164 4.9078,0 7.3378,-3.88854 9.4805,-7.31836 2.0463,-3.27419 3.812,-6.10156 7.289,-6.10156 3.479,0 5.248,2.8287 7.2949,6.10352 2.144,3.42918 4.572,7.3164 9.4805,7.3164 4.9078,0 7.3378,-3.88722 9.4805,-7.3164 2.0463,-3.27482 3.8119,-6.10352 7.289,-6.10352 3.4802,0 5.2487,2.8287 7.2969,6.10352 2.144,3.42918 4.5741,7.3164 9.4844,7.3164 4.9104,0 7.3423,-3.88722 9.4863,-7.3164 2.0482,-3.27482 3.8146,-6.10352 7.2949,-6.10352 3.4758,0 5.2435,2.8287 7.2891,6.10352 2.1421,3.42918 4.5719,7.3164 9.4785,7.3164 4.9078,0 7.3339,-3.88854 9.4766,-7.31836 2.0463,-3.27419 3.8139,-6.10156 7.291,-6.10156 3.479,0 5.2462,2.8287 7.293,6.10352 2.144,3.42918 4.572,7.3164 9.4804,7.3164 4.9079,0 7.3378,-3.88722 9.4805,-7.3164 2.0463,-3.27482 3.8139,-6.10352 7.291,-6.10352 3.4802,0 5.2467,2.8287 7.2949,6.10352 2.144,3.42918 4.5761,7.3164 9.4864,7.3164 4.9103,0 7.3424,-3.88722 9.4863,-7.3164 2.0482,-3.27482 3.8147,-6.10352 7.2949,-6.10352 3.4758,0 5.2435,2.8287 7.2891,6.10352 2.1421,3.42918 4.5681,7.3164 9.4746,7.3164 4.9079,0 7.3379,-3.88854 9.4805,-7.31836 2.0464,-3.27419 3.814,-6.10156 7.291,-6.10156 3.479,0 5.2459,2.8287 7.2929,6.10352 2.1439,3.42918 4.5721,7.3164 9.4805,7.3164 4.9078,0 7.3379,-3.88722 9.4805,-7.3164 2.0463,-3.27482 3.814,-6.10352 7.291,-6.10352 3.4803,0 5.2468,2.8287 7.2949,6.10352 2.144,3.42918 4.5761,7.3164 9.4863,7.3164 4.9104,0 7.3405,-3.88722 9.4844,-7.3164 2.0482,-3.27482 3.8167,-6.10352 7.2969,-6.10352 3.4759,0 5.2414,2.8287 7.2871,6.10352 2.1421,3.42918 4.5719,7.3164 9.4785,7.3164 4.908,0 7.3359,-3.88854 9.4785,-7.31836 2.0464,-3.27419 3.8141,-6.10156 7.2911,-6.10156 3.4789,0 5.2459,2.8287 7.2929,6.10352 2.1439,3.42918 4.5721,7.3164 9.4805,7.3164 4.9078,0 7.3378,-3.88722 9.4805,-7.3164 2.0462,-3.27482 3.8139,-6.10352 7.291,-6.10352 3.4801,0 5.2467,2.8287 7.2949,6.10352 2.144,3.42918 4.5741,7.3164 9.4844,7.3164 4.9105,0 7.3423,-3.88722 9.4863,-7.3164 2.0482,-3.27482 3.8146,-6.10352 7.2949,-6.10352 3.4758,0 5.2435,2.8287 7.2891,6.10352 2.1422,3.42918 4.5681,7.3164 9.4746,7.3164 4.9079,0 7.3379,-3.88854 9.4805,-7.31836 2.0464,-3.27419 3.814,-6.10156 7.291,-6.10156 3.479,0 5.2459,2.8287 7.2929,6.10352 2.1439,3.42918 4.5721,7.3164 9.4805,7.3164 4.9078,0 7.3378,-3.88722 9.4805,-7.3164 2.0462,-3.27482 3.8139,-6.10352 7.291,-6.10352 3.4803,0 5.2487,2.8287 7.2969,6.10352 2.144,3.42918 4.5741,7.3164 9.4844,7.3164 4.9104,0 7.3423,-3.88722 9.4863,-7.3164 2.0482,-3.27482 3.8146,-6.10352 7.2949,-6.10352 v -2.58008 c -4.9104,0 -7.3404,3.88528 -9.4844,7.31446 -2.0482,3.27482 -3.8166,6.10351 -7.2968,6.10351 -3.4801,0 -5.2468,-2.82869 -7.295,-6.10351 -2.1438,-3.42918 -4.576,-7.31446 -9.4863,-7.31446 -4.9079,0 -7.3378,3.88528 -9.4805,7.31446 -2.0463,3.27482 -3.8139,6.10351 -7.291,6.10351 -3.4782,0 -5.242,-2.82869 -7.289,-6.10351 -2.1438,-3.42918 -4.5753,-7.31446 -9.4844,-7.31446 -4.9072,0 -7.3378,3.88528 -9.4805,7.31446 -2.0464,3.27482 -3.81,6.10351 -7.2871,6.10351 -3.4758,0 -5.2434,-2.82869 -7.2891,-6.10351 -2.142,-3.42918 -4.5719,-7.31446 -9.4785,-7.31446 -4.9104,0 -7.3385,3.88528 -9.4824,7.31446 -2.0482,3.27482 -3.8185,6.10351 -7.2988,6.10351 -3.4801,0 -5.2468,-2.82869 -7.295,-6.10351 -2.1438,-3.42918 -4.574,-7.31446 -9.4843,-7.31446 -4.9079,0 -7.3396,3.88528 -9.4824,7.31446 -2.0463,3.27482 -3.8119,6.10351 -7.2891,6.10351 -3.4782,0 -5.2461,-2.82869 -7.293,-6.10351 -2.1439,-3.42918 -4.5714,-7.31446 -9.4804,-7.31446 -4.9072,0 -7.3378,3.88528 -9.4805,7.31446 -2.0463,3.27482 -3.8119,6.10351 -7.2891,6.10351 -3.4758,0 -5.2415,-2.82869 -7.2871,-6.10351 -2.142,-3.42918 -4.5719,-7.31446 -9.4785,-7.31446 -4.9104,0 -7.3422,3.88528 -9.4863,7.31446 -2.0482,3.27482 -3.8148,6.10351 -7.295,6.10351 -3.4801,0 -5.2486,-2.82869 -7.2968,-6.10351 -2.1438,-3.42918 -4.5741,-7.31446 -9.4844,-7.31446 -4.9078,0 -7.3377,3.88528 -9.4805,7.31446 -2.0463,3.27482 -3.8138,6.10351 -7.291,6.10351 -3.4782,0 -5.244,-2.82869 -7.291,-6.10351 -2.1438,-3.42918 -4.5732,-7.31446 -9.4824,-7.31446 -4.9072,0 -7.3379,3.88528 -9.4805,7.31446 -2.0464,3.27482 -3.8119,6.10351 -7.2891,6.10351 -3.4758,0 -5.2415,-2.82869 -7.2871,-6.10351 -2.1422,-3.42918 -4.5719,-7.31446 -9.4785,-7.31446 -4.9104,0 -7.3385,3.88528 -9.4824,7.31446 -2.0482,3.27482 -3.8187,6.10351 -7.2988,6.10351 -3.4802,0 -5.2468,-2.82869 -7.295,-6.10351 -2.144,-3.42918 -4.5759,-7.31446 -9.4863,-7.31446 -4.9078,0 -7.3378,3.88528 -9.4805,7.31446 -2.0461,3.27482 -3.8139,6.10351 -7.291,6.10351 -3.4782,0 -5.246,-2.82869 -7.2929,-6.10351 -2.1439,-3.42918 -4.5714,-7.31446 -9.4805,-7.31446 -4.9072,0 -7.3378,3.88528 -9.4805,7.31446 -2.0463,3.27482 -3.8101,6.10351 -7.2871,6.10351 -3.4759,0 -5.2433,-2.82869 -7.289,-6.10351 -2.1421,-3.42918 -4.5721,-7.31446 -9.4786,-7.31446 -4.9104,0 -7.3405,3.88528 -9.4843,7.31446 -2.0482,3.27482 -3.8166,6.10351 -7.2969,6.10351 -3.4802,0 -5.2467,-2.82869 -7.2949,-6.10351 -2.1439,-3.42918 -4.576,-7.31446 -9.4864,-7.31446 -4.9078,0 -7.3376,3.88528 -9.4804,7.31446 -2.0462,3.27482 -3.8121,6.10351 -7.2891,6.10351 -3.4783,0 -5.2441,-2.82869 -7.291,-6.10351 -2.1439,-3.42918 -4.5753,-7.31446 -9.4844,-7.31446 -4.9072,0 -7.3378,3.88528 -9.4804,7.31446 -2.0463,3.27482 -3.8102,6.10351 -7.2872,6.10351 -3.4759,0 -5.2433,-2.82869 -7.289,-6.10351 -2.1421,-3.42918 -4.57,-7.31446 -9.4766,-7.31446 -4.9104,0 -7.3404,3.88528 -9.4844,7.31446 -2.0482,3.27482 -3.8165,6.10351 -7.2968,6.10351 -3.4801,0 -5.2487,-2.82869 -7.2969,-6.10351 -2.1439,-3.42918 -4.574,-7.31446 -9.4844,-7.31446 -4.9078,0 -7.3378,3.88528 -9.4805,7.31446 -2.0463,3.27482 -3.8139,6.10351 -7.291,6.10351 -3.4783,0 -5.246,-2.82869 -7.2929,-6.10351 -2.144,-3.42918 -4.5714,-7.31446 -9.4805,-7.31446 -4.9072,0 -7.3378,3.88528 -9.4805,7.31446 -2.0463,3.27482 -3.8119,6.10351 -7.289,6.10351 -3.4757,0 -5.2414,-2.82869 -7.2871,-6.10351 -2.1421,-3.42918 -4.572,-7.31446 -9.4786,-7.31446 -4.9104,0 -7.3423,3.88528 -9.4863,7.31446 -2.0482,3.27482 -3.8146,6.10351 -7.2949,6.10351 -3.4802,0 -5.2468,-2.82869 -7.2949,-6.10351 -2.1439,-3.42918 -4.576,-7.31446 -9.4864,-7.31446 -4.9078,0 -7.3377,3.88528 -9.4804,7.31446 -2.0463,3.27482 -3.81395,6.10351 -7.29105,6.10351 -3.47829,0 -5.24411,-2.82869 -7.29101,-6.10351 -2.1439,-3.42918 -4.57335,-7.31446 -9.48242,-7.31446 -4.90717,0 -7.33778,3.88528 -9.48047,7.31446 -2.04631,3.27482 -3.81005,6.10351 -7.28711,6.10351 -3.47581,0 -5.24339,-2.82869 -7.28906,-6.10351 -2.14204,-3.42918 -4.57195,-7.31446 -9.47852,-7.31446 -4.91035,0 -7.33846,3.88528 -9.48242,7.31446 -2.04819,3.27482 -3.8186,6.10351 -7.29883,6.10351 -3.48021,0 -5.24672,-2.82869 -7.29492,-6.10351 -2.14393,-3.42918 -4.57598,-7.31446 -9.48633,-7.31446 -4.90782,0 -7.33778,3.88528 -9.48047,7.31446 -2.04627,3.27482 -3.81393,6.10351 -7.29101,6.10351 -3.4783,0 -5.24605,-2.82869 -7.29297,-6.10351 -2.14396,-3.42918 -4.57136,-7.31446 -9.48047,-7.31446 -4.90719,0 -7.33779,3.88528 -9.48047,7.31446 -2.0463,3.27482 -3.81005,6.10351 -7.28711,6.10351 -3.47582,0 -5.2434,-2.82869 -7.28906,-6.10351 -2.14205,-3.42918 -4.57,-7.31446 -9.47657,-7.31446 -4.91036,0 -7.34237,3.88528 -9.48632,7.31446 -2.0482,3.27482 -3.81469,6.10351 -7.29493,6.10351 -3.48023,0 -5.24868,-2.82869 -7.29687,-6.10351 -2.1439,-3.42918 -4.57401,-7.31446 -9.48438,-7.31446 -4.9078,0 -7.33776,3.88528 -9.48046,7.31446 -2.04626,3.27482 -3.81394,6.10351 -7.29102,6.10351 -3.47828,0 -5.24409,-2.82869 -7.29102,-6.10351 -2.1439,-3.42918 -4.57332,-7.31446 -9.48242,-7.31446 -4.90718,0 -7.33778,3.88528 -9.48047,7.31446 -2.0463,3.27482 -3.81199,6.10351 -7.28906,6.10351 -3.47583,0 -5.24144,-2.82869 -7.28711,-6.10351 -2.14206,-3.42918 -4.57192,-7.31446 -9.47851,-7.31446 -4.91036,0 -7.33848,3.88528 -9.48243,7.31446 -2.04819,3.27482 -3.81861,6.10351 -7.29882,6.10351 -3.48023,0 -5.24674,-2.82869 -7.29493,-6.10351 -2.14391,-3.42918 -4.57595,-7.31446 -9.48632,-7.31446 -4.90781,0 -7.33776,3.88528 -9.48047,7.31446 -2.04626,3.27482 -3.81393,6.10351 -7.29102,6.10351 -3.47828,0 -5.24604,-2.82869 -7.29297,-6.10351 -2.14395,-3.42918 -4.57136,-7.31446 -9.48047,-7.31446 -4.90718,0 -7.33778,3.88528 -9.48046,7.31446 -2.04631,3.27482 -3.812,6.10351 -7.28907,6.10351 -3.47582,0 -5.24143,-2.82869 -7.28711,-6.10351 -2.14205,-3.42918 -4.57193,-7.31446 -9.47851,-7.31446 -4.91037,0 -7.34042,3.88528 -9.48438,7.31446 -2.04818,3.27482 -3.81664,6.10351 -7.29687,6.10351 -3.48023,0 -5.24674,-2.82869 -7.29492,-6.10351 -2.14391,-3.42918 -4.57597,-7.31446 -9.48633,-7.31446 -4.9078,0 -7.33776,3.88528 -9.48047,7.31446 -2.04625,3.27482 -3.81396,6.10351 -7.29102,6.10351 -3.47828,0 -5.24214,-2.82869 -7.28906,-6.10351 -2.14394,-3.42918 -4.57528,-7.31446 -9.48437,-7.31446 -4.9072,0 -7.33777,3.88528 -9.48047,7.31446 -2.0463,3.27482 -3.81002,6.10351 -7.28711,6.10351 -3.4758,0 -5.24337,-2.82869 -7.28906,-6.10351 -2.142,-3.42918 -4.57192,-7.31446 -9.47852,-7.31446 -4.9104,0 -7.33852,3.88528 -9.48242,7.31446 -2.0482,3.27482 -3.81863,6.10351 -7.29883,6.10351 -3.4803,0 -5.24672,-2.82869 -7.29492,-6.10351 -2.1439,-3.42918 -4.57408,-7.31446 -9.48438,-7.31446 -4.90789,0 -7.33972,3.88528 -9.48242,7.31446 -2.0462,3.27482 -3.81196,6.10351 -7.28906,6.10351 -3.4783,0 -5.24607,-2.82869 -7.29297,-6.10351 -2.1439,-3.42918 -4.57127,-7.31446 -9.48047,-7.31446 -4.90709,0 -7.33777,3.88528 -9.48047,7.31446 -2.0463,3.27482 -3.81196,6.10351 -7.28906,6.10351 -3.4758,0 -5.24141,-2.82869 -7.28711,-6.10351 -2.142,-3.42918 -4.57192,-7.31446 -9.47851,-7.31446 -4.9104,0 -7.34244,3.88528 -9.48633,7.31446 -2.0482,3.27482 -3.81463,6.10351 -7.29493,6.10351 -3.48019,0 -5.24867,-2.82869 -7.29687,-6.10351 -2.1439,-3.42918 -4.57408,-7.31446 -9.48437,-7.31446 -4.9078,0 -7.33778,3.88528 -9.48047,7.31446 -2.0462,3.27482 -3.81392,6.10351 -7.29102,6.10351 -3.4783,0 -5.24412,-2.82869 -7.29101,-6.10351 -2.1439,-3.42918 -4.57333,-7.31446 -9.48243,-7.31446 -4.90719,0 -7.33777,3.88528 -9.48047,7.31446 -2.04629,3.27482 -3.81196,6.10351 -7.28906,6.10351 -3.47579,0 -5.24141,-2.82869 -7.28711,-6.10351 -2.142,-3.42918 -4.57192,-7.31446 -9.47851,-7.31446 -4.9104,0 -7.33853,3.88528 -9.48242,7.31446 -2.0482,3.27482 -3.81864,6.10351 -7.29883,6.10351 -3.4803,0 -5.24673,-2.82869 -7.29493,-6.10351 -2.14389,-3.42918 -4.57593,-7.31446 -9.48632,-7.31446 -4.9078,0 -7.33777,3.88528 -9.48047,7.31446 -2.0462,3.27482 -3.81392,6.10351 -7.29102,6.10351 -3.47829,0 -5.24607,-2.82869 -7.29297,-6.10351 -2.14399,-3.42918 -4.57137,-7.31446 -9.48046,-7.31446 -4.9072,0 -7.33778,3.88528 -9.48047,7.31446 -2.0463,3.27482 -3.81002,6.10351 -7.28711,6.10351 -3.4758,0 -5.24337,-2.82869 -7.28907,-6.10351 -2.14199,-3.42918 -4.57192,-7.31446 -9.47851,-7.31446 -4.9103,0 -7.34048,3.88528 -9.48438,7.31446 -2.04819,3.27482 -3.81667,6.10351 -7.29687,6.10351 -3.4803,0 -5.24683,-2.82869 -7.29492,-6.10351 -2.144,-3.42918 -4.57594,-7.31446 -9.48633,-7.31446 -4.9078,0 -7.33777,3.88528 -9.48047,7.31446 -2.0463,3.27482 -3.81197,6.10351 -7.28906,6.10351 -3.4783,0 -5.24412,-2.82869 -7.29102,-6.10351 -2.1439,-3.42918 -4.57528,-7.31446 -9.48437,-7.31446 -4.9072,0 -7.33777,3.88528 -9.48047,7.31446 -2.0463,3.27482 -3.81001,6.10351 -7.28711,6.10351 -3.4758,0 -5.24347,-2.82869 -7.28906,-6.10351 -2.1421,-3.42918 -4.56997,-7.31446 -9.47657,-7.31446 -4.91039,0 -7.34037,3.88528 -9.48437,7.31446 -2.0482,3.27482 -3.81668,6.10351 -7.29688,6.10351 -3.48029,0 -5.24867,-2.82869 -7.29687,-6.10351 -2.144,-3.42918 -4.57398,-7.31446 -9.48438,-7.31446 -4.90779,0 -7.337767,3.88528 -9.480465,7.31446 -2.046298,3.27482 -3.813919,6.10351 -7.291016,6.10351 -3.478296,0 -5.24597,-2.82869 -7.292968,-6.10351 -2.143898,-3.42918 -4.571374,-7.31446 -9.480469,-7.31446 -4.907195,0 -7.337771,3.88528 -9.480469,7.31446 -2.046298,3.27482 -3.811966,6.10351 -7.289062,6.10351 v 0.006 h -0.002 c -1.968692,0 -2.859216,-0.24984 -4.234376,-1.625 -1.499577,-1.49957 -1.552734,-2.44642 -1.552734,-4.18164 0,-3.48024 2.828686,-5.24869 6.103516,-7.29688 3.429185,-2.14391 7.316406,-4.57402 7.316406,-9.48437 0,-4.90783 -3.887221,-7.33777 -7.316406,-9.48047 -3.27483,-2.04629 -6.103516,-3.81396 -6.103516,-7.29101 0,-3.47832 2.828686,-5.2441 6.103516,-7.29102 3.429185,-2.14394 7.316406,-4.57333 7.316406,-9.48242 0,-4.90721 -3.887221,-7.33778 -7.316406,-9.48047 -3.27483,-2.04631 -6.103516,-3.81201 -6.103516,-7.28906 0,-3.47583 2.828686,-5.24145 6.103516,-7.28711 3.429185,-2.14206 7.316406,-4.57193 7.316406,-9.47852 0,-4.91035 -3.887221,-7.33846 -7.316406,-9.48242 -3.27483,-2.04819 -6.103516,-3.81861 -6.103516,-7.29883 0,-3.48023 2.828686,-5.24673 6.103516,-7.29492 3.429185,-2.14393 7.316406,-4.57597 7.316406,-9.48633 0,-4.90782 -3.887221,-7.33776 -7.316406,-9.48047 -3.27483,-2.04628 -6.103516,-3.81394 -6.103516,-7.29101 0,-3.47831 2.828686,-5.24604 6.103516,-7.29297 C 12.112781,242.15486 16,239.72745 16,234.81836 c 0,-4.90721 -3.887221,-7.33779 -7.316406,-9.48047 -3.27483,-2.04631 -6.103516,-3.81004 -6.103516,-7.28711 0,-3.47581 2.828686,-5.2434 6.103516,-7.28906 C 12.112779,208.61966 16,206.18978 16,201.2832 c 0,-4.91036 -3.887221,-7.34042 -7.316406,-9.48437 -3.27483,-2.04819 -6.103516,-3.81665 -6.103516,-7.29688 0,-3.48023 2.828686,-5.24673 6.103516,-7.29492 C 12.112779,175.0631 16,172.63105 16,167.7207 c 0,-4.90782 -3.887221,-7.33777 -7.316406,-9.48047 -3.27483,-2.04628 -6.103516,-3.812 -6.103516,-7.28906 0,-3.47831 2.828686,-5.2441 6.103516,-7.29101 C 12.112779,141.51622 16,139.08488 16,134.17578 c 0,-4.9072 -3.887221,-7.33778 -7.316406,-9.48047 -3.27483,-2.0463 -6.103516,-3.81004 -6.103516,-7.28711 0,-3.47581 2.828686,-5.24339 6.103516,-7.28906 C 12.112779,107.97709 16,105.54915 16,100.64258 16,95.732222 12.112779,93.302153 8.683594,91.158203 5.408764,89.110016 2.580078,87.341542 2.580078,83.861328 c 0,-3.480212 2.828686,-5.24869 6.103516,-7.296875 C 12.112779,74.420501 16,71.990433 16,67.080078 16,62.172237 12.112779,59.74231 8.683594,57.599609 5.408764,55.553318 2.580078,53.785674 2.580078,50.308594 c 0,-3.47832 2.828686,-5.246054 6.103516,-7.292974 C 12.112779,40.87169 16,38.44426 16,33.53516 16,28.62794 12.112779,26.19738 8.683594,24.05469 5.408764,22.0084 2.580078,20.24268 2.580078,16.76562 c 0,-3.4758 2.828686,-5.24145 6.103516,-7.2871 C 12.112779,7.33646 16,4.90658 16,0 Z" /></svg>
