<?xml version="1.0" encoding="UTF-8" standalone="no"?>
<svg
   height="256.56931"
   width="8"
   version="1.1"
   id="svg1"
   xmlns="http://www.w3.org/2000/svg"
   xmlns:svg="http://www.w3.org/2000/svg">
  <defs
     id="defs1" />
  <path
     style="fill:#040606;fill-opacity:1;fill-rule:nonzero;stroke:none;stroke-width:0.00860128"
     d="M 8,0.58549627 C 8,0.26217534 7.737704,0 7.4142985,0 7.0908903,0 6.8284994,0.26217534 6.8284994,0.58549627 6.8284994,2.9598758 5.2803629,4.1667033 3.6400999,5.444421 1.9336166,6.7738322 0,8.2806791 0,11.227043 c 0,2.946451 1.9336166,4.45321 3.6400999,5.782621 1.640263,1.27772 3.1883995,2.48453 3.1883995,4.858825 0,2.374293 -1.5481365,3.581204 -3.1883995,4.858922 C 1.9336166,28.056823 0,29.56367 0,32.510034 c 0,2.946362 1.9336166,4.453194 3.6400999,5.78252 1.640263,1.277805 3.1883995,2.484646 3.1883995,4.859026 0,2.374379 -1.5481365,3.581207 -3.1883995,4.858921 C 1.9336166,49.34 0,50.846691 0,53.793225 c 0,2.946364 1.9336166,4.453299 3.6400999,5.782623 1.640263,1.277717 3.1883995,2.484514 3.1883995,4.858722 0,2.374206 -1.5481365,3.581694 -3.1883995,4.859327 C 1.9336166,70.623224 0,72.129608 0,75.076315 c 0,2.946795 1.9336166,4.452922 3.6400999,5.781817 1.640263,1.278151 3.1883995,2.485777 3.1883995,4.85973 0,2.373952 -1.5481365,3.580676 -3.1883995,4.858825 C 1.9336166,91.905585 0,93.412508 0,96.359307 c 0,2.946796 1.9336166,4.452873 3.6400999,5.782623 1.640263,1.27728 3.1883995,2.48412 3.1883995,4.85893 0,2.3748 -1.5481365,3.58148 -3.1883995,4.85962 C 1.9336166,113.18937 0,114.69637 0,117.6423 c 0,2.94678 1.9336166,4.45377 3.6400999,5.78353 1.640263,1.27729 3.1883995,2.48487 3.1883995,4.85881 0,2.37396 -1.5481365,3.58164 -3.1883995,4.85894 C 1.9336088,134.47332 0,135.98021 0,138.92701 c 0,2.94593 1.9336088,4.45292 3.6400999,5.78181 1.640263,1.27815 3.1883995,2.48491 3.1883995,4.85973 0,2.37481 -1.5481365,3.58154 -3.1883995,4.85882 C 1.9336088,155.75713 0,157.2632 0,160.20999 c 0,2.9468 1.9336088,4.45373 3.6400999,5.78262 1.640263,1.27815 3.1883995,2.48499 3.1883995,4.85893 0,2.37394 -1.5481365,3.58159 -3.1883995,4.85973 C 1.9336088,177.04017 0,178.54619 0,181.49298 c 0,2.94672 1.9336088,4.4532 3.6400999,5.78253 1.640263,1.27763 3.1883995,2.48501 3.1883995,4.85922 0,2.37421 -1.5481365,3.58101 -3.1883995,4.85872 C 1.9336088,198.32278 0,199.82971 0,202.77608 c 0,2.94654 1.9336088,4.45322 3.6400999,5.78272 1.640263,1.27772 3.1883995,2.48455 3.1883995,4.85892 0,2.37438 -1.5481365,3.58123 -3.1883995,4.85903 C 1.9336088,219.60607 0,221.11299 0,224.05937 c 0,2.94636 1.9336088,4.4531 3.6400999,5.78252 1.640263,1.27771 3.1883995,2.48463 3.1883995,4.85893 0,2.37428 -1.5481365,3.5812 -3.1883995,4.85891 C 1.9336088,240.88915 0,242.39591 0,245.34235 c 0,2.94638 1.9336088,4.45312 3.6400999,5.78253 1.640263,1.27771 3.1883995,2.48454 3.1883995,4.85892 0,0.32332 0.2623909,0.5855 0.5857991,0.5855 C 7.7377144,256.5693 8,256.30712 8,255.9838 c 0,-2.94644 -1.9343734,-4.4532 -3.6400076,-5.78262 -1.6402527,-1.27772 -3.1894027,-2.48453 -3.1894027,-4.85883 0,-2.37429 1.54915,-3.58119 3.1894027,-4.85891 C 6.0656266,239.15411 8,237.64717 8,234.70082 c 0,-2.94646 -1.9343734,-4.45322 -3.6400076,-5.78263 -1.6402527,-1.27772 -3.1894027,-2.48453 -3.1894027,-4.85882 0,-2.37438 1.54915,-3.58121 3.1894027,-4.85893 C 6.0656266,217.87103 8,216.36416 8,213.41772 8,210.47126 6.0656266,208.9645 4.3599924,207.6351 c -1.6402527,-1.27772 -3.1894027,-2.48464 -3.1894027,-4.85902 0,-2.3743 1.54915,-3.58113 3.1894027,-4.85903 C 6.0656266,196.58772 8,195.08136 8,192.13473 c 0,-2.94654 -1.9343734,-4.45351 -3.6400076,-5.78292 -1.6402527,-1.27764 -3.1894027,-2.48444 -3.1894027,-4.85883 0,-2.37394 1.54915,-3.58067 3.1894027,-4.85881 C 6.0656266,175.30527 8,173.79833 8,170.85154 c 0,-2.94679 -1.9343734,-4.45287 -3.6400076,-5.78262 -1.6402527,-1.27729 -3.1894027,-2.48498 -3.1894027,-4.85893 0,-2.37395 1.54915,-3.58067 3.1894027,-4.85882 C 6.0656266,154.02227 8,152.51534 8,149.56855 c 0,-2.94679 -1.9343734,-4.45292 -3.6400076,-5.78353 -1.6402527,-1.2773 -3.1894027,-2.48407 -3.1894027,-4.85801 0,-2.37481 1.54915,-3.58159 3.1894027,-4.85974 C 6.0656266,132.73837 8,131.23059 8,128.28464 c 0,-2.94592 -1.9343734,-4.45371 -3.6400076,-5.78261 -1.6402629,-1.27815 -3.1894027,-2.48491 -3.1894027,-4.85973 0,-2.37395 1.5491398,-3.58072 3.1894027,-4.85801 C 6.0656266,111.45367 8,109.94764 8,107.00086 8,104.05406 6.0656266,102.54703 4.3599924,101.21813 2.7197295,99.939984 1.1705897,98.733258 1.1705897,96.359307 c 0,-2.373954 1.5491398,-3.581538 3.1894027,-4.858827 C 6.0656266,90.170732 8,88.664658 8,85.717862 8,82.771064 6.0656266,81.264035 4.3599924,79.93514 2.7197295,78.65699 1.1705897,77.450266 1.1705897,75.076315 c 0,-2.374377 1.5491398,-3.581089 3.1894027,-4.85872 C 6.0656266,68.888184 8,67.381106 8,64.43457 8,61.487948 6.0656266,59.981575 4.3599924,58.65225 2.7197295,57.37436 1.1705897,56.167519 1.1705897,53.793225 c 0,-2.37438 1.5491398,-3.581305 3.1894027,-4.859022 C 6.0656266,47.604789 8,46.098029 8,43.15158 8,40.205129 6.0656266,38.69837 4.3599924,37.368957 2.7197295,36.091239 1.1705897,34.884413 1.1705897,32.510034 c 0,-2.374295 1.5491398,-3.581207 3.1894027,-4.858925 C 6.0656266,26.321698 8,24.814938 8,21.868489 8,18.922124 6.0656266,17.415293 4.3599924,16.085966 2.7197295,14.808249 1.1705897,13.601336 1.1705897,11.227043 c 0,-2.3742938 1.5491398,-3.5812062 3.1894027,-4.8589238 C 6.0656266,5.0387079 8,3.5319483 8,0.58549627 Z"
     id="path1" />
</svg>
