<?xml version="1.0" encoding="UTF-8" standalone="no"?>
<svg
   version="1.1"
   x="0px"
   y="0px"
   viewBox="0 0 293.53516 71.999995"
   xml:space="preserve"
   id="svg4"
   width="293.53516"
   height="72"
   sodipodi:docname="WaveLines00.svg"
   inkscape:export-filename="wave_lines00.svg"
   inkscape:export-xdpi="96"
   inkscape:export-ydpi="96"
   inkscape:version="1.3.2 (091e20e, 2023-11-25, custom)"
   xmlns:inkscape="http://www.inkscape.org/namespaces/inkscape"
   xmlns:sodipodi="http://sodipodi.sourceforge.net/DTD/sodipodi-0.dtd"
   xmlns="http://www.w3.org/2000/svg"
   xmlns:svg="http://www.w3.org/2000/svg"><sodipodi:namedview
     id="namedview1"
     pagecolor="#ffffff"
     bordercolor="#000000"
     borderopacity="0.25"
     inkscape:showpageshadow="2"
     inkscape:pageopacity="0.0"
     inkscape:pagecheckerboard="0"
     inkscape:deskcolor="#d1d1d1"
     inkscape:zoom="2"
     inkscape:cx="221.5"
     inkscape:cy="69.25"
     inkscape:window-width="1920"
     inkscape:window-height="1106"
     inkscape:window-x="-11"
     inkscape:window-y="-11"
     inkscape:window-maximized="1"
     inkscape:current-layer="svg4" /><defs
     id="defs4" /><path
     id="path1"
     style="stroke-width:0.64514"
     d="m 293.53515,6.70996 c -1.74009,0 -2.62341,-1.41434 -3.64746,-3.05176 C 288.81569,1.94361 287.59968,0 285.14453,0 c -2.4539,0 -3.66889,1.94361 -4.74024,3.6582 -1.02314,1.63742 -1.90696,3.05176 -3.6455,3.05176 -1.73915,0 -2.62104,-1.41434 -3.64453,-3.05176 C 272.04231,1.94361 270.82662,0 268.37207,0 c -2.4536,0 -3.66888,1.94361 -4.74023,3.6582 -1.02315,1.63742 -1.90501,3.05176 -3.64356,3.05176 -1.73789,0 -2.62173,-1.41434 -3.64453,-3.05176 C 255.2727,1.94361 254.05779,0 251.60449,0 c -2.45515,0 -3.66926,1.94361 -4.74121,3.6582 -1.0241,1.63742 -1.90932,3.05176 -3.64942,3.05176 -1.74009,0 -2.62336,-1.41434 -3.64746,-3.05176 C 238.4944,1.94361 237.27941,0 234.82422,0 c -2.45395,0 -3.66987,1.94361 -4.74121,3.6582 -1.02315,1.63742 -1.90598,3.05176 -3.64454,3.05176 -1.73914,0 -2.62298,-1.41434 -3.64648,-3.05176 C 221.72004,1.94361 220.5063,0 218.05176,0 c -2.4536,0 -3.66889,1.94361 -4.74024,3.6582 -1.02315,1.63742 -1.90598,3.05176 -3.64453,3.05176 -1.7379,0 -2.62076,-1.41434 -3.64355,-3.05176 C 204.95239,1.94361 203.73747,0 201.28418,0 c -2.45515,0 -3.67122,1.94361 -4.74317,3.6582 -1.0241,1.63742 -1.90731,3.05176 -3.64746,3.05176 -1.7401,0 -2.62434,-1.41434 -3.64844,-3.05176 C 188.17317,1.94361 186.95811,0 184.50293,0 c -2.45391,0 -3.66889,1.94361 -4.74024,3.6582 -1.02313,1.63742 -1.90697,3.05176 -3.6455,3.05176 -1.73915,0 -2.62205,-1.41434 -3.64551,-3.05176 C 171.39972,1.94361 170.18502,0 167.73047,0 c -2.4536,0 -3.66889,1.94361 -4.74024,3.6582 -1.02315,1.63742 -1.906,3.05176 -3.64453,3.05176 -1.73791,0 -2.62072,-1.41434 -3.64355,-3.05176 C 154.63112,1.94361 153.41619,0 150.96289,0 c -2.45518,0 -3.66923,1.94361 -4.74121,3.6582 -1.0241,1.63742 -1.90931,3.05176 -3.64942,3.05176 -1.74011,0 -2.62336,-1.41434 -3.64746,-3.05176 C 137.85283,1.94361 136.63683,0 134.18164,0 c -2.45391,0 -3.66888,1.94361 -4.74024,3.6582 -1.02313,1.63742 -1.90696,3.05176 -3.6455,3.05176 -1.73915,0 -2.62302,-1.41434 -3.64649,-3.05176 C 121.07743,1.94361 119.86374,0 117.40918,0 c -2.4536,0 -3.66889,1.94361 -4.74023,3.6582 -1.02316,1.63742 -1.90502,3.05176 -3.64356,3.05176 -1.73791,0 -2.62169,-1.41434 -3.64453,-3.05176 C 104.30983,1.94361 103.09489,0 100.6416,0 98.18642,0 96.9714,1.94361 95.89942,3.6582 94.87532,5.29562 93.9911,6.70996 92.25098,6.70996 90.51086,6.70996 89.62761,5.29562 88.60352,3.6582 87.53156,1.94361 86.31554,0 83.86035,0 c -2.4539,0 -3.66888,1.94361 -4.74023,3.6582 -1.02313,1.63742 -1.906,3.05176 -3.64453,3.05176 -1.73915,0 -2.62205,-1.41434 -3.64551,-3.05176 C 70.75812,1.94361 69.54245,0 67.08789,0 64.6343,0 63.419,1.94361 62.34766,3.6582 61.3245,5.29562 60.44264,6.70996 58.7041,6.70996 56.9662,6.70996 56.08241,5.29562 55.05957,3.6582 53.98854,1.94361 52.77458,0 50.32129,0 47.86612,0 46.65108,1.94361 45.5791,3.6582 44.55501,5.29562 43.67077,6.70996 41.93067,6.70996 40.19056,6.70996 39.30632,5.29562 38.28223,3.6582 37.21026,1.94361 35.99522,0 33.54004,0 31.08612,0 29.87116,1.94361 28.79981,3.6582 27.77666,5.29562 26.89284,6.70996 25.1543,6.70996 23.41514,6.70996 22.53128,5.29562 21.50781,3.6582 20.43584,1.94361 19.22214,0 16.76758,0 14.31398,0 13.09869,1.94361 12.02735,3.6582 11.00419,5.29562 10.12135,6.70996 8.38282,6.70996 6.64491,6.70996 5.7621,5.29562 4.73926,3.6582 3.66824,1.94361 2.4533,0 0,0 v 1.29004 c 1.73791,0 2.62072,1.41434 3.64356,3.05176 C 4.71459,6.05639 5.92952,8 8.38282,8 c 2.45392,0 3.66791,-1.94427 4.73925,-3.65918 1.02315,-1.6371 1.90698,-3.05078 3.64551,-3.05078 1.73948,0 2.62302,1.41434 3.64648,3.05176 C 21.48604,6.05639 22.70007,8 25.1543,8 c 2.45392,0 3.66889,-1.94361 4.74023,-3.6582 1.02315,-1.63742 1.90698,-3.05176 3.64551,-3.05176 1.74011,0 2.62337,1.41434 3.64746,3.05176 C 38.25948,6.05639 39.47548,8 41.93067,8 c 2.45517,0 3.6702,-1.94361 4.74218,-3.6582 1.0241,-1.63742 1.90834,-3.05176 3.64844,-3.05176 1.7379,0 2.62072,1.41434 3.64356,3.05176 C 55.03587,6.05639 56.24984,8 58.70313,8 c 2.45391,0 3.66889,-1.94427 4.74023,-3.65918 1.02316,-1.6371 1.90601,-3.05078 3.64453,-3.05078 1.73948,0 2.62399,1.41434 3.64746,3.05176 C 71.80733,6.05639 73.02136,8 75.47559,8 c 2.45392,0 3.66888,-1.94361 4.74023,-3.6582 1.02316,-1.63742 1.906,-3.05176 3.64453,-3.05176 1.74012,0 2.62434,1.41434 3.64844,3.05176 C 88.58078,6.05639 89.7958,8 92.25098,8 c 2.45518,0 3.67118,-1.94361 4.74316,-3.6582 1.0241,-1.63742 1.90735,-3.05176 3.64746,-3.05176 1.73791,0 2.6217,1.41434 3.64454,3.05176 C 105.35716,6.05639 106.5721,8 109.02539,8 c 2.45393,0 3.66696,-1.94427 4.73828,-3.65918 1.02316,-1.6371 1.90699,-3.05078 3.64551,-3.05078 1.73949,0 2.62302,1.41434 3.64649,3.05176 1.07198,1.71459 2.286,3.6582 4.74023,3.6582 2.45393,0 3.66888,-1.94361 4.74023,-3.6582 1.02315,-1.63742 1.90697,-3.05176 3.64551,-3.05176 1.74012,0 2.62337,1.41434 3.64746,3.05176 1.07198,1.71459 2.28798,3.6582 4.74316,3.6582 2.45519,0 3.67119,-1.94361 4.74317,-3.6582 1.0241,-1.63742 1.90735,-3.05176 3.64746,-3.05176 1.73791,0 2.6217,1.41434 3.64453,3.05176 1.07103,1.71459 2.28401,3.6582 4.7373,3.6582 2.45392,0 3.66891,-1.94427 4.74024,-3.65918 1.02316,-1.6371 1.90699,-3.05078 3.64551,-3.05078 1.73948,0 2.62302,1.41434 3.64649,3.05176 1.07197,1.71459 2.28601,3.6582 4.74023,3.6582 2.45392,0 3.66889,-1.94361 4.74023,-3.6582 1.02315,-1.63742 1.90697,-3.05176 3.64551,-3.05176 1.74012,0 2.62338,1.41434 3.64746,3.05176 1.072,1.71459 2.28796,3.6582 4.74316,3.6582 2.4552,0 3.67019,-1.94361 4.74219,-3.6582 1.0241,-1.63742 1.90834,-3.05176 3.64844,-3.05176 1.73795,0 2.6207,1.41434 3.64355,3.05176 1.07105,1.71459 2.28601,3.6582 4.73926,3.6582 2.45395,0 3.66791,-1.94427 4.73926,-3.65918 1.02315,-1.6371 1.90696,-3.05078 3.64551,-3.05078 1.73944,0 2.62303,1.41434 3.64648,3.05176 1.072,1.71459 2.28604,3.6582 4.74023,3.6582 2.45395,0 3.66889,-1.94361 4.74024,-3.6582 1.02315,-1.63742 1.90696,-3.05176 3.64551,-3.05176 1.7401,0 2.62336,1.41434 3.64746,3.05176 1.072,1.71459 2.28699,3.6582 4.74218,3.6582 2.4552,0 3.67117,-1.94361 4.74317,-3.6582 1.0241,-1.63742 1.90736,-3.05176 3.64746,-3.05176 1.7379,0 2.62168,1.41434 3.64453,3.05176 1.07105,1.71459 2.28401,3.6582 4.73731,3.6582 2.45389,0 3.66986,-1.94427 4.74121,-3.65918 1.02315,-1.6371 1.90598,-3.05078 3.64453,-3.05078 1.73945,0 2.62298,1.41434 3.64648,3.05176 C 273.0905,6.05639 274.30459,8 276.75879,8 c 2.45394,0 3.66888,-1.94361 4.74023,-3.6582 1.02315,-1.63742 1.90696,-3.05176 3.64551,-3.05176 1.7401,0 2.62434,1.41434 3.64844,3.05176 1.072,1.71459 2.28699,3.6582 4.74218,3.6582 z"
     sodipodi:nodetypes="ccssscssssscscssscssssscscssscssssscscssscscssscscssscscscscscscscscsccccscscscscscscscscscscscscscscssscscssscscssscscssscscssscscssscscsssccc" /><path
     id="path1-9"
     style="stroke-width:0.64514"
     d="m 16.767583,17.29004 c 1.73948,0 2.62302,1.41434 3.64648,3.05176 1.07198,1.71459 2.28601,3.6582 4.74024,3.6582 2.45392,0 3.66889,-1.94361 4.74023,-3.6582 1.02315,-1.63742 1.90698,-3.05176 3.64551,-3.05176 1.7401,0 2.62337,1.41434 3.64746,3.05176 1.07197,1.71459 2.28798,3.6582 4.74316,3.6582 2.45518,0 3.67022,-1.94361 4.74219,-3.6582 1.0241,-1.63742 1.90834,-3.05176 3.64844,-3.05176 1.73789,0 2.62072,1.41434 3.64356,3.05176 1.07102,1.71459 2.28499,3.6582 4.73828,3.6582 2.45391,0 3.66889,-1.94427 4.74023,-3.65918 1.02316,-1.6371 1.90601,-3.05078 3.64453,-3.05078 1.73948,0 2.624,1.41434 3.64746,3.05176 1.07198,1.71459 2.28602,3.6582 4.74024,3.6582 2.45392,0 3.66888,-1.94361 4.74023,-3.6582 1.02316,-1.63742 1.90601,-3.05176 3.64453,-3.05176 1.74012,0 2.62434,1.41434 3.64844,3.05176 1.07198,1.71459 2.28701,3.6582 4.74218,3.6582 2.45519,0 3.67118,-1.94361 4.74317,-3.6582 1.0241,-1.63742 1.90735,-3.05176 3.647457,-3.05176 1.73791,0 2.62169,1.41434 3.64453,3.05176 1.07102,1.71459 2.28597,3.6582 4.73926,3.6582 2.45393,0 3.66696,-1.94427 4.73828,-3.65918 1.02315,-1.6371 1.90698,-3.05078 3.64551,-3.05078 1.73948,0 2.62301,1.41434 3.64648,3.05176 1.07198,1.71459 2.28601,3.6582 4.74024,3.6582 2.45392,0 3.66888,-1.94361 4.74023,-3.6582 1.02315,-1.63742 1.90697,-3.05176 3.64551,-3.05176 1.74011,0 2.62337,1.41434 3.64746,3.05176 1.07198,1.71459 2.28798,3.6582 4.74316,3.6582 2.45519,0 3.67119,-1.94361 4.74317,-3.6582 1.0241,-1.63742 1.90735,-3.05176 3.64746,-3.05176 1.73791,0 2.6217,1.41434 3.64453,3.05176 1.07103,1.71459 2.28402,3.6582 4.7373,3.6582 2.45392,0 3.6689,-1.94427 4.74024,-3.65918 1.02315,-1.6371 1.90698,-3.05078 3.64551,-3.05078 1.73947,0 2.62301,1.41434 3.64648,3.05176 1.07197,1.71459 2.28601,3.6582 4.74024,3.6582 2.45392,0 3.66889,-1.94361 4.74023,-3.6582 1.02315,-1.63742 1.90697,-3.05176 3.64551,-3.05176 1.74012,0 2.62338,1.41434 3.64746,3.05176 1.072,1.71459 2.28796,3.6582 4.74316,3.6582 2.45519,0 3.6702,-1.94361 4.74219,-3.6582 1.0241,-1.63742 1.90834,-3.05176 3.64844,-3.05176 1.73795,0 2.6207,1.41434 3.64355,3.05176 1.07105,1.71459 2.28601,3.6582 4.73926,3.6582 2.45395,0 3.66791,-1.94427 4.73926,-3.65918 1.02315,-1.6371 1.90696,-3.05078 3.64551,-3.05078 1.73944,0 2.62303,1.41434 3.64648,3.05176 1.072,1.71459 2.28604,3.6582 4.74023,3.6582 2.45395,0 3.66889,-1.94361 4.74024,-3.6582 1.02315,-1.63742 1.90696,-3.05176 3.64551,-3.05176 1.74004,0 2.62336,1.41434 3.64746,3.05176 1.072,1.71459 2.28704,3.6582 4.74218,3.6582 2.4552,0 3.67117,-1.94361 4.74317,-3.6582 1.0241,-1.63742 1.90736,-3.05176 3.64746,-3.05176 1.7379,0 2.62168,1.41434 3.64453,3.05176 1.071,1.71459 2.28401,3.6582 4.73731,3.6582 2.45389,0 3.66986,-1.94427 4.74121,-3.65918 1.02315,-1.6371 1.90598,-3.05078 3.64453,-3.05078 1.7395,0 2.62298,1.41434 3.64648,3.05176 1.07195,1.71459 2.28604,3.6582 4.74024,3.6582 2.45394,0 3.66888,-1.94361 4.74023,-3.6582 1.02315,-1.63742 1.90696,-3.05176 3.64551,-3.05176 1.7401,0 2.62429,1.41434 3.64844,3.05176 1.072,1.71459 2.28699,3.6582 4.74218,3.6582 v -1.29004 c -1.74009,0 -2.62341,-1.41434 -3.64746,-3.05176 C 288.81569,17.94361 287.59968,16 285.14453,16 c -2.4539,0 -3.66889,1.94361 -4.74024,3.6582 -1.02314,1.63742 -1.90696,3.05176 -3.6455,3.05176 -1.73915,0 -2.62104,-1.41434 -3.64453,-3.05176 C 272.04231,17.94361 270.82667,16 268.37207,16 c -2.45355,0 -3.66889,1.94361 -4.74024,3.6582 -1.02315,1.63742 -1.905,3.05176 -3.64355,3.05176 -1.7379,0 -2.62173,-1.41434 -3.64453,-3.05176 C 255.2727,17.94361 254.05779,16 251.60449,16 c -2.45515,0 -3.66926,1.94361 -4.74121,3.6582 -1.0241,1.63742 -1.90932,3.05176 -3.64942,3.05176 -1.74004,0 -2.62336,-1.41434 -3.64746,-3.05176 C 238.4944,17.94361 237.27936,16 234.82422,16 c -2.454,0 -3.66987,1.94361 -4.74121,3.6582 -1.02315,1.63742 -1.90599,3.05176 -3.64454,3.05176 -1.73914,0 -2.62298,-1.41434 -3.64648,-3.05176 C 221.72004,17.94361 220.5063,16 218.05176,16 c -2.4536,0 -3.66894,1.94361 -4.74024,3.6582 -1.02315,1.63742 -1.90598,3.05176 -3.64453,3.05176 -1.7379,0 -2.62075,-1.41434 -3.64355,-3.05176 C 204.95239,17.94361 203.73747,16 201.28418,16 c -2.45515,0 -3.67122,1.94361 -4.74317,3.6582 -1.0241,1.63742 -1.90731,3.05176 -3.64746,3.05176 -1.7401,0 -2.62434,-1.41434 -3.64844,-3.05176 C 188.17317,17.94361 186.9581,16 184.50293,16 c -2.45391,0 -3.66889,1.94361 -4.74024,3.6582 -1.02313,1.63742 -1.90697,3.05176 -3.6455,3.05176 -1.73915,0 -2.62205,-1.41434 -3.64551,-3.05176 C 171.39972,17.94361 170.18501,16 167.73047,16 c -2.4536,0 -3.66889,1.94361 -4.74024,3.6582 -1.02315,1.63742 -1.906,3.05176 -3.64453,3.05176 -1.73791,0 -2.62073,-1.41434 -3.64355,-3.05176 C 154.63112,17.94361 153.41619,16 150.96289,16 c -2.45518,0 -3.66923,1.94361 -4.74121,3.6582 -1.0241,1.63742 -1.90931,3.05176 -3.64942,3.05176 -1.74011,0 -2.62336,-1.41434 -3.64746,-3.05176 C 137.85283,17.94361 136.63683,16 134.18164,16 c -2.45391,0 -3.66888,1.94361 -4.74024,3.6582 -1.02313,1.63742 -1.90697,3.05176 -3.6455,3.05176 -1.73915,0 -2.62302,-1.41434 -3.64649,-3.05176 C 121.07743,17.94361 119.86373,16 117.40918,16 c -2.4536,0 -3.66889,1.94361 -4.74024,3.6582 -1.02315,1.63742 -1.90501,3.05176 -3.64355,3.05176 -1.73792,0 -2.62169,-1.41434 -3.64453,-3.05176 C 104.30983,17.94361 103.09489,16 100.6416,16 c -2.455177,0 -3.670207,1.94361 -4.742187,3.6582 -1.02409,1.63742 -1.90832,3.05176 -3.64844,3.05176 -1.74011,0 -2.62336,-1.41434 -3.64746,-3.05176 C 87.531553,17.94361 86.315543,16 83.860353,16 c -2.4539,0 -3.66888,1.94361 -4.74023,3.6582 -1.02313,1.63742 -1.906,3.05176 -3.64453,3.05176 -1.73915,0 -2.62205,-1.41434 -3.64551,-3.05176 C 70.758123,17.94361 69.542453,16 67.087893,16 c -2.45359,0 -3.66889,1.94361 -4.74023,3.6582 -1.02316,1.63742 -1.90502,3.05176 -3.64356,3.05176 -1.7379,0 -2.62169,-1.41434 -3.64453,-3.05176 C 53.988543,17.94361 52.774573,16 50.321293,16 c -2.45517,0 -3.67021,1.94361 -4.74219,3.6582 -1.02409,1.63742 -1.90833,3.05176 -3.64844,3.05176 -1.7401,0 -2.62434,-1.41434 -3.64843,-3.05176 C 37.210253,17.94361 35.995223,16 33.540043,16 c -2.45392,0 -3.66888,1.94361 -4.74024,3.6582 -1.02314,1.63742 -1.90696,3.05176 -3.6455,3.05176 -1.73916,0 -2.62302,-1.41434 -3.64649,-3.05176 C 20.435843,17.94361 19.222133,16 16.767583,16 Z"
     sodipodi:nodetypes="ccscscscscscscscscscscscscssscscssscscssscscssscscssscscscscscsssccccssscssssscscssscscssscscssscssssscscssscscssscscssscscscscscscsccc" /><path
     id="path1-6"
     style="display:inline;stroke-width:0.64514"
     d="m 33.540043,33.29004 c 1.7401,0 2.62337,1.41434 3.64746,3.05176 1.07198,1.71459 2.28798,3.6582 4.74317,3.6582 2.45517,0 3.67021,-1.94361 4.74218,-3.6582 1.0241,-1.63742 1.90834,-3.05176 3.64844,-3.05176 1.73789,0 2.62072,1.41434 3.64356,3.05176 1.07102,1.71459 2.28499,3.6582 4.73828,3.6582 2.45391,0 3.66889,-1.94427 4.74023,-3.65918 1.02316,-1.6371 1.90601,-3.05078 3.64453,-3.05078 1.73948,0 2.62399,1.41434 3.64746,3.05176 1.07197,1.71459 2.28601,3.6582 4.74023,3.6582 2.45393,0 3.66889,-1.94361 4.74024,-3.6582 1.02315,-1.63742 1.906,-3.05176 3.64453,-3.05176 1.74012,0 2.62434,1.41434 3.64844,3.05176 1.07198,1.71459 2.28701,3.6582 4.74218,3.6582 2.45519,0 3.67118,-1.94361 4.74317,-3.6582 1.0241,-1.63742 1.90735,-3.05176 3.647457,-3.05176 1.73791,0 2.62169,1.41434 3.64453,3.05176 1.07102,1.71459 2.28597,3.6582 4.73926,3.6582 2.45393,0 3.66696,-1.94427 4.73828,-3.65918 1.02315,-1.6371 1.90698,-3.05078 3.64551,-3.05078 1.73948,0 2.62301,1.41434 3.64648,3.05176 1.07198,1.71459 2.28601,3.6582 4.74024,3.6582 2.45392,0 3.66888,-1.94361 4.74023,-3.6582 1.02315,-1.63742 1.90697,-3.05176 3.64551,-3.05176 1.74011,0 2.62337,1.41434 3.64746,3.05176 1.07198,1.71459 2.28798,3.6582 4.74316,3.6582 2.45519,0 3.67119,-1.94361 4.74317,-3.6582 1.0241,-1.63742 1.90735,-3.05176 3.64746,-3.05176 1.73791,0 2.6217,1.41434 3.64453,3.05176 1.07103,1.71459 2.28402,3.6582 4.7373,3.6582 2.45392,0 3.6689,-1.94427 4.74024,-3.65918 1.02315,-1.6371 1.90698,-3.05078 3.64551,-3.05078 1.73947,0 2.62301,1.41434 3.64648,3.05176 1.07197,1.71459 2.28601,3.6582 4.74024,3.6582 2.45392,0 3.66889,-1.94361 4.74023,-3.6582 1.02315,-1.63742 1.90697,-3.05176 3.64551,-3.05176 1.74012,0 2.62338,1.41434 3.64746,3.05176 1.072,1.71459 2.28796,3.6582 4.74316,3.6582 2.45519,0 3.6702,-1.94361 4.74219,-3.6582 1.0241,-1.63742 1.90834,-3.05176 3.64844,-3.05176 1.73795,0 2.6207,1.41434 3.64355,3.05176 1.07105,1.71459 2.28601,3.6582 4.73926,3.6582 2.45395,0 3.66791,-1.94427 4.73926,-3.65918 1.02315,-1.6371 1.90696,-3.05078 3.64551,-3.05078 1.73944,0 2.62303,1.41434 3.64648,3.05176 1.072,1.71459 2.28604,3.6582 4.74023,3.6582 2.45395,0 3.66889,-1.94361 4.74024,-3.6582 1.02315,-1.63742 1.90696,-3.05176 3.64551,-3.05176 1.74004,0 2.62336,1.41434 3.64746,3.05176 1.072,1.71459 2.28704,3.6582 4.74218,3.6582 2.4552,0 3.67117,-1.94361 4.74317,-3.6582 1.0241,-1.63742 1.90736,-3.05176 3.64746,-3.05176 1.7379,0 2.62168,1.41434 3.64453,3.05176 1.07105,1.71459 2.28401,3.6582 4.73731,3.6582 2.45389,0 3.66986,-1.94427 4.74121,-3.65918 1.02315,-1.6371 1.90598,-3.05078 3.64453,-3.05078 1.73945,0 2.62298,1.41434 3.64648,3.05176 1.07195,1.71459 2.28604,3.6582 4.74024,3.6582 2.45394,0 3.66888,-1.94361 4.74023,-3.6582 1.02315,-1.63742 1.90696,-3.05176 3.64551,-3.05176 1.7401,0 2.62434,1.41434 3.64844,3.05176 1.072,1.71459 2.28699,3.6582 4.74218,3.6582 v -1.29004 c -1.74009,0 -2.62341,-1.41434 -3.64746,-3.05176 C 288.81569,33.94361 287.59968,32 285.14453,32 c -2.4539,0 -3.66889,1.94361 -4.74024,3.6582 -1.02314,1.63742 -1.90696,3.05176 -3.6455,3.05176 -1.73915,0 -2.62104,-1.41434 -3.64453,-3.05176 C 272.04231,33.94361 270.82662,32 268.37207,32 c -2.4536,0 -3.66889,1.94361 -4.74024,3.6582 -1.02315,1.63742 -1.905,3.05176 -3.64355,3.05176 -1.7379,0 -2.62173,-1.41434 -3.64453,-3.05176 C 255.2727,33.94361 254.05779,32 251.60449,32 c -2.45515,0 -3.66926,1.94361 -4.74121,3.6582 -1.0241,1.63742 -1.90932,3.05176 -3.64942,3.05176 -1.74004,0 -2.62336,-1.41434 -3.64746,-3.05176 C 238.4944,33.94361 237.27936,32 234.82422,32 c -2.45395,0 -3.66987,1.94361 -4.74121,3.6582 -1.02315,1.63742 -1.90599,3.05176 -3.64454,3.05176 -1.73914,0 -2.62298,-1.41434 -3.64648,-3.05176 C 221.72004,33.94361 220.5063,32 218.05176,32 c -2.4536,0 -3.66889,1.94361 -4.74024,3.6582 -1.02315,1.63742 -1.90598,3.05176 -3.64453,3.05176 -1.7379,0 -2.62075,-1.41434 -3.64355,-3.05176 C 204.95239,33.94361 203.73747,32 201.28418,32 c -2.45515,0 -3.67122,1.94361 -4.74317,3.6582 -1.0241,1.63742 -1.90731,3.05176 -3.64746,3.05176 -1.7401,0 -2.62434,-1.41434 -3.64844,-3.05176 C 188.17317,33.94361 186.9581,32 184.50293,32 c -2.45391,0 -3.66889,1.94361 -4.74024,3.6582 -1.02313,1.63742 -1.90697,3.05176 -3.6455,3.05176 -1.73915,0 -2.62205,-1.41434 -3.64551,-3.05176 C 171.39972,33.94361 170.18501,32 167.73047,32 c -2.4536,0 -3.66889,1.94361 -4.74024,3.6582 -1.02315,1.63742 -1.906,3.05176 -3.64453,3.05176 -1.73791,0 -2.62073,-1.41434 -3.64355,-3.05176 C 154.63112,33.94361 153.41619,32 150.96289,32 c -2.45518,0 -3.66923,1.94361 -4.74121,3.6582 -1.0241,1.63742 -1.90931,3.05176 -3.64942,3.05176 -1.74011,0 -2.62336,-1.41434 -3.64746,-3.05176 C 137.85283,33.94361 136.63683,32 134.18164,32 c -2.45391,0 -3.66888,1.94361 -4.74024,3.6582 -1.02313,1.63742 -1.90697,3.05176 -3.6455,3.05176 -1.73915,0 -2.62302,-1.41434 -3.64649,-3.05176 C 121.07743,33.94361 119.86373,32 117.40918,32 c -2.4536,0 -3.66889,1.94361 -4.74024,3.6582 -1.02315,1.63742 -1.90501,3.05176 -3.64355,3.05176 -1.73792,0 -2.62169,-1.41434 -3.64453,-3.05176 C 104.30983,33.94361 103.09489,32 100.6416,32 c -2.455177,0 -3.670207,1.94361 -4.742187,3.6582 -1.02409,1.63742 -1.90832,3.05176 -3.64844,3.05176 -1.74011,0 -2.62336,-1.41434 -3.64746,-3.05176 C 87.531553,33.94361 86.315543,32 83.860353,32 c -2.4539,0 -3.66888,1.94361 -4.74024,3.6582 -1.023121,1.63742 -1.90599,3.05176 -3.64453,3.05176 -1.73914,0 -2.62205,-1.41434 -3.6455,-3.05176 C 70.758123,33.94361 69.542443,32 67.087893,32 c -2.453591,0 -3.66889,1.94361 -4.74023,3.6582 -1.023161,1.63742 -1.90502,3.05176 -3.64356,3.05176 -1.7379,0 -2.62169,-1.41434 -3.64453,-3.05176 C 53.988543,33.94361 52.774573,32 50.321293,32 c -2.45517,0 -3.67021,1.94361 -4.74219,3.6582 -1.02409,1.63742 -1.90833,3.05176 -3.64843,3.05176 -1.740111,0 -2.62435,-1.41434 -3.64844,-3.05176 C 37.210253,33.94361 35.995223,32 33.540043,32 Z"
     sodipodi:nodetypes="ccscscscscscscscscscscssscscssscscssscscssscscssscscssscscsssccccssscssssscscssscssssscscssscssssscscssscscssscscssscscssscsccc" /><path
     id="path1-93"
     style="display:inline;stroke-width:0.64514"
     d="m 50.321292,49.29004 c 1.73789,0 2.62072,1.41434 3.64356,3.05175 1.07102,1.7146 2.28498,3.65821 4.73828,3.65821 2.45391,0 3.66889,-1.94427 4.74023,-3.65918 1.02315,-1.6371 1.906,-3.05078 3.64453,-3.05078 1.73948,0 2.62399,1.41434 3.64746,3.05175 1.07197,1.7146 2.28601,3.65821 4.74023,3.65821 2.45393,0 3.66889,-1.94361 4.74024,-3.65821 1.02315,-1.63741 1.906,-3.05175 3.64453,-3.05175 1.74012,0 2.62434,1.41434 3.64844,3.05175 1.07198,1.7146 2.28701,3.65821 4.74218,3.65821 2.45519,0 3.67118,-1.94361 4.74317,-3.65821 1.0241,-1.63741 1.90735,-3.05175 3.647458,-3.05175 1.73791,0 2.62169,1.41434 3.64453,3.05175 1.07102,1.7146 2.28597,3.65821 4.73926,3.65821 2.45393,0 3.66696,-1.94427 4.73828,-3.65918 1.02315,-1.6371 1.90698,-3.05078 3.64551,-3.05078 1.73948,0 2.62301,1.41434 3.64648,3.05175 1.07198,1.7146 2.28601,3.65821 4.74024,3.65821 2.45392,0 3.66888,-1.94361 4.74023,-3.65821 1.02315,-1.63741 1.90697,-3.05175 3.64551,-3.05175 1.74011,0 2.62337,1.41434 3.64746,3.05175 1.07198,1.7146 2.28798,3.65821 4.74316,3.65821 2.45519,0 3.67119,-1.94361 4.74317,-3.65821 1.0241,-1.63741 1.90735,-3.05175 3.64746,-3.05175 1.73791,0 2.6217,1.41434 3.64453,3.05175 1.07103,1.7146 2.28402,3.65821 4.7373,3.65821 2.45392,0 3.6689,-1.94427 4.74024,-3.65918 1.02315,-1.6371 1.90698,-3.05078 3.64551,-3.05078 1.73947,0 2.62301,1.41434 3.64649,3.05175 1.07196,1.7146 2.28601,3.65821 4.74023,3.65821 2.45392,0 3.6689,-1.94361 4.74023,-3.65821 1.02316,-1.63741 1.90697,-3.05175 3.64551,-3.05175 1.74012,0 2.62338,1.41434 3.64746,3.05175 1.072,1.7146 2.28797,3.65821 4.74317,3.65821 2.45519,0 3.67019,-1.94361 4.74218,-3.65821 1.0241,-1.63741 1.90834,-3.05175 3.64844,-3.05175 1.73795,0 2.6207,1.41434 3.64356,3.05175 1.07105,1.7146 2.28601,3.65821 4.73925,3.65821 2.45395,0 3.66791,-1.94427 4.73926,-3.65918 1.02315,-1.6371 1.90696,-3.05078 3.64551,-3.05078 1.73944,0 2.62304,1.41434 3.64648,3.05175 1.072,1.7146 2.28605,3.65821 4.74024,3.65821 2.45395,0 3.66888,-1.94361 4.74023,-3.65821 1.02315,-1.63741 1.90696,-3.05175 3.64551,-3.05175 1.74009,0 2.62336,1.41434 3.64746,3.05175 1.072,1.7146 2.287,3.65821 4.74219,3.65821 2.4552,0 3.67116,-1.94361 4.74316,-3.65821 1.0241,-1.63741 1.90737,-3.05175 3.64746,-3.05175 1.7379,0 2.62169,1.41434 3.64454,3.05175 1.07103,1.7146 2.284,3.65821 4.7373,3.65821 2.45389,0 3.66986,-1.94427 4.74121,-3.65918 1.02315,-1.6371 1.90598,-3.05078 3.64453,-3.05078 1.73945,0 2.62299,1.41434 3.64648,3.05175 1.07195,1.7146 2.28604,3.65821 4.74024,3.65821 2.45394,0 3.66888,-1.94361 4.74023,-3.65821 1.02314,-1.63741 1.90697,-3.05175 3.64551,-3.05175 1.7401,0 2.62434,1.41434 3.64844,3.05175 1.072,1.7146 2.28699,3.65821 4.74218,3.65821 v -1.29004 c -1.74009,0 -2.62341,-1.41435 -3.64746,-3.05176 C 288.81569,49.94361 287.59968,48 285.14453,48 c -2.45389,0 -3.66889,1.94361 -4.74024,3.6582 -1.02314,1.63741 -1.90696,3.05176 -3.6455,3.05176 -1.73915,0 -2.62104,-1.41435 -3.64453,-3.05176 C 272.04231,49.94361 270.82662,48 268.37207,48 c -2.45359,0 -3.66889,1.94361 -4.74024,3.6582 -1.02314,1.63741 -1.905,3.05176 -3.64355,3.05176 -1.73789,0 -2.62173,-1.41435 -3.64453,-3.05176 C 255.2727,49.94361 254.05779,48 251.60449,48 c -2.45514,0 -3.66926,1.94361 -4.74121,3.6582 -1.0241,1.63741 -1.90931,3.05176 -3.64942,3.05176 -1.74009,0 -2.62336,-1.41435 -3.64746,-3.05176 C 238.4944,49.94361 237.27941,48 234.82422,48 c -2.45395,0 -3.66987,1.94361 -4.74121,3.6582 -1.02315,1.63741 -1.90599,3.05176 -3.64453,3.05176 -1.73915,0 -2.62299,-1.41435 -3.64649,-3.05176 C 221.72005,49.94361 220.5063,48 218.05176,48 c -2.4536,0 -3.66889,1.94361 -4.74024,3.6582 -1.02315,1.63741 -1.90598,3.05176 -3.64453,3.05176 -1.73789,0 -2.62076,-1.41435 -3.64355,-3.05176 C 204.95239,49.94361 203.73747,48 201.28418,48 c -2.45515,0 -3.67122,1.94361 -4.74317,3.6582 -1.0241,1.63741 -1.90731,3.05176 -3.64746,3.05176 -1.7401,0 -2.62434,-1.41435 -3.64844,-3.05176 C 188.17317,49.94361 186.9581,48 184.50293,48 c -2.45391,0 -3.66889,1.94361 -4.74024,3.6582 -1.02313,1.63741 -1.90697,3.05176 -3.6455,3.05176 -1.73915,0 -2.62205,-1.41435 -3.64551,-3.05176 C 171.39972,49.94361 170.18501,48 167.73047,48 c -2.4536,0 -3.66889,1.94361 -4.74024,3.6582 -1.02315,1.63741 -1.906,3.05176 -3.64453,3.05176 -1.73791,0 -2.62073,-1.41435 -3.64355,-3.05176 C 154.63112,49.94361 153.41619,48 150.96289,48 c -2.45518,0 -3.66923,1.94361 -4.74121,3.6582 -1.0241,1.63741 -1.90931,3.05176 -3.64942,3.05176 -1.74011,0 -2.62336,-1.41435 -3.64746,-3.05176 C 137.85283,49.94361 136.63683,48 134.18164,48 c -2.45391,0 -3.66888,1.94361 -4.74024,3.6582 -1.02313,1.63741 -1.90697,3.05176 -3.6455,3.05176 -1.73915,0 -2.62302,-1.41435 -3.64649,-3.05176 C 121.07743,49.94361 119.86373,48 117.40918,48 c -2.4536,0 -3.66889,1.94361 -4.74024,3.6582 -1.02315,1.63741 -1.90501,3.05176 -3.64355,3.05176 -1.73792,0 -2.62169,-1.41435 -3.64453,-3.05176 C 104.30983,49.94361 103.09489,48 100.6416,48 c -2.455178,0 -3.670208,1.94361 -4.742188,3.6582 -1.02409,1.63741 -1.90832,3.05176 -3.64844,3.05176 -1.74011,0 -2.62336,-1.41435 -3.64746,-3.05176 C 87.531552,49.94361 86.315542,48 83.860352,48 c -2.4539,0 -3.66888,1.94361 -4.74024,3.6582 -1.02312,1.63741 -1.90599,3.05176 -3.64453,3.05176 -1.73914,0 -2.62205,-1.41435 -3.6455,-3.05176 C 70.758122,49.94361 69.542442,48 67.087892,48 c -2.45359,0 -3.66889,1.94361 -4.74023,3.6582 -1.02316,1.63741 -1.90502,3.05176 -3.64356,3.05176 -1.7379,0 -2.62169,-1.41435 -3.64453,-3.05176 C 53.988542,49.94361 52.774572,48 50.321292,48 Z"
     sodipodi:nodetypes="ccscscscscscscscscssscscssscscscscscssscscssscscssscscsssccccssscssssscscssscssssscscssscssssscscssscscssscscssscscsccc" /><path
     id="path1-1"
     style="display:inline;stroke-width:0.64514"
     d="m 67.087893,65.29004 c 1.73948,0 2.62399,1.41434 3.64746,3.05175 1.07197,1.7146 2.28601,3.65821 4.74023,3.65821 2.45393,0 3.66889,-1.94361 4.74024,-3.65821 1.02315,-1.63741 1.906,-3.05175 3.64453,-3.05175 1.74012,0 2.62434,1.41434 3.64844,3.05175 1.07198,1.7146 2.28701,3.65821 4.74218,3.65821 2.45519,0 3.67118,-1.94361 4.74317,-3.65821 1.0241,-1.63741 1.90735,-3.05175 3.647457,-3.05175 1.73791,0 2.62169,1.41434 3.64453,3.05175 1.07102,1.7146 2.28597,3.65821 4.73926,3.65821 2.45393,0 3.66696,-1.94427 4.73828,-3.65918 1.02315,-1.6371 1.90698,-3.05078 3.64551,-3.05078 1.73948,0 2.62301,1.41434 3.64648,3.05175 1.07198,1.7146 2.28601,3.65821 4.74024,3.65821 2.45392,0 3.66888,-1.94361 4.74023,-3.65821 1.02315,-1.63741 1.90697,-3.05175 3.64551,-3.05175 1.74011,0 2.62337,1.41434 3.64746,3.05175 1.07198,1.7146 2.28798,3.65821 4.74316,3.65821 2.45519,0 3.67119,-1.94361 4.74317,-3.65821 1.0241,-1.63741 1.90735,-3.05175 3.64746,-3.05175 1.73791,0 2.6217,1.41434 3.64453,3.05175 1.07103,1.7146 2.28402,3.65821 4.7373,3.65821 2.45392,0 3.6689,-1.94427 4.74024,-3.65918 1.02315,-1.6371 1.90698,-3.05078 3.64551,-3.05078 1.73947,0 2.62301,1.41434 3.64648,3.05175 1.07197,1.7146 2.28601,3.65821 4.74024,3.65821 2.45392,0 3.66889,-1.94361 4.74023,-3.65821 1.02315,-1.63741 1.90697,-3.05175 3.64551,-3.05175 1.74012,0 2.62338,1.41434 3.64746,3.05175 1.072,1.7146 2.28796,3.65821 4.74316,3.65821 2.45519,0 3.6702,-1.94361 4.74219,-3.65821 1.0241,-1.63741 1.90834,-3.05175 3.64844,-3.05175 1.73795,0 2.6207,1.41434 3.64355,3.05175 1.07105,1.7146 2.28602,3.65821 4.73926,3.65821 2.45395,0 3.66791,-1.94427 4.73926,-3.65918 1.02315,-1.6371 1.90696,-3.05078 3.64551,-3.05078 1.73944,0 2.62304,1.41434 3.64648,3.05175 1.072,1.7146 2.28604,3.65821 4.74023,3.65821 2.45395,0 3.66889,-1.94361 4.74024,-3.65821 1.02315,-1.63741 1.90696,-3.05175 3.64551,-3.05175 1.74009,0 2.62336,1.41434 3.64746,3.05175 1.072,1.7146 2.28699,3.65821 4.74218,3.65821 2.4552,0 3.67117,-1.94361 4.74317,-3.65821 1.0241,-1.63741 1.90737,-3.05175 3.64746,-3.05175 1.7379,0 2.62168,1.41434 3.64453,3.05175 1.07104,1.7146 2.28401,3.65821 4.73731,3.65821 2.45389,0 3.66986,-1.94427 4.74121,-3.65918 1.02315,-1.6371 1.90598,-3.05078 3.64453,-3.05078 1.73945,0 2.62298,1.41434 3.64648,3.05175 1.07195,1.7146 2.28604,3.65821 4.74024,3.65821 2.45394,0 3.66888,-1.94361 4.74023,-3.65821 1.02314,-1.63741 1.90697,-3.05175 3.64551,-3.05175 1.7401,0 2.62434,1.41434 3.64844,3.05175 1.072,1.7146 2.28699,3.65821 4.74218,3.65821 v -1.29004 c -1.74009,0 -2.62341,-1.41435 -3.64746,-3.05176 C 288.81569,65.94361 287.59968,64 285.14453,64 c -2.45389,0 -3.66889,1.94361 -4.74024,3.6582 -1.02314,1.63741 -1.90696,3.05176 -3.6455,3.05176 -1.73915,0 -2.62104,-1.41435 -3.64453,-3.05176 C 272.04231,65.94361 270.82662,64 268.37207,64 c -2.45359,0 -3.66889,1.94361 -4.74024,3.6582 -1.02315,1.63741 -1.905,3.05176 -3.64355,3.05176 -1.73789,0 -2.62173,-1.41435 -3.64453,-3.05176 C 255.2727,65.94361 254.05779,64 251.60449,64 c -2.45514,0 -3.66926,1.94361 -4.74121,3.6582 -1.0241,1.63741 -1.90932,3.05176 -3.64942,3.05176 -1.74009,0 -2.62336,-1.41435 -3.64746,-3.05176 C 238.4944,65.94361 237.27941,64 234.82422,64 c -2.45395,0 -3.66987,1.94361 -4.74121,3.6582 -1.02315,1.63741 -1.90599,3.05176 -3.64454,3.05176 -1.73914,0 -2.62298,-1.41435 -3.64648,-3.05176 C 221.72005,65.94361 220.5063,64 218.05176,64 c -2.4536,0 -3.6689,1.94361 -4.74024,3.6582 -1.02315,1.63741 -1.90598,3.05176 -3.64453,3.05176 -1.73789,0 -2.62076,-1.41435 -3.64355,-3.05176 C 204.95239,65.94361 203.73747,64 201.28418,64 c -2.45515,0 -3.67122,1.94361 -4.74317,3.6582 -1.0241,1.63741 -1.90731,3.05176 -3.64746,3.05176 -1.7401,0 -2.62434,-1.41435 -3.64844,-3.05176 C 188.17317,65.94361 186.9581,64 184.50293,64 c -2.45391,0 -3.66889,1.94361 -4.74024,3.6582 -1.02313,1.63741 -1.90697,3.05176 -3.6455,3.05176 -1.73915,0 -2.62205,-1.41435 -3.64551,-3.05176 C 171.39972,65.94361 170.18501,64 167.73047,64 c -2.4536,0 -3.66889,1.94361 -4.74024,3.6582 -1.02315,1.63741 -1.906,3.05176 -3.64453,3.05176 -1.73791,0 -2.62073,-1.41435 -3.64355,-3.05176 C 154.63112,65.94361 153.41619,64 150.96289,64 c -2.45518,0 -3.66923,1.94361 -4.74121,3.6582 -1.0241,1.63741 -1.90931,3.05176 -3.64942,3.05176 -1.74011,0 -2.62336,-1.41435 -3.64746,-3.05176 C 137.85283,65.94361 136.63683,64 134.18164,64 c -2.45391,0 -3.66888,1.94361 -4.74024,3.6582 -1.02313,1.63741 -1.90697,3.05176 -3.6455,3.05176 -1.73915,0 -2.62302,-1.41435 -3.64649,-3.05176 C 121.07743,65.94361 119.86373,64 117.40918,64 c -2.4536,0 -3.66889,1.94361 -4.74024,3.6582 -1.02315,1.63741 -1.90501,3.05176 -3.64355,3.05176 -1.73792,0 -2.62169,-1.41435 -3.64453,-3.05176 C 104.30983,65.94361 103.09489,64 100.6416,64 c -2.455177,0 -3.670207,1.94361 -4.742187,3.6582 -1.02409,1.63741 -1.90832,3.05176 -3.64844,3.05176 -1.74011,0 -2.62336,-1.41435 -3.64746,-3.05176 C 87.531553,65.94361 86.315543,64 83.860353,64 c -2.4539,0 -3.66888,1.94361 -4.74024,3.6582 -1.023121,1.63741 -1.90599,3.05176 -3.64453,3.05176 -1.73914,0 -2.62205,-1.41435 -3.6455,-3.05176 C 70.758123,65.94361 69.542443,64 67.087893,64 Z"
     sodipodi:nodetypes="ccscscscscscscssscscssscscscscscssscscssscscssscscsssccccssscssssscscssscssssscscssscssssscscssscscssscscsssccc" /></svg>
