<?xml version="1.0" encoding="UTF-8" standalone="no"?>
<svg
   height="31.180668"
   width="1000"
   version="1.1"
   id="svg1"
   sodipodi:docname="wave02.svg"
   inkscape:export-filename="wave02.png"
   inkscape:export-xdpi="96"
   inkscape:export-ydpi="96"
   xmlns:inkscape="http://www.inkscape.org/namespaces/inkscape"
   xmlns:sodipodi="http://sodipodi.sourceforge.net/DTD/sodipodi-0.dtd"
   xmlns="http://www.w3.org/2000/svg"
   xmlns:svg="http://www.w3.org/2000/svg">
  <sodipodi:namedview
     id="namedview1"
     pagecolor="#ffffff"
     bordercolor="#000000"
     borderopacity="0.25"
     inkscape:showpageshadow="2"
     inkscape:pageopacity="0.0"
     inkscape:pagecheckerboard="0"
     inkscape:deskcolor="#d1d1d1" />
  <defs
     id="defs1" />
  <path
     style="fill:#040606;fill-opacity:1;fill-rule:nonzero;stroke:none;stroke-width:0.0335242"
     d="M 2.2820208,0 C 1.0218504,0 0,1.0223197 0,2.2828287 c 0,1.260509 1.0218504,2.2831975 2.2820208,2.2831975 9.2543382,0 13.9580452,6.0339828 18.9380582,12.4270438 5.18149,6.651163 11.05455,14.187598 22.538243,14.187598 11.484031,0 17.356756,-7.536435 22.538246,-14.187598 4.980013,-6.393061 9.683659,-12.4270438 18.937663,-12.4270438 9.254007,0 13.958045,6.0339828 18.938059,12.4270438 5.18149,6.651163 11.05455,14.187598 22.53825,14.187598 11.48369,0 17.35669,-7.536435 22.53785,-14.187598 4.98035,-6.393061 9.68411,-12.4270438 18.93845,-12.4270438 9.25434,0 13.95805,6.0339828 18.93805,12.4270438 5.18183,6.651163 11.05428,14.187598 22.53864,14.187598 11.4837,0 17.3571,-7.536435 22.53825,-14.187598 4.98001,-6.393061 9.6836,-12.4270438 18.93727,-12.4270438 9.25367,0 13.95995,6.0339828 18.93963,12.4270438 5.18116,6.651163 11.05242,14.187598 22.53745,14.187598 11.48538,0 17.35563,-7.536435 22.53511,-14.187598 4.9817,-6.393061 9.68852,-12.4270438 18.9412,-12.4270438 9.25267,0 13.95598,6.0339828 18.93767,12.4270438 5.17949,6.651163 11.05285,14.187598 22.53824,14.187598 11.48538,0 17.35543,-7.536435 22.53823,-14.187598 4.97834,-6.393061 9.68205,-12.4270438 18.93808,-12.4270438 9.25602,0 13.95913,6.0339828 18.94079,12.4270438 5.17948,6.651163 11.05309,14.187598 22.53512,14.187598 11.48535,0 17.35895,-7.536435 22.54179,-14.187598 4.97834,-6.393061 9.685,-12.4270438 18.93764,-12.4270438 9.25267,0 13.9597,6.0339828 18.93807,12.4270438 5.1828,6.651196 11.05604,14.187598 22.54139,14.187598 11.48203,0 17.35563,-7.536402 22.53508,-14.187598 4.9817,-6.393061 9.68517,-12.4270438 18.94123,-12.4270438 9.25599,0 13.95933,6.0339828 18.93764,12.4270438 5.18284,6.651196 11.05289,14.187598 22.53827,14.187598 11.48538,0 17.35875,-7.536402 22.53824,-14.187598 4.98169,-6.393061 9.6854,-12.4270438 18.93804,-12.4270438 9.25267,0 13.95953,6.0339828 18.94122,12.4270438 5.17949,6.651196 11.04934,14.187598 22.53469,14.187598 11.48508,0 17.3567,-7.536402 22.53786,-14.187598 4.97968,-6.393061 9.68557,-12.4270438 18.93925,-12.4270438 9.25365,0 13.95726,6.0339828 18.93727,12.4270438 5.18116,6.651196 11.05453,14.187598 22.53824,14.187598 11.48438,0 17.35681,-7.536402 22.53864,-14.187598 4.98001,-6.393061 9.68372,-12.4270438 18.93804,-12.4270438 9.25435,0 13.95812,6.0339828 18.93844,12.4270438 5.18116,6.651196 11.05453,14.187598 22.53827,14.187598 11.48368,0 17.35634,-7.536402 22.53784,-14.187598 4.98001,-6.393061 9.68406,-12.4270438 18.93807,-12.4270438 9.25398,0 13.95803,6.0339828 18.93804,12.4270438 5.1815,6.651196 11.0542,14.187598 22.53824,14.187598 11.48371,0 17.35637,-7.536402 22.53787,-14.187598 4.97998,-6.393061 9.68372,-12.4270438 18.93804,-12.4270438 1.26017,0 2.28202,-1.0226885 2.28202,-2.2831975 C 1000,1.0222862 998.97815,0 997.71798,0 c -11.48401,0 -17.35674,7.539386 -22.53824,14.18723 -4.98001,6.393027 -9.68366,12.430966 -18.93767,12.430966 -9.25401,0 -13.95803,-6.037939 -18.93804,-12.430966 C 932.12287,7.539386 926.24946,0 914.76579,0 c -11.48404,0 -17.35677,7.539386 -22.53827,14.18723 -4.98001,6.393027 -9.68366,12.430966 -18.93764,12.430966 -9.25435,0 -13.95806,-6.037939 -18.93807,-12.430966 C 849.17031,7.539386 843.29718,0 831.81317,0 820.32913,0 814.4564,7.539386 809.27493,14.18723 c -4.98001,6.393027 -9.68409,12.430966 -18.93844,12.430966 -9.25401,0 -13.95776,-6.037939 -18.93845,-12.430966 C 766.21688,7.539386 760.34569,0 748.86098,0 737.3766,0 731.50304,7.539386 726.32154,14.18723 c -4.97968,6.393027 -9.68333,12.430966 -18.93767,12.430966 -9.25264,0 -13.95598,-6.037939 -18.93764,-12.430966 C 683.26674,7.539386 677.39334,0 665.90796,0 c -11.48535,0 -17.3554,7.539386 -22.53824,14.18723 -4.97831,6.393027 -9.6854,12.430966 -18.93804,12.430966 -9.25267,0 -13.95598,-6.037939 -18.93767,-12.430966 C 600.31452,7.539386 594.44112,0 582.95577,0 c -11.48538,0 -17.35563,7.539386 -22.54179,14.18723 -4.97837,6.393027 -9.68185,12.430966 -18.93452,12.430966 -9.25599,0 -13.9595,-6.037939 -18.94119,-12.430966 C 517.35878,7.539386 511.48203,0 500,0 c -11.482,0 -17.35876,7.539386 -22.53824,14.18723 -4.98169,6.393061 -9.68517,12.430966 -18.94119,12.430966 -9.25268,0 -13.95618,-6.037905 -18.93452,-12.430966 C 434.39986,7.539386 428.53001,0 417.04466,0 405.55928,0 399.6855,7.539386 394.50602,14.18723 c -4.98169,6.393061 -9.685,12.430966 -18.93767,12.430966 -9.25268,0 -13.95934,-6.037905 -18.93768,-12.430966 C 351.44787,7.539386 345.57782,0 334.09244,0 322.60705,0 316.73328,7.539386 311.5538,14.18723 c -4.98169,6.393061 -9.685,12.430966 -18.93767,12.430966 -9.25433,0 -13.95759,-6.037905 -18.93726,-12.430966 C 268.49738,7.539386 262.62342,0 251.13905,0 c -11.4847,0 -17.35591,7.539386 -22.53707,14.18723 -4.98068,6.393061 -9.68444,12.430966 -18.93845,12.430966 -9.25434,0 -13.95843,-6.037905 -18.93844,-12.430966 C 185.54359,7.539386 179.67087,0 168.18684,0 c -11.48403,0 -17.35675,7.539386 -22.53825,14.18723 -4.98001,6.393061 -9.68371,12.430966 -18.93805,12.430966 -9.25401,0 -13.95805,-6.037905 -18.93806,-12.430966 C 102.59099,7.539386 96.718262,0 85.234231,0 73.750538,0 67.877535,7.539386 62.69638,14.18723 57.716367,20.580291 53.012328,26.618196 43.758322,26.618196 34.504318,26.618196 29.80028,20.580291 24.820267,14.18723 19.638777,7.539386 13.766052,0 2.2820208,0 Z"
     id="path1" />
</svg>
