<?xml version="1.0" encoding="UTF-8" standalone="no"?>
<svg
   version="1.1"
   x="0px"
   y="0px"
   viewBox="0 0 440.30274 107.99999"
   xml:space="preserve"
   id="svg4"
   width="440.30273"
   height="108"
   xmlns="http://www.w3.org/2000/svg"
   xmlns:svg="http://www.w3.org/2000/svg"><defs
     id="defs4" /><path
     id="path1"
     style="stroke-width:0.96771"
     d="m 440.30273,10.06494 c -2.61014,0 -3.93512,-2.12151 -5.47119,-4.57764 C 433.22354,2.915415 431.39952,0 427.71679,0 c -3.68084,0 -5.50333,2.915415 -7.11035,5.4873 -1.53471,2.45613 -2.86044,4.57764 -5.46825,4.57764 -2.60873,0 -3.93156,-2.12151 -5.4668,-4.57764 C 408.06346,2.915415 406.23993,0 402.55811,0 c -3.6804,0 -5.50332,2.915415 -7.11035,5.4873 -1.53472,2.45613 -2.85752,4.57764 -5.46534,4.57764 -2.60684,0 -3.9326,-2.12151 -5.4668,-4.57764 C 382.90905,2.915415 381.08668,0 377.40673,0 c -3.68272,0 -5.50389,2.915415 -7.11181,5.4873 -1.53615,2.45613 -2.86398,4.57764 -5.47413,4.57764 -2.61014,0 -3.93504,-2.12151 -5.47119,-4.57764 C 357.7416,2.915415 355.91911,0 352.23633,0 c -3.68093,0 -5.50481,2.915415 -7.11182,5.4873 -1.53472,2.45613 -2.85897,4.57764 -5.46681,4.57764 -2.60871,0 -3.93447,-2.12151 -5.46972,-4.57764 C 332.58006,2.915415 330.75945,0 327.07764,0 c -3.6804,0 -5.50334,2.915415 -7.11036,5.4873 -1.53473,2.45613 -2.85897,4.57764 -5.4668,4.57764 -2.60685,0 -3.93114,-2.12151 -5.46532,-4.57764 C 307.42858,2.915415 305.6062,0 301.92627,0 c -3.68273,0 -5.50683,2.915415 -7.11477,5.4873 -1.53615,2.45613 -2.86096,4.57764 -5.47119,4.57764 -2.61015,0 -3.93651,-2.12151 -5.47266,-4.57764 C 282.25974,2.915415 280.43715,0 276.75438,0 c -3.68086,0 -5.50333,2.915415 -7.11036,5.4873 -1.53469,2.45613 -2.86045,4.57764 -5.46825,4.57764 -2.60872,0 -3.93307,-2.12151 -5.46826,-4.57764 C 257.09957,2.915415 255.27752,0 251.59569,0 c -3.6804,0 -5.50333,2.915415 -7.11036,5.4873 -1.53472,2.45613 -2.859,4.57764 -5.46679,4.57764 -2.60687,0 -3.93108,-2.12151 -5.46533,-4.57764 C 231.94667,2.915415 230.12427,0 226.44432,0 c -3.68277,0 -5.50384,2.915415 -7.11181,5.4873 -1.53615,2.45613 -2.86397,4.57764 -5.47413,4.57764 -2.61017,0 -3.93504,-2.12151 -5.47119,-4.57764 C 206.77923,2.915415 204.95523,0 201.27245,0 c -3.68087,0 -5.50332,2.915415 -7.11036,5.4873 -1.5347,2.45613 -2.86044,4.57764 -5.46825,4.57764 -2.60873,0 -3.93453,-2.12151 -5.46974,-4.57764 C 181.61613,2.915415 179.7956,0 176.11376,0 c -3.6804,0 -5.50334,2.915415 -7.11035,5.4873 -1.53474,2.45613 -2.85753,4.57764 -5.46534,4.57764 -2.60686,0 -3.93253,-2.12151 -5.46679,-4.57764 C 156.46473,2.915415 154.64232,0 150.96239,0 c -3.68277,0 -5.5053,2.915415 -7.11326,5.4873 -1.53615,2.45613 -2.86248,4.57764 -5.47266,4.57764 -2.61018,0 -3.93505,-2.12151 -5.47119,-4.57764 C 131.29734,2.915415 129.47331,0 125.79053,0 c -3.68085,0 -5.50332,2.915415 -7.11035,5.4873 -1.53469,2.45613 -2.859,4.57764 -5.46679,4.57764 -2.60873,0 -3.93308,-2.12151 -5.46827,-4.57764 C 106.13718,2.915415 104.31368,0 100.63184,0 c -3.680394,0 -5.503344,2.915415 -7.110354,5.4873 -1.53474,2.45613 -2.85753,4.57764 -5.46534,4.57764 -2.60685,0 -3.93253,-2.12151 -5.46679,-4.57764 C 80.982806,2.915415 79.161866,0 75.481936,0 c -3.68276,0 -5.50532,2.915415 -7.11329,5.4873 -1.53613,2.45613 -2.86249,4.57764 -5.47264,4.57764 -2.61017,0 -3.93653,-2.12151 -5.47266,-4.57764 C 55.815386,2.915415 53.992826,0 50.310056,0 46.62918,0 44.80674,2.915415 43.19972,5.4873 c -1.53473,2.45613 -2.86046,4.57764 -5.46827,4.57764 -2.60874,0 -3.93453,-2.12151 -5.46973,-4.57764 C 30.65376,2.915415 28.83321,0 25.15137,0 c -3.6804,0 -5.50334,2.915415 -7.11034,5.4873 -1.53474,2.45613 -2.859,4.57764 -5.4668,4.57764 -2.60686,0 -3.93108,-2.12151 -5.46534,-4.57764 C 5.50236,2.915415 3.67995,0 0,0 v 1.93506 c 2.60687,0 3.93108,2.12151 5.46534,4.57764 C 7.07189,9.084585 8.89428,12 12.57423,12 c 3.68088,0 5.50187,-2.916405 7.10888,-5.48877 1.53472,-2.45565 2.86047,-4.57617 5.46826,-4.57617 2.60922,0 3.93453,2.12151 5.46972,4.57764 C 32.22906,9.084585 34.05011,12 37.73145,12 c 3.68088,0 5.50334,-2.915415 7.11035,-5.4873 1.53472,-2.45613 2.860466,-4.57764 5.468256,-4.57764 2.61017,0 3.93505,2.12151 5.47119,4.57764 1.60797,2.571885 3.43197,5.4873 7.11476,5.4873 3.68275,0 5.5053,-2.915415 7.11327,-5.4873 1.53615,-2.45613 2.86251,-4.57764 5.47266,-4.57764 2.60685,0 3.93108,2.12151 5.46534,4.57764 1.60653,2.571885 3.42748,5.4873 7.10742,5.4873 3.68086,0 5.50333,-2.916405 7.11034,-5.48877 1.53474,-2.45565 2.85902,-4.57617 5.466804,-4.57617 2.60922,0 3.93598,2.12151 5.47119,4.57764 1.60796,2.571885 3.42901,5.4873 7.11036,5.4873 3.68088,0 5.50332,-2.915415 7.11034,-5.4873 1.53474,-2.45613 2.859,-4.57764 5.4668,-4.57764 2.61018,0 3.93651,2.12151 5.47266,4.57764 1.60798,2.571885 3.43051,5.4873 7.11328,5.4873 3.68277,0 5.50677,-2.915415 7.11473,-5.4873 1.53615,-2.45613 2.86102,-4.57764 5.47119,-4.57764 2.60686,0 3.93255,2.12151 5.46681,4.57764 1.60653,2.571885 3.42894,5.4873 7.10887,5.4873 3.6809,0 5.50044,-2.916405 7.10742,-5.48877 1.53474,-2.45565 2.86049,-4.57617 5.46827,-4.57617 2.60923,0 3.93453,2.12151 5.46973,4.57764 1.60797,2.571885 3.429,5.4873 7.11035,5.4873 3.68089,0 5.50332,-2.915415 7.11034,-5.4873 1.53472,-2.45613 2.86045,-4.57764 5.46826,-4.57764 2.61019,0 3.93506,2.12151 5.4712,4.57764 1.60796,2.571885 3.43197,5.4873 7.11474,5.4873 3.68278,0 5.50678,-2.915415 7.11475,-5.4873 1.53615,-2.45613 2.86103,-4.57764 5.47119,-4.57764 2.60686,0 3.93255,2.12151 5.4668,4.57764 1.60654,2.571885 3.42601,5.4873 7.10595,5.4873 3.68088,0 5.50336,-2.916405 7.11036,-5.48877 1.53474,-2.45565 2.86048,-4.57617 5.46826,-4.57617 2.60922,0 3.93453,2.12151 5.46974,4.57764 1.60795,2.571885 3.42901,5.4873 7.11034,5.4873 3.68088,0 5.50334,-2.915415 7.11035,-5.4873 1.53472,-2.45613 2.86045,-4.57764 5.46826,-4.57764 2.61018,0 3.93507,2.12151 5.47119,4.57764 1.608,2.571885 3.43194,5.4873 7.11474,5.4873 3.6828,0 5.50529,-2.915415 7.1133,-5.4873 1.53615,-2.45613 2.86251,-4.57764 5.47266,-4.57764 2.60692,0 3.93105,2.12151 5.46532,4.57764 1.60658,2.571885 3.42902,5.4873 7.10889,5.4873 3.68093,0 5.50187,-2.916405 7.10889,-5.48877 1.53473,-2.45565 2.86044,-4.57617 5.46827,-4.57617 2.60916,0 3.93454,2.12151 5.46972,4.57764 1.608,2.571885 3.42906,5.4873 7.11034,5.4873 3.68093,0 5.50334,-2.915415 7.11036,-5.4873 1.53473,-2.45613 2.86044,-4.57764 5.46827,-4.57764 2.61015,0 3.93504,2.12151 5.47119,4.57764 1.608,2.571885 3.43048,5.4873 7.11327,5.4873 3.6828,0 5.50675,-2.915415 7.11475,-5.4873 1.53615,-2.45613 2.86104,-4.57764 5.47119,-4.57764 2.60685,0 3.93252,2.12151 5.4668,4.57764 1.60657,2.571885 3.42601,5.4873 7.10597,5.4873 3.68083,0 5.50478,-2.916405 7.11181,-5.48877 1.53472,-2.45565 2.85897,-4.57617 5.4668,-4.57617 2.60917,0 3.93446,2.12151 5.46971,4.57764 1.60793,2.571885 3.42906,5.4873 7.11037,5.4873 3.6809,0 5.50332,-2.915415 7.11034,-5.4873 1.53472,-2.45613 2.86044,-4.57764 5.46826,-4.57764 2.61015,0 3.93651,2.12151 5.47266,4.57764 1.608,2.571885 3.43049,5.4873 7.11327,5.4873 z" /><path
     id="path1-9"
     style="stroke-width:0.96771"
     d="m 25.15138,25.93506 c 2.60922,0 3.93453,2.12151 5.46972,4.57764 1.60797,2.571885 3.42902,5.4873 7.11036,5.4873 3.68088,0 5.50334,-2.915415 7.11034,-5.4873 1.53473,-2.45613 2.860466,-4.57764 5.468266,-4.57764 2.61015,0 3.93505,2.12151 5.47119,4.57764 1.60795,2.571885 3.43197,5.4873 7.11474,5.4873 3.68277,0 5.50533,-2.915415 7.11328,-5.4873 1.53615,-2.45613 2.86251,-4.57764 5.47266,-4.57764 2.60684,0 3.93108,2.12151 5.46534,4.57764 1.60653,2.571885 3.42749,5.4873 7.10742,5.4873 3.68087,0 5.50334,-2.916405 7.11035,-5.48877 1.53474,-2.45565 2.85901,-4.57617 5.466794,-4.57617 2.60922,0 3.936,2.12151 5.47119,4.57764 1.60797,2.571885 3.42903,5.4873 7.11036,5.4873 3.68088,0 5.50332,-2.915415 7.11035,-5.4873 1.53474,-2.45613 2.85901,-4.57764 5.46679,-4.57764 2.61018,0 3.93651,2.12151 5.47266,4.57764 1.60797,2.571885 3.43052,5.4873 7.11327,5.4873 3.68279,0 5.50677,-2.915415 7.11476,-5.4873 1.53615,-2.45613 2.86102,-4.57764 5.47119,-4.57764 2.60686,0 3.93253,2.12151 5.46679,4.57764 1.60652,2.571885 3.42895,5.4873 7.10888,5.4873 3.6809,0 5.50044,-2.916405 7.10742,-5.48877 1.53473,-2.45565 2.86047,-4.57617 5.46827,-4.57617 2.60922,0 3.93451,2.12151 5.46972,4.57764 1.60797,2.571885 3.42901,5.4873 7.11035,5.4873 3.68088,0 5.50332,-2.915415 7.11035,-5.4873 1.53472,-2.45613 2.86045,-4.57764 5.46826,-4.57764 2.61017,0 3.93506,2.12151 5.47119,4.57764 1.60797,2.571885 3.43197,5.4873 7.11474,5.4873 3.68279,0 5.50679,-2.915415 7.11476,-5.4873 1.53615,-2.45613 2.86102,-4.57764 5.47119,-4.57764 2.60686,0 3.93255,2.12151 5.46679,4.57764 1.60655,2.571885 3.42603,5.4873 7.10595,5.4873 3.68088,0 5.50335,-2.916405 7.11036,-5.48877 1.53473,-2.45565 2.86047,-4.57617 5.46827,-4.57617 2.6092,0 3.93451,2.12151 5.46972,4.57764 1.60795,2.571885 3.42901,5.4873 7.11036,5.4873 3.68088,0 5.50333,-2.915415 7.11034,-5.4873 1.53473,-2.45613 2.86046,-4.57764 5.46827,-4.57764 2.61018,0 3.93507,2.12151 5.47119,4.57764 1.608,2.571885 3.43194,5.4873 7.11474,5.4873 3.68278,0 5.5053,-2.915415 7.11328,-5.4873 1.53615,-2.45613 2.86251,-4.57764 5.47266,-4.57764 2.60693,0 3.93105,2.12151 5.46533,4.57764 1.60659,2.571885 3.42903,5.4873 7.1089,5.4873 3.68093,0 5.50187,-2.916405 7.10889,-5.48877 1.53473,-2.45565 2.86044,-4.57617 5.46827,-4.57617 2.60916,0 3.93454,2.12151 5.46972,4.57764 1.608,2.571885 3.42906,5.4873 7.11034,5.4873 3.68093,0 5.50334,-2.915415 7.11036,-5.4873 1.53473,-2.45613 2.86044,-4.57764 5.46827,-4.57764 2.61006,0 3.93504,2.12151 5.47119,4.57764 1.608,2.571885 3.43056,5.4873 7.11327,5.4873 3.6828,0 5.50675,-2.915415 7.11475,-5.4873 1.53615,-2.45613 2.86104,-4.57764 5.47119,-4.57764 2.60685,0 3.93253,2.12151 5.4668,4.57764 1.6065,2.571885 3.42601,5.4873 7.10596,5.4873 3.68084,0 5.50479,-2.916405 7.11182,-5.48877 1.53472,-2.45565 2.85897,-4.57617 5.46679,-4.57617 2.60925,0 3.93447,2.12151 5.46972,4.57764 1.60793,2.571885 3.42906,5.4873 7.11036,5.4873 3.68091,0 5.50332,-2.915415 7.11035,-5.4873 1.53472,-2.45613 2.86044,-4.57764 5.46826,-4.57764 2.61015,0 3.93644,2.12151 5.47266,4.57764 1.608,2.571885 3.43049,5.4873 7.11327,5.4873 v -1.93506 c -2.61013,0 -3.93511,-2.12151 -5.47119,-4.57764 C 433.22354,26.915415 431.39953,24 427.7168,24 c -3.68085,0 -5.50333,2.915415 -7.11036,5.4873 -1.53471,2.45613 -2.86044,4.57764 -5.46825,4.57764 -2.60872,0 -3.93156,-2.12151 -5.46679,-4.57764 C 408.06347,26.915415 406.24001,24 402.55811,24 c -3.68032,0 -5.50333,2.915415 -7.11036,5.4873 -1.53472,2.45613 -2.85749,4.57764 -5.46532,4.57764 -2.60685,0 -3.9326,-2.12151 -5.4668,-4.57764 C 382.90906,26.915415 381.08669,24 377.40674,24 c -3.68272,0 -5.50389,2.915415 -7.11181,5.4873 -1.53615,2.45613 -2.86398,4.57764 -5.47413,4.57764 -2.61006,0 -3.93504,-2.12151 -5.47119,-4.57764 C 357.74161,26.915415 355.91905,24 352.23634,24 c -3.681,0 -5.50481,2.915415 -7.11182,5.4873 -1.53472,2.45613 -2.85898,4.57764 -5.46681,4.57764 -2.60871,0 -3.93447,-2.12151 -5.46972,-4.57764 C 332.58007,26.915415 330.75946,24 327.07765,24 c -3.6804,0 -5.50341,2.915415 -7.11036,5.4873 -1.53473,2.45613 -2.85897,4.57764 -5.4668,4.57764 -2.60685,0 -3.93112,-2.12151 -5.46532,-4.57764 C 307.42858,26.915415 305.6062,24 301.92626,24 c -3.68272,0 -5.50683,2.915415 -7.11475,5.4873 -1.53615,2.45613 -2.86097,4.57764 -5.47119,4.57764 -2.61015,0 -3.93651,-2.12151 -5.47266,-4.57764 C 282.25975,26.915415 280.43714,24 276.75439,24 c -3.68087,0 -5.50334,2.915415 -7.11036,5.4873 -1.5347,2.45613 -2.86046,4.57764 -5.46825,4.57764 -2.60873,0 -3.93308,-2.12151 -5.46827,-4.57764 C 257.09957,26.915415 255.27751,24 251.5957,24 c -3.6804,0 -5.50334,2.915415 -7.11036,5.4873 -1.53473,2.45613 -2.859,4.57764 -5.4668,4.57764 -2.60686,0 -3.93109,-2.12151 -5.46532,-4.57764 C 231.94667,26.915415 230.12428,24 226.44433,24 c -3.68277,0 -5.50385,2.915415 -7.11182,5.4873 -1.53615,2.45613 -2.86396,4.57764 -5.47413,4.57764 -2.61016,0 -3.93504,-2.12151 -5.47119,-4.57764 C 206.77924,26.915415 204.95524,24 201.27245,24 c -3.68086,0 -5.50332,2.915415 -7.11036,5.4873 -1.53469,2.45613 -2.86045,4.57764 -5.46825,4.57764 -2.60872,0 -3.93452,-2.12151 -5.46973,-4.57764 C 181.61614,26.915415 179.79559,24 176.11377,24 c -3.6804,0 -5.50334,2.915415 -7.11036,5.4873 -1.53473,2.45613 -2.85752,4.57764 -5.46533,4.57764 -2.60688,0 -3.93253,-2.12151 -5.46679,-4.57764 C 156.46475,26.915415 154.64234,24 150.96241,24 c -3.68277,0 -5.50532,2.915415 -7.11328,5.4873 -1.53614,2.45613 -2.86248,4.57764 -5.47267,4.57764 -2.61016,0 -3.93503,-2.12151 -5.47118,-4.57764 C 131.29734,26.915415 129.47332,24 125.79054,24 c -3.68085,0 -5.50332,2.915415 -7.11035,5.4873 -1.53469,2.45613 -2.859,4.57764 -5.4668,4.57764 -2.60872,0 -3.93307,-2.12151 -5.46826,-4.57764 C 106.13719,26.915415 104.31368,24 100.63185,24 c -3.680394,0 -5.503344,2.915415 -7.110354,5.4873 -1.53474,2.45613 -2.85753,4.57764 -5.46534,4.57764 -2.60685,0 -3.93253,-2.12151 -5.4668,-4.57764 C 80.982816,26.915415 79.161866,24 75.481936,24 c -3.68275,0 -5.50531,2.915415 -7.11328,5.4873 -1.53613,2.45613 -2.86249,4.57764 -5.47266,4.57764 -2.61015,0 -3.93651,-2.12151 -5.47264,-4.57764 C 55.815376,26.915415 53.992836,24 50.310066,24 c -3.680876,0 -5.503316,2.915415 -7.110356,5.4873 -1.53471,2.45613 -2.86044,4.57764 -5.46825,4.57764 -2.60874,0 -3.93453,-2.12151 -5.46973,-4.57764 C 30.65377,26.915415 28.8332,24 25.15138,24 Z" /><path
     id="path1-6"
     style="display:inline;stroke-width:0.96771"
     d="m 50.310066,49.93506 c 2.61015,0 3.93505,2.12151 5.47119,4.57764 1.60797,2.571885 3.43197,5.4873 7.11476,5.4873 3.68275,0 5.50531,-2.915415 7.11327,-5.4873 1.53615,-2.45613 2.86251,-4.57764 5.47266,-4.57764 2.60683,0 3.93108,2.12151 5.46534,4.57764 1.60652,2.571885 3.42748,5.4873 7.10741,5.4873 3.68087,0 5.50334,-2.916405 7.11035,-5.48877 1.53474,-2.45565 2.85901,-4.57617 5.466804,-4.57617 2.60922,0 3.93598,2.12151 5.47118,4.57764 1.60796,2.571885 3.42902,5.4873 7.11035,5.4873 3.6809,0 5.50334,-2.915415 7.11036,-5.4873 1.53472,-2.45613 2.859,-4.57764 5.46679,-4.57764 2.61019,0 3.93651,2.12151 5.47267,4.57764 1.60797,2.571885 3.43051,5.4873 7.11327,5.4873 3.68278,0 5.50676,-2.915415 7.11475,-5.4873 1.53615,-2.45613 2.86102,-4.57764 5.47119,-4.57764 2.60686,0 3.93253,2.12151 5.46679,4.57764 1.60653,2.571885 3.42896,5.4873 7.10889,5.4873 3.6809,0 5.50044,-2.916405 7.10741,-5.48877 1.53473,-2.45565 2.86047,-4.57617 5.46827,-4.57617 2.60921,0 3.93451,2.12151 5.46971,4.57764 1.60797,2.571885 3.42902,5.4873 7.11036,5.4873 3.68088,0 5.50332,-2.915415 7.11035,-5.4873 1.53472,-2.45613 2.86045,-4.57764 5.46826,-4.57764 2.61017,0 3.93506,2.12151 5.47119,4.57764 1.60797,2.571885 3.43197,5.4873 7.11474,5.4873 3.68279,0 5.50679,-2.915415 7.11476,-5.4873 1.53615,-2.45613 2.86102,-4.57764 5.47119,-4.57764 2.60686,0 3.93255,2.12151 5.46679,4.57764 1.60655,2.571885 3.42603,5.4873 7.10595,5.4873 3.68088,0 5.50335,-2.916405 7.11036,-5.48877 1.53473,-2.45565 2.86047,-4.57617 5.46827,-4.57617 2.6092,0 3.93451,2.12151 5.46972,4.57764 1.60795,2.571885 3.42901,5.4873 7.11036,5.4873 3.68088,0 5.50333,-2.915415 7.11034,-5.4873 1.53473,-2.45613 2.86046,-4.57764 5.46827,-4.57764 2.61018,0 3.93507,2.12151 5.47119,4.57764 1.608,2.571885 3.43194,5.4873 7.11474,5.4873 3.68278,0 5.5053,-2.915415 7.11328,-5.4873 1.53615,-2.45613 2.86251,-4.57764 5.47266,-4.57764 2.60693,0 3.93105,2.12151 5.46533,4.57764 1.60657,2.571885 3.42901,5.4873 7.10889,5.4873 3.68092,0 5.50186,-2.916405 7.1089,-5.48877 1.53473,-2.45565 2.86044,-4.57617 5.46827,-4.57617 2.60916,0 3.93454,2.12151 5.46972,4.57764 1.608,2.571885 3.42906,5.4873 7.11034,5.4873 3.68093,0 5.50334,-2.915415 7.11036,-5.4873 1.53473,-2.45613 2.86044,-4.57764 5.46827,-4.57764 2.61006,0 3.93504,2.12151 5.47119,4.57764 1.608,2.571885 3.43056,5.4873 7.11327,5.4873 3.6828,0 5.50675,-2.915415 7.11475,-5.4873 1.53616,-2.45613 2.86104,-4.57764 5.4712,-4.57764 2.60684,0 3.93251,2.12151 5.46679,4.57764 1.60657,2.571885 3.42602,5.4873 7.10596,5.4873 3.68084,0 5.50479,-2.916405 7.11182,-5.48877 1.53472,-2.45565 2.85897,-4.57617 5.46679,-4.57617 2.60918,0 3.93447,2.12151 5.46972,4.57764 1.60793,2.571885 3.42906,5.4873 7.11036,5.4873 3.68091,0 5.50332,-2.915415 7.11035,-5.4873 1.53472,-2.45613 2.86044,-4.57764 5.46826,-4.57764 2.61015,0 3.93651,2.12151 5.47266,4.57764 1.608,2.571885 3.43049,5.4873 7.11327,5.4873 v -1.93506 c -2.61013,0 -3.93511,-2.12151 -5.47119,-4.57764 C 433.22354,50.915415 431.39953,48 427.7168,48 c -3.68085,0 -5.50333,2.915415 -7.11036,5.4873 -1.53471,2.45613 -2.86044,4.57764 -5.46825,4.57764 -2.60872,0 -3.93156,-2.12151 -5.46679,-4.57764 C 408.06347,50.915415 406.23994,48 402.55811,48 c -3.68039,0 -5.50333,2.915415 -7.11035,5.4873 -1.53473,2.45613 -2.8575,4.57764 -5.46533,4.57764 -2.60685,0 -3.93259,-2.12151 -5.4668,-4.57764 C 382.90906,50.915415 381.0867,48 377.40675,48 c -3.68273,0 -5.5039,2.915415 -7.11182,5.4873 -1.53615,2.45613 -2.86398,4.57764 -5.47413,4.57764 -2.61006,0 -3.93504,-2.12151 -5.47119,-4.57764 C 357.74161,50.915415 355.91905,48 352.23634,48 c -3.68093,0 -5.50481,2.915415 -7.11182,5.4873 -1.53472,2.45613 -2.85898,4.57764 -5.46681,4.57764 -2.60871,0 -3.93447,-2.12151 -5.46972,-4.57764 C 332.58007,50.915415 330.75946,48 327.07765,48 c -3.6804,0 -5.50334,2.915415 -7.11038,5.4873 -1.53472,2.45613 -2.85897,4.57764 -5.46679,4.57764 -2.60685,0 -3.93113,-2.12151 -5.46533,-4.57764 C 307.42858,50.915415 305.6062,48 301.92626,48 c -3.68272,0 -5.50683,2.915415 -7.11475,5.4873 -1.53615,2.45613 -2.86097,4.57764 -5.47119,4.57764 -2.61015,0 -3.93651,-2.12151 -5.47266,-4.57764 C 282.25975,50.915415 280.43714,48 276.75439,48 c -3.68087,0 -5.50334,2.915415 -7.11036,5.4873 -1.5347,2.45613 -2.86046,4.57764 -5.46825,4.57764 -2.60873,0 -3.93308,-2.12151 -5.46827,-4.57764 C 257.09957,50.915415 255.27751,48 251.5957,48 c -3.6804,0 -5.50334,2.915415 -7.11036,5.4873 -1.53473,2.45613 -2.859,4.57764 -5.4668,4.57764 -2.60686,0 -3.93109,-2.12151 -5.46532,-4.57764 C 231.94667,50.915415 230.12428,48 226.44433,48 c -3.68277,0 -5.50385,2.915415 -7.11182,5.4873 -1.53615,2.45613 -2.86396,4.57764 -5.47413,4.57764 -2.61016,0 -3.93504,-2.12151 -5.47119,-4.57764 C 206.77924,50.915415 204.95524,48 201.27245,48 c -3.68086,0 -5.50332,2.915415 -7.11036,5.4873 -1.53469,2.45613 -2.86045,4.57764 -5.46825,4.57764 -2.60872,0 -3.93453,-2.12151 -5.46973,-4.57764 C 181.61614,50.915415 179.79559,48 176.11377,48 c -3.6804,0 -5.50334,2.915415 -7.11035,5.4873 -1.53473,2.45613 -2.85752,4.57764 -5.46533,4.57764 -2.60688,0 -3.93253,-2.12151 -5.46679,-4.57764 C 156.46475,50.915415 154.64234,48 150.96241,48 c -3.68277,0 -5.50532,2.915415 -7.11328,5.4873 -1.53614,2.45613 -2.86249,4.57764 -5.47266,4.57764 -2.61017,0 -3.93505,-2.12151 -5.47119,-4.57764 C 131.29733,50.915415 129.47332,48 125.79053,48 c -3.68085,0 -5.50332,2.915415 -7.11035,5.4873 -1.53469,2.45613 -2.85899,4.57764 -5.4668,4.57764 -2.60871,0 -3.93308,-2.12151 -5.46825,-4.57764 C 106.13719,50.915415 104.31367,48 100.63185,48 c -3.680394,0 -5.503344,2.915415 -7.110354,5.4873 -1.53474,2.45613 -2.85753,4.57764 -5.46534,4.57764 -2.60685,0 -3.93253,-2.12151 -5.46679,-4.57764 C 80.982816,50.915415 79.161866,48 75.481946,48 c -3.68276,0 -5.50532,2.915415 -7.11329,5.4873 -1.53613,2.45613 -2.86249,4.57764 -5.47264,4.57764 -2.61017,0 -3.93653,-2.12151 -5.47266,-4.57764 C 55.815386,50.915415 53.992836,48 50.310066,48 Z" /><path
     id="path1-93"
     style="display:inline;stroke-width:0.96771"
     d="m 75.481936,73.93506 c 2.60684,0 3.93108,2.12151 5.46534,4.57763 1.60653,2.5719 3.42747,5.48731 7.10742,5.48731 3.68087,0 5.50334,-2.9164 7.11035,-5.48877 1.53472,-2.45565 2.859,-4.57617 5.466794,-4.57617 2.60922,0 3.93599,2.12151 5.47119,4.57762 1.60796,2.5719 3.42902,5.48732 7.11035,5.48732 3.68089,0 5.50333,-2.91542 7.11036,-5.48732 1.53472,-2.45611 2.859,-4.57762 5.46679,-4.57762 2.61018,0 3.93651,2.12151 5.47266,4.57762 1.60797,2.5719 3.43052,5.48732 7.11327,5.48732 3.68279,0 5.50677,-2.91542 7.11475,-5.48732 1.53615,-2.45611 2.86103,-4.57762 5.47119,-4.57762 2.60687,0 3.93254,2.12151 5.4668,4.57762 1.60653,2.5719 3.42895,5.48732 7.10889,5.48732 3.68089,0 5.50043,-2.91641 7.10741,-5.48877 1.53473,-2.45565 2.86047,-4.57617 5.46827,-4.57617 2.60922,0 3.93451,2.12151 5.46972,4.57762 1.60796,2.5719 3.429,5.48732 7.11035,5.48732 3.68088,0 5.50332,-2.91542 7.11034,-5.48732 1.53473,-2.45611 2.86046,-4.57762 5.46827,-4.57762 2.61016,0 3.93505,2.12151 5.47119,4.57762 1.60797,2.5719 3.43197,5.48732 7.11474,5.48732 3.68278,0 5.50678,-2.91542 7.11475,-5.48732 1.53615,-2.45611 2.86103,-4.57762 5.47119,-4.57762 2.60687,0 3.93255,2.12151 5.4668,4.57762 1.60654,2.5719 3.42603,5.48732 7.10595,5.48732 3.68088,0 5.50335,-2.91641 7.11036,-5.48877 1.53472,-2.45565 2.86047,-4.57617 5.46826,-4.57617 2.60921,0 3.93452,2.12151 5.46974,4.57762 1.60794,2.5719 3.42901,5.48732 7.11034,5.48732 3.68088,0 5.50335,-2.91542 7.11035,-5.48732 1.53474,-2.45611 2.86045,-4.57762 5.46826,-4.57762 2.61018,0 3.93507,2.12151 5.47119,4.57762 1.608,2.5719 3.43196,5.48732 7.11476,5.48732 3.68278,0 5.50528,-2.91542 7.11327,-5.48732 1.53615,-2.45611 2.86251,-4.57762 5.47266,-4.57762 2.60692,0 3.93105,2.12151 5.46534,4.57762 1.60657,2.5719 3.42901,5.48732 7.10887,5.48732 3.68093,0 5.50187,-2.91641 7.10889,-5.48877 1.53473,-2.45565 2.86044,-4.57617 5.46827,-4.57617 2.60916,0 3.93456,2.12151 5.46972,4.57762 1.60801,2.5719 3.42909,5.48732 7.11037,5.48732 3.68093,0 5.50332,-2.91542 7.11035,-5.48732 1.53472,-2.45611 2.86044,-4.57762 5.46826,-4.57762 2.61014,0 3.93504,2.12151 5.47119,4.57762 1.608,2.5719 3.4305,5.48732 7.11329,5.48732 3.6828,0 5.50674,-2.91542 7.11474,-5.48732 1.53615,-2.45611 2.86106,-4.57762 5.47119,-4.57762 2.60685,0 3.93254,2.12151 5.46681,4.57762 1.60655,2.5719 3.426,5.48732 7.10595,5.48732 3.68084,0 5.50479,-2.91641 7.11182,-5.48877 1.53472,-2.45565 2.85897,-4.57617 5.46679,-4.57617 2.60918,0 3.93449,2.12151 5.46972,4.57762 1.60793,2.5719 3.42906,5.48732 7.11036,5.48732 3.68091,0 5.50332,-2.91542 7.11035,-5.48732 1.53471,-2.45611 2.86045,-4.57762 5.46826,-4.57762 2.61015,0 3.93651,2.12151 5.47266,4.57762 1.608,2.5719 3.43049,5.48732 7.11327,5.48732 v -1.93506 c -2.61013,0 -3.93511,-2.12153 -5.47119,-4.57764 C 433.22354,74.915415 431.39953,72 427.7168,72 c -3.68083,0 -5.50333,2.915415 -7.11036,5.4873 -1.53471,2.45612 -2.86044,4.57764 -5.46825,4.57764 -2.60872,0 -3.93156,-2.12152 -5.46679,-4.57764 C 408.06347,74.915415 406.23994,72 402.55811,72 c -3.68038,0 -5.50333,2.915415 -7.11036,5.4873 -1.53471,2.45612 -2.8575,4.57764 -5.46532,4.57764 -2.60684,0 -3.9326,-2.12152 -5.4668,-4.57764 C 382.90906,74.915415 381.08669,72 377.40674,72 c -3.68271,0 -5.50389,2.915415 -7.11181,5.4873 -1.53615,2.45612 -2.86397,4.57764 -5.47414,4.57764 -2.61013,0 -3.93504,-2.12152 -5.47119,-4.57764 C 357.7416,74.915415 355.91912,72 352.23633,72 c -3.68092,0 -5.5048,2.915415 -7.11181,5.4873 -1.53473,2.45612 -2.85899,4.57764 -5.4668,4.57764 -2.60872,0 -3.93448,-2.12152 -5.46973,-4.57764 C 332.58006,74.915415 330.75944,72 327.07763,72 c -3.6804,0 -5.50334,2.915415 -7.11036,5.4873 -1.53473,2.45612 -2.85897,4.57764 -5.4668,4.57764 -2.60683,0 -3.93114,-2.12152 -5.46532,-4.57764 C 307.42857,74.915415 305.60619,72 301.92626,72 c -3.68273,0 -5.50683,2.915415 -7.11476,5.4873 -1.53615,2.45612 -2.86096,4.57764 -5.47119,4.57764 -2.61015,0 -3.93651,-2.12152 -5.47266,-4.57764 C 282.25974,74.915415 280.43714,72 276.75438,72 c -3.68086,0 -5.50333,2.915415 -7.11036,5.4873 -1.53469,2.45612 -2.86045,4.57764 -5.46825,4.57764 -2.60872,0 -3.93307,-2.12152 -5.46826,-4.57764 C 257.09957,74.915415 255.2775,72 251.59569,72 c -3.6804,0 -5.50333,2.915415 -7.11036,5.4873 -1.53472,2.45612 -2.859,4.57764 -5.46679,4.57764 -2.60687,0 -3.9311,-2.12152 -5.46533,-4.57764 C 231.94667,74.915415 230.12427,72 226.44432,72 c -3.68277,0 -5.50384,2.915415 -7.11181,5.4873 -1.53615,2.45612 -2.86397,4.57764 -5.47413,4.57764 -2.61017,0 -3.93504,-2.12152 -5.47119,-4.57764 C 206.77923,74.915415 204.95523,72 201.27245,72 c -3.68087,0 -5.50332,2.915415 -7.11036,5.4873 -1.5347,2.45612 -2.86046,4.57764 -5.46825,4.57764 -2.60873,0 -3.93453,-2.12152 -5.46974,-4.57764 C 181.61614,74.915415 179.79559,72 176.11377,72 c -3.6804,0 -5.50334,2.915415 -7.11036,5.4873 -1.53472,2.45612 -2.85751,4.57764 -5.46532,4.57764 -2.60688,0 -3.93254,-2.12152 -5.4668,-4.57764 C 156.46475,74.915415 154.64234,72 150.9624,72 c -3.68277,0 -5.50531,2.915415 -7.11328,5.4873 -1.53613,2.45612 -2.86248,4.57764 -5.47266,4.57764 -2.61016,0 -3.93504,-2.12152 -5.47119,-4.57764 C 131.29733,74.915415 129.47332,72 125.79053,72 c -3.68085,0 -5.50332,2.915415 -7.11036,5.4873 -1.53468,2.45612 -2.85898,4.57764 -5.46679,4.57764 -2.60871,0 -3.93308,-2.12152 -5.46825,-4.57764 C 106.13719,74.915415 104.31367,72 100.63184,72 c -3.680384,0 -5.503334,2.915415 -7.110344,5.4873 -1.53474,2.45612 -2.85753,4.57764 -5.46534,4.57764 -2.60685,0 -3.93254,-2.12152 -5.4668,-4.57764 C 80.982816,74.915415 79.161856,72 75.481936,72 Z" /><path
     id="path1-1"
     style="display:inline;stroke-width:0.96771"
     d="m 100.63184,97.93506 c 2.60922,0 3.93598,2.12151 5.47119,4.57762 1.60795,2.5719 3.42901,5.48732 7.11034,5.48732 3.6809,0 5.50334,-2.91542 7.11036,-5.48732 1.53473,-2.45611 2.859,-4.57762 5.4668,-4.57762 2.61018,0 3.93651,2.12151 5.47266,4.57762 1.60797,2.5719 3.43051,5.48732 7.11327,5.48732 3.68278,0 5.50677,-2.91542 7.11475,-5.48732 1.53615,-2.45611 2.86103,-4.57762 5.47119,-4.57762 2.60687,0 3.93254,2.12151 5.4668,4.57762 1.60653,2.5719 3.42895,5.48732 7.10888,5.48732 3.6809,0 5.50044,-2.91641 7.10742,-5.48877 1.53473,-2.45565 2.86047,-4.57617 5.46827,-4.57617 2.60922,0 3.93451,2.12151 5.46972,4.57762 1.60797,2.5719 3.42901,5.48732 7.11036,5.48732 3.68088,0 5.50332,-2.91542 7.11033,-5.48732 1.53473,-2.45611 2.86046,-4.57762 5.46827,-4.57762 2.61016,0 3.93505,2.12151 5.47119,4.57762 1.60797,2.5719 3.43197,5.48732 7.11474,5.48732 3.68278,0 5.50678,-2.91542 7.11475,-5.48732 1.53615,-2.45611 2.86103,-4.57762 5.47119,-4.57762 2.60687,0 3.93255,2.12151 5.4668,4.57762 1.60654,2.5719 3.42603,5.48732 7.10595,5.48732 3.68088,0 5.50335,-2.91641 7.11036,-5.48877 1.53472,-2.45565 2.86047,-4.57617 5.46826,-4.57617 2.60921,0 3.93452,2.12151 5.46972,4.57762 1.60796,2.5719 3.42902,5.48732 7.11036,5.48732 3.68088,0 5.50334,-2.91542 7.11035,-5.48732 1.53472,-2.45611 2.86045,-4.57762 5.46826,-4.57762 2.61018,0 3.93507,2.12151 5.47119,4.57762 1.608,2.5719 3.43194,5.48732 7.11474,5.48732 3.68279,0 5.5053,-2.91542 7.11329,-5.48732 1.53615,-2.45611 2.86251,-4.57762 5.47266,-4.57762 2.60692,0 3.93105,2.12151 5.46532,4.57762 1.60658,2.5719 3.42903,5.48732 7.10889,5.48732 3.68093,0 5.50187,-2.91641 7.10889,-5.48877 1.53473,-2.45565 2.86044,-4.57617 5.46827,-4.57617 2.60916,0 3.93456,2.12151 5.46972,4.57762 1.608,2.5719 3.42906,5.48732 7.11034,5.48732 3.68093,0 5.50334,-2.91542 7.11038,-5.48732 1.53472,-2.45611 2.86044,-4.57762 5.46826,-4.57762 2.61014,0 3.93505,2.12151 5.4712,4.57762 1.608,2.5719 3.43048,5.48732 7.11326,5.48732 3.6828,0 5.50676,-2.91542 7.11476,-5.48732 1.53615,-2.45611 2.86105,-4.57762 5.47119,-4.57762 2.60685,0 3.93252,2.12151 5.46679,4.57762 1.60656,2.5719 3.42602,5.48732 7.10597,5.48732 3.68083,0 5.50479,-2.91641 7.11181,-5.48877 1.53473,-2.45565 2.85897,-4.57617 5.4668,-4.57617 2.60917,0 3.93447,2.12151 5.46972,4.57762 1.60792,2.5719 3.42906,5.48732 7.11036,5.48732 3.68091,0 5.50332,-2.91542 7.11034,-5.48732 1.53471,-2.45611 2.86046,-4.57762 5.46827,-4.57762 2.61015,0 3.93651,2.12151 5.47266,4.57762 1.608,2.5719 3.43048,5.48732 7.11327,5.48732 v -1.93506 c -2.61014,0 -3.93512,-2.12153 -5.47119,-4.57764 C 433.22354,98.91541 431.39952,96 427.7168,96 c -3.68084,0 -5.50334,2.91541 -7.11036,5.4873 -1.53471,2.45611 -2.86044,4.57764 -5.46825,4.57764 -2.60873,0 -3.93156,-2.12153 -5.4668,-4.57764 C 408.06347,98.91541 406.23993,96 402.55811,96 c -3.68039,0 -5.50334,2.91541 -7.11036,5.4873 -1.53473,2.45611 -2.8575,4.57764 -5.46533,4.57764 -2.60683,0 -3.93259,-2.12153 -5.46679,-4.57764 C 382.90905,98.91541 381.08669,96 377.40674,96 c -3.68271,0 -5.50389,2.91541 -7.11182,5.4873 -1.53615,2.45611 -2.86398,4.57764 -5.47413,4.57764 -2.61013,0 -3.93504,-2.12153 -5.47119,-4.57764 C 357.7416,98.91541 355.91912,96 352.23633,96 c -3.68092,0 -5.5048,2.91541 -7.11183,5.4873 -1.53472,2.45611 -2.85898,4.57764 -5.46681,4.57764 -2.60871,0 -3.93447,-2.12153 -5.46972,-4.57764 C 332.58006,98.91541 330.75944,96 327.07763,96 c -3.6804,0 -5.50335,2.91541 -7.11036,5.4873 -1.53473,2.45611 -2.85897,4.57764 -5.4668,4.57764 -2.60683,0 -3.93114,-2.12153 -5.46532,-4.57764 C 307.42857,98.91541 305.60619,96 301.92626,96 c -3.68273,0 -5.50683,2.91541 -7.11476,5.4873 -1.53615,2.45611 -2.86096,4.57764 -5.47119,4.57764 -2.61015,0 -3.93651,-2.12153 -5.47266,-4.57764 C 282.25974,98.91541 280.43714,96 276.75438,96 c -3.68086,0 -5.50333,2.91541 -7.11036,5.4873 -1.53469,2.45611 -2.86045,4.57764 -5.46825,4.57764 -2.60872,0 -3.93307,-2.12153 -5.46826,-4.57764 C 257.09957,98.91541 255.2775,96 251.59569,96 c -3.6804,0 -5.50333,2.91541 -7.11036,5.4873 -1.53472,2.45611 -2.859,4.57764 -5.46679,4.57764 -2.60687,0 -3.9311,-2.12153 -5.46533,-4.57764 C 231.94667,98.91541 230.12427,96 226.44432,96 c -3.68277,0 -5.50384,2.91541 -7.11181,5.4873 -1.53615,2.45611 -2.86397,4.57764 -5.47413,4.57764 -2.61017,0 -3.93504,-2.12153 -5.47119,-4.57764 C 206.77923,98.91541 204.95523,96 201.27245,96 c -3.68087,0 -5.50332,2.91541 -7.11035,5.4873 -1.5347,2.45611 -2.86046,4.57764 -5.46825,4.57764 -2.60873,0 -3.93453,-2.12153 -5.46974,-4.57764 C 181.61614,98.91541 179.79559,96 176.11377,96 c -3.6804,0 -5.50334,2.91541 -7.11036,5.4873 -1.53473,2.45611 -2.85752,4.57764 -5.46533,4.57764 -2.60688,0 -3.93253,-2.12153 -5.46679,-4.57764 C 156.46475,98.91541 154.64234,96 150.9624,96 c -3.68277,0 -5.50531,2.91541 -7.11328,5.4873 -1.53614,2.45611 -2.86248,4.57764 -5.47266,4.57764 -2.61017,0 -3.93504,-2.12153 -5.47119,-4.57764 C 131.29733,98.91541 129.47331,96 125.79053,96 c -3.68085,0 -5.50332,2.91541 -7.11036,5.4873 -1.53468,2.45611 -2.85899,4.57764 -5.4668,4.57764 -2.60871,0 -3.93307,-2.12153 -5.46825,-4.57764 C 106.13718,98.91541 104.31366,96 100.63184,96 Z" /></svg>
