<?xml version="1.0" encoding="UTF-8" standalone="no"?>
<svg
   height="8"
   width="1022.6702"
   version="1.1"
   id="svg1"
   xmlns="http://www.w3.org/2000/svg"
   xmlns:svg="http://www.w3.org/2000/svg">
  <defs
     id="defs1" />
  <path
     id="path1"
     style="fill:#040606;fill-opacity:1;fill-rule:nonzero;stroke:none;stroke-width:0.00860047"
     d="M 0.58492688,0 C 0.26163642,0 0,0.2625494 0,0.58592674 0,0.90930413 0.26163642,1.1718535 0.58492688,1.1718535 c 2.37415482,0 3.58179492,1.5474932 4.85939282,3.1876016 C 6.7736051,6.0657783 8.2795125,8 11.225597,8 c 2.946172,0 4.452991,-1.9342217 5.782277,-3.6405449 1.277598,-1.6401084 2.484323,-3.1876016 4.858393,-3.1876016 2.374069,0 3.580793,1.5474932 4.858393,3.1876016 C 28.053944,6.0657783 29.560849,8 32.506937,8 c 2.946084,0 4.453075,-1.9342217 5.782277,-3.6405449 1.277684,-1.6401084 2.484238,-3.1876016 4.858393,-3.1876016 2.374155,0 3.580798,1.5474932 4.858393,3.1876016 C 49.335372,6.0657783 50.842018,8 53.788278,8 c 2.946083,0 4.45308,-1.9342217 5.782276,-3.6405449 1.277597,-1.6401084 2.484414,-3.1876016 4.858395,-3.1876016 2.37398,0 3.580881,1.5474932 4.858391,3.1876016 C 70.616541,6.0657783 72.123194,8 75.069616,8 78.016135,8 79.522124,6.0657783 80.850894,4.3594551 82.128927,2.7193467 83.33556,1.1718535 85.70929,1.1718535 c 2.373729,0 3.580362,1.5474932 4.85839,3.1876016 C 91.896456,6.0657783 93.403437,8 96.349957,8 c 2.946519,0 4.452663,-1.9342217 5.782273,-3.6405449 1.27717,-1.6401084 2.48381,-3.1876016 4.8584,-3.1876016 2.37458,0 3.58137,1.5474932 4.85939,3.1876016 C 113.17878,6.0657783 114.68564,8 117.63129,8 c 2.94651,0 4.45365,-1.9342217 5.78329,-3.6405449 1.27717,-1.6401084 2.48467,-3.1876016 4.85839,-3.1876016 2.37373,0 3.58121,1.5474932 4.85839,3.1876016 C 134.46097,6.0657865 135.96713,8 138.91363,8 c 2.94566,0 4.45252,-1.9342135 5.78128,-3.6405449 1.27804,-1.6401084 2.4848,-3.1876016 4.8594,-3.1876016 2.37457,0 3.58122,1.5474932 4.85839,3.1876016 C 155.74234,6.0657865 157.24846,8 160.19498,8 c 2.94652,0 4.4535,-1.9342135 5.78227,-3.6405449 1.27804,-1.6401084 2.48469,-3.1876016 4.8584,-3.1876016 2.37373,0 3.58137,1.5474932 4.85939,3.1876016 C 177.02382,6.0657865 178.52981,8 181.47632,8 c 2.94643,0 4.45307,-1.9342135 5.78228,-3.6405449 1.27751,-1.6401084 2.48441,-3.1876016 4.85838,-3.1876016 2.37399,0 3.5808,1.5474932 4.85839,3.1876016 C 198.30458,6.0657865 199.81157,8 202.75766,8 c 2.94625,0 4.4529,-1.9342135 5.78227,-3.6405449 1.2776,-1.6401084 2.48324,-3.1876016 4.8574,-3.1876016 2.37416,0 3.58172,1.5474932 4.85939,3.1876016 C 219.58593,6.0657865 221.0919,8 224.038,8 c 2.94609,0 4.45299,-1.9342135 5.78228,-3.6405449 1.2776,-1.6401084 2.48432,-3.1876016 4.85839,-3.1876016 2.37406,0 3.58079,1.5474932 4.85839,3.1876016 C 240.86635,6.0657865 242.37316,8 245.31933,8 c 2.9461,0 4.453,-1.9342135 5.78228,-3.6405449 1.27759,-1.6401084 2.48425,-3.1876016 4.8584,-3.1876016 2.37416,0 3.58082,1.5474932 4.85839,3.1876016 C 262.14769,6.0657865 263.65459,8 266.60068,8 c 2.94617,0 4.45298,-1.9342135 5.78227,-3.6405449 1.2776,-1.6401084 2.48433,-3.1876016 4.8584,-3.1876016 2.37407,0 3.5808,1.5474932 4.85839,3.1876016 C 283.42904,6.0657865 284.93593,8 287.88202,8 c 2.94612,0 4.45206,-1.9342135 5.78127,-3.6405449 1.27768,-1.6401084 2.48527,-3.1876016 4.8594,-3.1876016 2.37416,0 3.58082,1.5474932 4.85838,3.1876016 C 304.71044,6.0657865 306.21709,8 309.16336,8 c 2.94609,0 4.45307,-1.9342135 5.78227,-3.6405449 1.27761,-1.6401084 2.48342,-3.1876016 4.8574,-3.1876016 2.37399,0 3.58187,1.5474932 4.85939,3.1876016 C 325.99161,6.0657865 327.49825,8 330.4447,8 c 2.94653,0 4.4515,-1.9342135 5.78027,-3.6405449 1.27804,-1.6401084 2.48572,-3.1876016 4.8594,-3.1876016 2.37374,0 3.58036,1.5474932 4.8584,3.1876016 C 347.27153,6.0657865 348.77851,8 351.72504,8 c 2.94652,0 4.45263,-1.9342135 5.78227,-3.6405449 1.27717,-1.6401084 2.48381,-3.1876016 4.85839,-3.1876016 2.37461,0 3.58136,1.5474932 4.8594,3.1876016 C 368.55385,6.0657865 370.06073,8 373.00638,8 c 2.94652,0 4.45269,-1.9342135 5.78227,-3.6405449 1.27719,-1.6401084 2.48469,-3.1876016 4.8584,-3.1876016 2.37371,0 3.58126,1.5474932 4.85839,3.1876016 C 389.83509,6.0657783 391.34221,8 394.28872,8 c 2.94566,0 4.45248,-1.9342217 5.78128,-3.6405449 1.27801,-1.6401084 2.4848,-3.1876016 4.85939,-3.1876016 2.37462,0 3.58124,1.5474932 4.8584,3.1876016 C 411.1174,6.0657783 412.62353,8 415.57006,8 c 2.9465,0 4.45352,-1.9342217 5.78228,-3.6405449 1.27803,-1.6401084 2.48465,-3.1876016 4.85839,-3.1876016 2.37368,0 3.58135,1.5474932 4.85939,3.1876016 C 432.39887,6.0657783 433.90488,8 436.8514,8 c 2.94642,0 4.45209,-1.9342217 5.78128,-3.6405449 1.27752,-1.6401084 2.4854,-3.1876016 4.85939,-3.1876016 2.37397,0 3.5808,1.5474932 4.85839,3.1876016 C 453.67968,6.0657783 455.18665,8 458.13274,8 c 2.94624,0 4.45194,-1.9342217 5.78128,-3.6405449 1.27759,-1.6401084 2.48522,-3.1876016 4.85939,-3.1876016 2.37415,0 3.57972,1.5474932 4.85739,3.1876016 C 474.96002,6.0657783 476.46699,8 479.41307,8 c 2.9461,0 4.453,-1.9342217 5.78228,-3.6405449 1.2776,-1.6401084 2.48432,-3.1876016 4.8584,-3.1876016 2.37407,0 3.5808,1.5474932 4.85839,3.1876016 C 496.24144,6.0657783 497.74825,8 500.69442,8 c 2.94609,0 4.45299,-1.9342217 5.78228,-3.6405449 1.27759,-1.6401084 2.48422,-3.1876016 4.85839,-3.1876016 2.37422,0 3.58075,1.5474932 4.85839,3.1876016 C 517.52272,6.0657783 519.02966,8 521.97575,8 c 2.94624,0 4.45297,-1.9342217 5.78227,-3.6405449 1.27752,-1.6401084 2.48427,-3.1876016 4.85841,-3.1876016 2.37406,0 3.58074,1.5474932 4.85838,3.1876016 C 538.80405,6.0657783 540.31093,8 543.25708,8 c 2.94609,0 4.45205,-1.9342217 5.78129,-3.6405449 1.27764,-1.6401084 2.48422,-3.1876016 4.85838,-3.1876016 2.37415,0 3.58176,1.5474932 4.8594,3.1876016 C 560.08549,6.0657783 561.59125,8 564.53744,8 c 2.94614,0 4.45307,-1.9342217 5.78227,-3.6405449 1.27759,-1.6401084 2.48447,-3.1876016 4.85843,-3.1876016 2.37399,0 3.58186,1.5474932 4.85934,3.1876016 C 581.36667,6.0657783 582.87233,8 585.81877,8 c 2.94655,0 4.45246,-1.9342217 5.7813,-3.6405449 1.27799,-1.6401084 2.4857,-3.1876016 4.85939,-3.1876016 2.3737,0 3.58038,1.5474932 4.85838,3.1876016 C 602.64668,6.0657783 604.1536,8 607.10011,8 c 2.94655,0 4.45266,-1.9342217 5.78226,-3.6405449 1.27718,-1.6401084 2.48381,-3.1876016 4.85843,-3.1876016 2.37462,0 3.58038,1.5474932 4.85838,3.1876016 C 623.92795,6.0657783 625.43484,8 628.38046,8 c 2.94651,0 4.45462,-1.9342217 5.78427,-3.6405449 1.27708,-1.6401084 2.4836,-3.1876016 4.85741,-3.1876016 2.37368,0 3.58119,1.5474932 4.85836,3.1876016 C 645.21011,6.0657865 646.7173,8 649.6638,8 c 2.94567,0 4.45261,-1.9342135 5.78129,-3.6405449 1.27805,-1.6401084 2.48478,-3.1876016 4.8594,-3.1876016 2.37466,0 3.58125,1.5474932 4.85837,3.1876016 C 666.49262,6.0657865 667.99863,8 670.94513,8 c 2.9465,0 4.45246,-1.9342135 5.7813,-3.6405449 1.27799,-1.6401084 2.48565,-3.1876016 4.85939,-3.1876016 2.3737,0 3.5814,1.5474932 4.8594,3.1876016 C 687.77396,6.0657865 689.27904,8 692.2255,8 c 2.9466,0 4.45307,-1.9342135 5.78226,-3.6405449 1.27754,-1.6401084 2.48535,-3.1876016 4.8594,-3.1876016 2.37395,0 3.57981,1.5474932 4.8574,3.1876016 C 709.0538,6.0657865 710.56079,8 713.50682,8 c 2.94631,0 4.45287,-1.9342135 5.78227,-3.6405449 1.27754,-1.6401084 2.48422,-3.1876016 4.85838,-3.1876016 2.37415,0 3.58171,1.5474932 4.85939,3.1876016 C 730.33606,6.0657865 731.84207,8 734.78816,8 c 2.94609,0 4.45292,-1.9342135 5.78227,-3.6405449 1.27758,-1.6401084 2.48432,-3.1876016 4.85842,-3.1876016 2.37411,0 3.58079,1.5474932 4.85838,3.1876016 C 751.61652,6.0657865 753.12331,8 756.0695,8 c 2.94608,0 4.452,-1.9342135 5.78128,-3.6405449 1.27759,-1.6401084 2.48423,-3.1876016 4.85838,-3.1876016 2.37416,0 3.58181,1.5474932 4.8594,3.1876016 C 772.89785,6.0657865 774.40376,8 777.34985,8 c 2.9462,0 4.45298,-1.9342135 5.78227,-3.6405449 1.27759,-1.6401084 2.48432,-3.1876016 4.85838,-3.1876016 2.37404,0 3.58084,1.5474932 4.85842,3.1876016 C 794.17821,6.0657865 795.6851,8 798.63119,8 c 2.94608,0 4.45307,-1.9342135 5.78227,-3.6405449 1.27769,-1.6401084 2.48421,-3.1876016 4.85837,-3.1876016 2.37415,0 3.58079,1.5474932 4.85842,3.1876016 C 815.4596,6.0657865 816.96628,8 819.91252,8 c 2.94609,0 4.45308,-1.9342135 5.78227,-3.6405449 1.27758,-1.6401084 2.48443,-3.1876016 4.85842,-3.1876016 2.37396,0 3.58084,1.5474932 4.85838,3.1876016 C 836.74078,6.0657865 838.2474,8 841.19386,8 c 2.9465,0 4.45251,-1.9342135 5.78129,-3.6405449 1.278,-1.6401084 2.48566,-3.1876016 4.8594,-3.1876016 2.37369,0 3.58033,1.5474932 4.85838,3.1876016 C 858.0217,6.0657865 859.52869,8 862.47519,8 c 2.94655,0 4.45261,-1.9342135 5.78226,-3.6405449 1.27719,-1.6401084 2.48284,-3.1876016 4.85741,-3.1876016 2.37461,0 3.58135,1.5474932 4.85939,3.1876016 C 879.30299,6.0657865 880.80987,8 883.75555,8 c 2.9465,0 4.45369,-1.9342135 5.78329,-3.6405449 1.27717,-1.6401084 2.48468,-3.1876016 4.85837,-3.1876016 2.37375,0 3.58121,1.5474932 4.85838,3.1876016 C 900.58519,6.0657783 902.09141,8 905.03786,8 c 2.94568,0 4.45251,-1.9342217 5.78129,-3.6405449 1.278,-1.6401084 2.48479,-3.1876016 4.8594,-3.1876016 2.37457,0 3.58119,1.5474932 4.85838,3.1876016 C 921.86652,6.0657783 923.37274,8 926.31925,8 c 2.94654,0 4.45348,-1.9342217 5.78225,-3.6405449 1.27806,-1.6401084 2.48463,-3.1876016 4.85838,-3.1876016 2.37374,0 3.58135,1.5474932 4.8594,3.1876016 C 943.14806,6.0657783 944.65408,8 947.60057,8 c 2.94646,0 4.45308,-1.9342217 5.78227,-3.6405449 1.27749,-1.6401084 2.48437,-3.1876016 4.85838,-3.1876016 2.37394,0 3.58084,1.5474932 4.85842,3.1876016 C 964.42883,6.0657783 965.93582,8 968.88191,8 c 2.94624,0 4.45292,-1.9342217 5.78227,-3.6405449 1.27758,-1.6401084 2.48422,-3.1876016 4.85837,-3.1876016 2.37421,0 3.58073,1.5474932 4.85843,3.1876016 C 985.71022,6.0657783 987.21716,8 990.16325,8 c 2.94608,0 4.45297,-1.9342217 5.78225,-3.6405449 1.2776,-1.6401084 2.48439,-3.1876016 4.8584,-3.1876016 2.374,0 3.5798,1.5474932 4.8574,3.1876016 C 1006.9906,6.0657783 1008.4974,8 1011.4436,8 c 2.9461,0 4.453,-1.9342217 5.7823,-3.6405449 1.2776,-1.6401084 2.4842,-3.1876016 4.8583,-3.1876016 0.3233,0 0.586,-0.26254937 0.586,-0.58592676 C 1022.6702,0.26254939 1022.4075,0 1022.0842,0 c -2.9461,0 -4.4529,1.9340735 -5.7822,3.6395451 -1.2776,1.6401083 -2.4843,3.1896015 -4.8584,3.1896015 -2.3741,0 -3.5808,-1.5494932 -4.8584,-3.1896015 C 1005.256,1.9340735 1003.75,0 1000.8039,0 c -2.94616,0 -4.45396,1.9340735 -5.78326,3.6395451 -1.27758,1.6401083 -2.4833,3.1896015 -4.85739,3.1896015 -2.37416,0 -3.58079,-1.5494932 -4.85838,-3.1896015 C 983.97558,1.9340735 982.46875,0 979.52255,0 c -2.94614,0 -4.45298,1.9340735 -5.78226,3.6395451 -1.27764,1.6401083 -2.48422,3.1896015 -4.85838,3.1896015 -2.3741,0 -3.58069,-1.5494932 -4.85838,-3.1896015 C 962.69429,1.9340735 961.18756,0 958.24122,0 c -2.9463,0 -4.45297,1.9340735 -5.78227,3.6395451 -1.27749,1.6401083 -2.48422,3.1896015 -4.85838,3.1896015 -2.37374,0 -3.58038,-1.5494932 -4.85842,-3.1896015 C 941.41337,1.9340735 939.90643,0 936.95988,0 c -2.94649,0 -4.45266,1.9340735 -5.78227,3.6395451 -1.27717,1.6401083 -2.48462,3.1896015 -4.85836,3.1896015 -2.3737,0 -3.58038,-1.5494932 -4.85843,-3.1896015 C 920.13203,1.9340735 918.62504,0 915.67855,0 c -2.94655,0 -4.45175,1.9340735 -5.78227,3.6395451 -1.27717,1.6401083 -2.48468,3.1896015 -4.85842,3.1896015 -2.37457,0 -3.58033,-1.5494932 -4.85838,-3.1896015 C 898.8507,1.9340735 897.3429,0 894.39721,0 c -2.94563,0 -4.45348,1.9340735 -5.78226,3.6395451 -1.27805,1.6400996 -2.48483,3.1896015 -4.8594,3.1896015 -2.37374,0 -3.58017,-1.5495019 -4.85741,-3.1896015 C 877.56768,1.9340735 876.06136,0 873.11486,0 c -2.94651,0 -4.45349,1.9340735 -5.78227,3.6395451 -1.278,1.6400996 -2.48365,3.1896015 -4.8574,3.1896015 -2.37369,0 -3.5812,-1.5495019 -4.85837,-3.1896015 C 856.28721,1.9340735 854.78104,0 851.83455,0 c -2.94655,0 -4.45354,1.9340735 -5.78232,3.6395451 -1.27804,1.6400996 -2.48468,3.1896015 -4.85837,3.1896015 -2.37416,0 -3.58089,-1.5495019 -4.85838,-3.1896015 C 835.00618,1.9340735 833.49945,0 830.55321,0 c -2.94634,0 -4.45312,1.9340735 -5.78231,3.6395451 -1.27774,1.6400996 -2.48433,3.1896015 -4.85838,3.1896015 -2.37416,0 -3.58078,-1.5495019 -4.85838,-3.1896015 C 813.72486,1.9340735 812.21802,0 809.27183,0 c -2.94614,0 -4.45298,1.9340735 -5.78226,3.6395451 -1.2776,1.6400996 -2.48422,3.1896015 -4.85838,3.1896015 -2.3741,0 -3.58079,-1.5495019 -4.85842,-3.1896015 C 792.44352,1.9340735 790.93664,0 787.9905,0 c -2.94609,0 -4.45308,1.9340735 -5.78227,3.6395451 -1.27759,1.6400996 -2.48432,3.1896015 -4.85838,3.1896015 -2.37405,0 -3.58084,-1.5495019 -4.85842,-3.1896015 C 771.16213,1.9340735 769.65535,0 766.70916,0 c -2.94619,0 -4.452,1.9340735 -5.7813,3.6395451 -1.27758,1.6400996 -2.48432,3.1896015 -4.85836,3.1896015 -2.37411,0 -3.58084,-1.5495019 -4.85838,-3.1896015 C 749.88188,1.9340735 748.37495,0 745.42885,0 c -2.94614,0 -4.45308,1.9340735 -5.78231,3.6395451 -1.27764,1.6400996 -2.48432,3.1896015 -4.85838,3.1896015 -2.37415,0 -3.58084,-1.5495019 -4.85838,-3.1896015 C 728.60044,1.9340735 727.09361,0 724.14747,0 c -2.94619,0 -4.45195,1.9340735 -5.78125,3.6395451 -1.27764,1.6400996 -2.48524,3.1896015 -4.8594,3.1896015 -2.3741,0 -3.58063,-1.5495019 -4.85837,-3.1896015 C 707.31926,1.9340735 705.8135,0 702.86716,0 c -2.9463,0 -4.454,1.9340735 -5.7833,3.6395451 -1.27752,1.6400996 -2.48421,3.1896015 -4.85836,3.1896015 -2.3737,0 -3.58038,-1.5495019 -4.85843,-3.1896015 C 686.03828,1.9340735 684.53228,0 681.58582,0 c -2.94655,0 -4.45266,1.9340735 -5.78226,3.6395451 -1.27718,1.6400996 -2.48474,3.1896015 -4.85843,3.1896015 -2.37374,0 -3.58033,-1.5495019 -4.85838,-3.1896015 C 664.75803,1.9340735 663.25099,0 660.30449,0 c -2.94655,0 -4.45281,1.9340735 -5.78329,3.6395451 -1.27718,1.6400996 -2.48365,3.1896015 -4.8574,3.1896015 -2.37456,0 -3.58135,-1.5495019 -4.85941,-3.1896015 C 643.47567,1.9340735 641.96776,0 639.02214,0 c -2.94568,0 -4.45349,1.9340735 -5.78227,3.6395451 -1.27806,1.6401083 -2.48479,3.1896015 -4.85941,3.1896015 -2.37374,0 -3.5792,-1.5494932 -4.85637,-3.1896015 C 622.19362,1.9340735 620.68735,0 617.7408,0 c -2.9465,0 -4.45354,1.9340735 -5.78227,3.6395451 -1.27804,1.6401083 -2.48463,3.1896015 -4.85842,3.1896015 -2.3737,0 -3.5812,-1.5494932 -4.85838,-3.1896015 C 600.91213,1.9340735 599.40597,0 596.45946,0 c -2.94649,0 -4.45353,1.9340735 -5.78231,3.6395451 -1.27805,1.6401083 -2.48464,3.1896015 -4.85838,3.1896015 -2.37416,0 -3.58089,-1.5494932 -4.85838,-3.1896015 C 579.63111,1.9340735 578.12443,0 575.17814,0 c -2.94631,0 -4.45211,1.9340735 -5.7813,3.6395451 -1.27769,1.6401083 -2.48529,3.1896015 -4.8594,3.1896015 -2.37415,0 -3.58084,-1.5494932 -4.85837,-3.1896015 C 558.34967,1.9340735 556.84299,0 553.89675,0 c -2.94619,0 -4.452,1.9340735 -5.78125,3.6395451 -1.27763,1.6401083 -2.48427,3.1896015 -4.85842,3.1896015 -2.37416,0 -3.58172,-1.5494932 -4.85935,-3.1896015 C 537.06849,1.9340735 535.56262,0 532.61643,0 c -2.94613,0 -4.45312,1.9340735 -5.78225,3.6395451 -1.27765,1.6401083 -2.48434,3.1896015 -4.85843,3.1896015 -2.37406,0 -3.58079,-1.5494932 -4.85838,-3.1896015 C 515.78808,1.9340735 514.28135,0 511.33509,0 c -2.94616,0 -4.45298,1.9340735 -5.78228,3.6395451 -1.27759,1.6401083 -2.48432,3.1896015 -4.85839,3.1896015 -2.37407,0 -3.5808,-1.5494932 -4.8584,-3.1896015 C 494.50684,1.9340735 492.99984,0 490.05375,0 c -2.94619,0 -4.45299,1.9340735 -5.78228,3.6395451 -1.2776,1.6401083 -2.48432,3.1896015 -4.8584,3.1896015 -2.37417,0 -3.58079,-1.5494932 -4.85839,-3.1896015 C 473.2254,1.9340735 471.71957,0 468.77341,0 c -2.94619,0 -4.45399,1.9340735 -5.78328,3.6395451 -1.2776,1.6401083 -2.48324,3.1896015 -4.85739,3.1896015 -2.37407,0 -3.58162,-1.5494932 -4.85939,-3.1896015 C 451.94415,1.9340735 450.43841,0 447.49207,0 c -2.94627,0 -4.45299,1.9340735 -5.78228,3.6395451 -1.27749,1.6401083 -2.48424,3.1896015 -4.85839,3.1896015 -2.37374,0 -3.58037,-1.5494932 -4.8584,-3.1896015 C 430.66423,1.9340735 429.15722,0 426.21073,0 c -2.94653,0 -4.45265,1.9340735 -5.78229,3.6395451 -1.27715,1.6401083 -2.48467,3.1896015 -4.85838,3.1896015 -2.37374,0 -3.58036,-1.5494932 -4.85839,-3.1896015 C 409.38289,1.9340735 407.87592,0 404.92939,0 c -2.9465,0 -4.45281,1.9340735 -5.78327,3.6395451 -1.27719,1.6401083 -2.48366,3.1896015 -4.8574,3.1896015 -2.37458,0 -3.58136,-1.5494932 -4.85939,-3.1896015 C 388.10055,1.9340735 386.5927,0 383.64705,0 c -2.94566,0 -4.4525,1.9340735 -5.78128,3.6395451 -1.27803,1.6400996 -2.4848,3.1896015 -4.85939,3.1896015 -2.37373,0 -3.58121,-1.5495019 -4.85839,-3.1896015 C 366.81752,1.9340735 365.31224,0 362.3657,0 c -2.94649,0 -4.4535,1.9340735 -5.78227,3.6395451 -1.27804,1.6400996 -2.48466,3.1896015 -4.85839,3.1896015 -2.37372,0 -3.58123,-1.5495019 -4.85839,-3.1896015 C 345.537,1.9340735 344.03089,0 341.08437,0 c -2.94648,0 -4.45351,1.9340735 -5.78228,3.6395451 -1.27803,1.6400996 -2.48366,3.1896015 -4.85739,3.1896015 -2.37415,0 -3.5809,-1.5495019 -4.8584,-3.1896015 C 324.25702,1.9340735 322.7493,0 319.80303,0 c -2.94634,0 -4.45209,1.9340735 -5.78128,3.6395451 -1.27777,1.6400996 -2.48432,3.1896015 -4.85839,3.1896015 -2.37415,0 -3.5818,-1.5495019 -4.8594,-3.1896015 C 302.97468,1.9340735 301.46888,0 298.52269,0 c -2.94614,0 -4.45299,1.9340735 -5.78227,3.6395451 -1.27761,1.6400996 -2.48423,3.1896015 -4.8584,3.1896015 -2.37407,0 -3.5808,-1.5495019 -4.85839,-3.1896015 C 281.69433,1.9340735 280.18751,0 277.24135,0 c -2.9461,0 -4.4531,1.9340735 -5.78228,3.6395451 -1.27759,1.6400996 -2.48431,3.1896015 -4.85839,3.1896015 -2.37407,0 -3.5808,-1.5495019 -4.85839,-3.1896015 C 260.41299,1.9340735 258.90619,0 255.96001,0 c -2.94617,0 -4.45299,1.9340735 -5.78228,3.6395451 -1.2776,1.6400996 -2.48433,3.1896015 -4.8584,3.1896015 -2.37406,0 -3.58079,-1.5495019 -4.85838,-3.1896015 C 239.13175,1.9340735 237.62474,0 234.67867,0 c -2.94617,0 -4.45299,1.9340735 -5.78228,3.6395451 -1.27759,1.6400996 -2.48433,3.1896015 -4.85839,3.1896015 -2.37415,0 -3.5798,-1.5495019 -4.8574,-3.1896015 C 217.85132,1.9340735 216.3435,0 213.39733,0 c -2.94617,0 -4.452,1.9340735 -5.78128,3.6395451 -1.27759,1.6400996 -2.48424,3.1896015 -4.85839,3.1896015 -2.37407,0 -3.58063,-1.5495019 -4.8584,-3.1896015 C 196.57006,1.9340735 195.06333,0 192.11698,0 c -2.94626,0 -4.45298,1.9340735 -5.78226,3.6395451 -1.27753,1.6400996 -2.48424,3.1896015 -4.8584,3.1896015 -2.37373,0 -3.58037,-1.5495019 -4.85839,-3.1896015 C 175.28915,1.9340735 173.78217,0 170.83565,0 c -2.94651,0 -4.45265,1.9340735 -5.78228,3.6395451 -1.27715,1.6400996 -2.48467,3.1896015 -4.85839,3.1896015 -2.37373,0 -3.58037,-1.5495019 -4.8584,-3.1896015 C 154.00781,1.9340735 152.50081,0 149.55431,0 c -2.94652,0 -4.45179,1.9340735 -5.78228,3.6395451 -1.27718,1.6400996 -2.48468,3.1896015 -4.8584,3.1896015 -2.37458,0 -3.58036,-1.5495019 -4.85839,-3.1896015 C 132.72647,1.9340735 131.21862,0 128.27297,0 c -2.94565,0 -4.45351,1.9340735 -5.78228,3.6395451 -1.27802,1.6401083 -2.48481,3.1896015 -4.8594,3.1896015 -2.37371,0 -3.58022,-1.5494932 -4.85738,-3.1896015 C 111.44341,1.9340735 109.93713,0 106.99063,0 c -2.94653,0 -4.45351,1.9340735 -5.78228,3.6395451 -1.27803,1.6401083 -2.484664,3.1896015 -4.858393,3.1896015 -2.373729,0 -3.580219,-1.5494932 -4.857392,-3.1896015 C 90.162939,1.9340735 88.65581,0 85.70929,0 c -2.94652,0 -4.452512,1.9340735 -5.781278,3.6395451 -1.278028,1.6401083 -2.484666,3.1896015 -4.858396,3.1896015 -2.374154,0 -3.580879,-1.5494932 -4.858391,-3.1896015 C 68.881938,1.9340735 67.375207,0 64.428949,0 c -2.946345,0 -4.453075,1.9340735 -5.782281,3.6395451 -1.277761,1.6401083 -2.484328,3.1896015 -4.85839,3.1896015 -2.37416,0 -3.580798,-1.5494932 -4.858393,-3.1896015 C 47.600595,1.9340735 46.093779,0 43.147607,0 c -2.946171,0 -4.45299,1.9340735 -5.782278,3.6395451 -1.277597,1.6401083 -2.484236,3.1896015 -4.858392,3.1896015 -2.37407,0 -3.580797,-1.5494932 -4.858393,-3.1896015 C 26.319257,1.9340735 24.812439,0 21.866267,0 18.920182,0 17.414189,1.9340735 16.08499,3.6395451 14.807392,5.2796534 13.599667,6.8291466 11.225597,6.8291466 8.8515277,6.8291466 7.6448019,5.2796534 6.3672042,3.6395451 5.0379185,1.9340735 3.5310985,0 0.58492688,0 Z" />
</svg>
